<svg xmlns="http://www.w3.org/2000/svg" width="103.305" height="93.791" viewBox="0 0 103.305 93.791"><defs><style>.a{fill:#1a1818;}</style></defs><g transform="translate(0 64.357)"><path class="a" d="M158.212,576.506l.783-1.164a1.95,1.95,0,0,0,1.489.328c.571-.129.85-.429.849-.806,0-.4-.345-.451-.875-.56l-.787-.174a1.4,1.4,0,0,1-1.226-1.457,2.63,2.63,0,0,1,2.151-2.384,2.283,2.283,0,0,1,1.949.393l-.688,1.063a1.622,1.622,0,0,0-1.258-.214c-.472.107-.771.381-.77.745,0,.39.4.443.926.544l.772.154a1.334,1.334,0,0,1,1.205,1.458,2.7,2.7,0,0,1-2.275,2.487A2.736,2.736,0,0,1,158.212,576.506Z" transform="translate(-158.212 -547.561)"/><path class="a" d="M179.9,564.953l1.368-.309.007,2.451,2.089-.473-.007-2.451,1.368-.31.018,6.36-1.368.31-.007-2.655-2.089.473L181.29,571l-1.368.31Z" transform="translate(-174.37 -542.823)"/><path class="a" d="M204.418,561.691l1.368-.31.018,6.36-1.369.31Z" transform="translate(-192.631 -540.975)"/><path class="a" d="M215.38,556.976l1.4-.317,1.588,2.806.6,1.262.037-.008c-.066-.658-.179-1.524-.181-2.274l-.006-2.247,1.3-.3.018,6.36-1.4.317-1.588-2.814-.6-1.254-.037.008c.066.687.179,1.514.181,2.263l.006,2.257-1.3.3Z" transform="translate(-200.796 -536.894)"/><path class="a" d="M239.581,552.129l3.792-.859,0,1.206-2.424.548,0,1.277,2.064-.467,0,1.206-2.064.467,0,1.465,2.517-.57,0,1.206-3.885.879Z" transform="translate(-218.824 -533.444)"/><path class="a" d="M259.523,548.364l2.18-.494c1.284-.29,2.337-.06,2.342,1.452a2.68,2.68,0,0,1-2.33,2.619l-.811.184.006,2.289-1.369.31Zm2.076,2.462c.72-.163,1.106-.574,1.1-1.2s-.389-.752-1.109-.589l-.7.158.005,1.788Zm-.136.794.944-1.134,1.941,3.151-1.531.347Z" transform="translate(-233.678 -530.83)"/><path class="a" d="M280.749,546.045a3.94,3.94,0,0,1,2.941-4,2.126,2.126,0,0,1,1.912.393l-.719,1.086a1.268,1.268,0,0,0-1.144-.248,2.267,2.267,0,0,0-1.588,2.405c0,1.307.569,1.939,1.709,1.681a1.326,1.326,0,0,0,.641-.334l0-1.1-1,.227,0-1.174,2.218-.5.008,2.932a3.677,3.677,0,0,1-1.995,1.222C282.055,549.012,280.755,548.188,280.749,546.045Z" transform="translate(-249.49 -526.518)"/><path class="a" d="M303.812,540.875l-1.834-3.679,1.463-.331.545,1.339c.163.44.322.845.5,1.3l.037-.009c.171-.532.343-1.011.507-1.526l.536-1.584,1.43-.324-1.812,4.5.006,2.268-1.368.31Z" transform="translate(-265.303 -522.115)"/><path class="a" d="M330.529,532.352l2.079-.471c1.332-.3,2.407-.044,2.411,1.5a2.758,2.758,0,0,1-2.363,2.692l-.748.17.006,2.158-1.368.31Zm2.044,2.6a1.221,1.221,0,0,0,1.106-1.266c0-.666-.408-.812-1.148-.645l-.63.143.005,1.919Z" transform="translate(-286.571 -518.919)"/><path class="a" d="M352.111,529.4l-.009-3.413,1.368-.31.01,3.56c0,1.245.378,1.591,1.055,1.438s1.071-.673,1.068-1.919l-.01-3.56,1.319-.3.009,3.413c.006,2.135-.817,3.252-2.383,3.606S352.117,531.534,352.111,529.4Z" transform="translate(-302.64 -513.799)"/><path class="a" d="M376.422,521.964l2.08-.471c1.332-.3,2.407-.044,2.411,1.5a2.759,2.759,0,0,1-2.363,2.693l-.748.169.006,2.158-1.369.31Zm2.044,2.6a1.221,1.221,0,0,0,1.106-1.265c0-.666-.408-.813-1.148-.645l-.63.143.005,1.919Z" transform="translate(-320.756 -511.181)"/><path class="a" d="M398.127,517.051l2.08-.471c1.332-.3,2.407-.044,2.411,1.5a2.758,2.758,0,0,1-2.363,2.693l-.748.169.006,2.158-1.368.31Zm2.044,2.6a1.22,1.22,0,0,0,1.106-1.266c0-.666-.407-.812-1.148-.645l-.63.143.005,1.919Z" transform="translate(-336.924 -507.522)"/><path class="a" d="M419.833,511.328l3.792-.858,0,1.206-2.424.549,0,1.277,2.063-.467,0,1.206-2.064.467,0,1.465,2.517-.569,0,1.206-3.885.879Z" transform="translate(-353.093 -503.052)"/><path class="a" d="M439.555,507.471l-1.666.377,0-1.206,4.7-1.064,0,1.206-1.666.377.014,5.154-1.368.31Z" transform="translate(-366.541 -499.408)"/><path class="a" d="M465.825,506.876l.783-1.164a1.951,1.951,0,0,0,1.489.328c.571-.129.85-.429.849-.806,0-.4-.346-.451-.875-.56l-.787-.174a1.4,1.4,0,0,1-1.227-1.457,2.63,2.63,0,0,1,2.151-2.384,2.284,2.284,0,0,1,1.949.393l-.688,1.063a1.623,1.623,0,0,0-1.258-.214c-.472.107-.772.381-.771.745,0,.39.4.442.927.543l.772.154a1.334,1.334,0,0,1,1.206,1.459,2.7,2.7,0,0,1-2.275,2.487A2.735,2.735,0,0,1,465.825,506.876Z" transform="translate(-387.352 -495.694)"/><path class="a" d="M487.516,495.325l1.368-.31.007,2.451,2.089-.473-.007-2.451,1.368-.31.017,6.36-1.368.31-.007-2.655-2.089.473.007,2.655-1.368.31Z" transform="translate(-403.51 -490.956)"/><path class="a" d="M510.942,493.984a3.674,3.674,0,0,1,2.74-3.892c1.632-.369,2.752.578,2.758,2.648a3.739,3.739,0,0,1-2.74,3.947C512.068,497.056,510.947,496.063,510.942,493.984Zm4.1-.927c0-1.275-.527-1.91-1.352-1.723s-1.345,1.058-1.341,2.333.526,1.965,1.353,1.778S515.041,494.333,515.038,493.057Z" transform="translate(-420.96 -487.814)"/><path class="a" d="M534.553,483.043l1.4-.317.428,2.876c.081.653.17,1.3.252,1.956l.037-.008c.116-.7.236-1.4.355-2.093l.643-3.118,1.161-.263.659,2.823c.123.619.246,1.278.369,1.929l.038-.008c.078-.7.16-1.394.238-2.067l.411-3.066,1.307-.3-1.057,6.6-1.721.39-.6-2.755c-.1-.47-.18-.961-.246-1.422l-.037.008c-.072.492-.147,1.019-.242,1.532l-.565,3.019-1.69.382Z" transform="translate(-438.548 -481.391)"/></g><g transform="translate(9.246 0)"><g transform="translate(0 12.593)"><path d="M223.234,278.5a12.572,12.572,0,0,0-1.324.968c-.55.423-1.192.931-1.937,1.529q-1.177,1.028-1.877,1.663a.779.779,0,0,0-.324-.522,1.705,1.705,0,0,0-1.03-.236,1.269,1.269,0,0,0-.705.464,3.142,3.142,0,0,0-.261,1.134,16.873,16.873,0,0,0,.086,1.923c0,1.629-.079,3.267-.235,4.926q-.238,2.451-.646,4.971c-.238,1.514-.444,2.813-.619,3.883-.291,1.743-.44,2.749-.44,3.024.391-.117.864-.76,1.41-1.925a8.6,8.6,0,0,0,1.41-3.07,7.485,7.485,0,0,0,.705-2.431c.08-.661.136-1.828.176-3.5v-.268l.09-2.014v-.467c.076-1.29.146-2.187.205-2.686.1-.589.185-1.417.265-2.492a2.537,2.537,0,0,0,.676-.455,8.241,8.241,0,0,1,1.966-1.039c.9-.139,1.8-.284,2.7-.447a1.439,1.439,0,0,0,1.112-1.511Q224.233,278.3,223.234,278.5Zm-10.988,3.443c-.311.1-.851.3-1.612.611a1.417,1.417,0,0,0,.09-.514,2.1,2.1,0,0,0-1.089-1.694,2.973,2.973,0,0,0-1.851-.249.934.934,0,0,0-.527.806,1.5,1.5,0,0,0,.586,1.092,1.07,1.07,0,0,1,.589.88,2.272,2.272,0,0,1-.149.735c-.354.149-.7.273-1.026.379-.8.279-1.48.528-2.029.757q-1.177.526-1.2,1.384a1.11,1.11,0,0,0,.5.927,1.211,1.211,0,0,0,1.175.237,5.837,5.837,0,0,0,1.818-.741A30.479,30.479,0,0,1,210.6,285c.626-.283,1.4-.6,2.321-.96a1.324,1.324,0,0,0,.97-1.308Q213.895,281.786,212.246,281.941Zm.063,6.066-.619.212a1.823,1.823,0,0,0,.176-.18q1.614-1.705,1.616-2.466a1.229,1.229,0,0,0-.265-.739.791.791,0,0,0-.645-.226q-.675.163-1.821,1.976c-.275.485-.52.937-.735,1.347-.2.429-.361.846-.5,1.245-.371.173-.732.34-1.083.509a4.9,4.9,0,0,0-.149-1.172,2.808,2.808,0,0,0-.53-.835,1.642,1.642,0,0,0-1.437-.42c-.119.024-.255.177-.41.462a1.865,1.865,0,0,0-.179.621,1.723,1.723,0,0,0,.616,1.172c.334.225.645.432.94.6-.821.3-1.506.563-2.056.792q-1.117.485-1.145,1.316a1.05,1.05,0,0,0,.47.873,1.17,1.17,0,0,0,1.086.225,6.414,6.414,0,0,0,1.88-.727c.059-.028.149-.076.265-.139l2.056-1.027.046-.022c.239-.117.49-.23.748-.34q.939-.42,2.317-.956a1.371,1.371,0,0,0,1-1.317C213.951,288.171,213.4,287.909,212.309,288.007Z" transform="translate(-201.584 -278.477)"/><path d="M269.692,331.544a15.533,15.533,0,0,1-.473,4.1q-.908,2-1.437,3.341-.561.015-.91-2.875-.027-7.046-.083-10.862a1.026,1.026,0,0,1,.564-.912l1.306-.629a.634.634,0,0,1,.945.6v.821Q269.691,328.14,269.692,331.544Z" transform="translate(-248.335 -312.113)"/><path d="M269.244,302.047c0,.51-.331.91-1,1.2a9.126,9.126,0,0,1-1.7.8c-.47.169-.944.353-1.41.541l-2.824,1.3v0c-.017.01-.033.017-.05.027h0a11.32,11.32,0,0,1-2,.883,1.509,1.509,0,0,1-1.145-.246l.089-2.014q1.232-.686,3.085-1.638l2.943-1.484a10.1,10.1,0,0,1,1.665-.638,2.826,2.826,0,0,1,1.7.192A1.436,1.436,0,0,1,269.244,302.047Z" transform="translate(-242.619 -295.052)"/><path d="M234.091,334.527a1.344,1.344,0,0,1-.98,1.29c-.983.387-1.831.75-2.542,1.083l-.2-2.3a20.519,20.519,0,0,1,2.109-.852C233.552,333.634,234.091,333.891,234.091,334.527Z" transform="translate(-221.206 -319.629)"/><path d="M233.889,351.433c0,.907-.328,1.422-.98,1.552a1,1,0,0,1-.9-.256,3.114,3.114,0,0,0-1.1-.763,4.046,4.046,0,0,1-.52-.473l-.03-.716a1.5,1.5,0,0,1,1.185-.844,3.26,3.26,0,0,1,1.761.4A1.232,1.232,0,0,1,233.889,351.433Z" transform="translate(-221.206 -331.704)"/><path d="M200.172,345.033q-.924.471-1.847,1a7.168,7.168,0,0,1-2.341.984,1.126,1.126,0,0,1-1.1-.243,1.054,1.054,0,0,1-.434-.841c0-.556.374-1,1.126-1.319q.983-.453,2.543-1.054a14.488,14.488,0,0,0,2.019-.831Z" transform="translate(-194.455 -326.34)"/><path d="M206.635,341.05a10.92,10.92,0,0,1-.261,2.594,2.345,2.345,0,0,1-.808,1.544,2.518,2.518,0,0,0-.549.37c-.192.154-.4.338-.636.56a4.745,4.745,0,0,1-.662.678,1.43,1.43,0,0,1-.636.328c-.424.008-.645-.3-.665-.934a1.831,1.831,0,0,0-.864-.984,3.061,3.061,0,0,1-.7-.5q-.144.346-.894.495c-.768.132-1.155-.628-1.155-2.284a4.455,4.455,0,0,1,.232-1.085c.268-.493.48-.757.636-.788a.742.742,0,0,1,.692.237,7.114,7.114,0,0,0,1.963-.677c.1,0,.146.031.146.087a5.655,5.655,0,0,0-1.675,2.352,7.271,7.271,0,0,0,.086,1.138l.03-.006a6.183,6.183,0,0,0,1.963.332q.894-.177.98-1.435.144-1.414.176-4.885l-.03-2.3a2.462,2.462,0,0,0-.056-.608v-.007a.94.94,0,0,1,.454-.931l.722-.448a.653.653,0,0,1,1.046.332,4.885,4.885,0,0,1,.086.519l.2,2.3c.06.64.1,1.222.116,1.738l.03.716C206.625,340.092,206.635,340.61,206.635,341.05Z" transform="translate(-197.698 -319.655)"/></g><g transform="translate(1.455 43.445)"><path d="M227.793,415.712a1.083,1.083,0,0,0-1.035-.471,2.417,2.417,0,0,0-.852.7q-1.861.369-3.952.875c-.433.106-.876.231-1.326.381l-1.474.407c-.257.071-.514.153-.767.243l-2.066.616a5.775,5.775,0,0,0-.588.2q-2.734.933-5.214,1.974a.911.911,0,0,0-.558.922l.169,1.164.014,0a8.121,8.121,0,0,0,2.373-1.3,38.108,38.108,0,0,1,4.334-1.687q3.362-1.047,6.752-2.015,1.091-.247,1.886-.4a14,14,0,0,1-2.12,2.368q.025.228.264.181a6.923,6.923,0,0,0,.886-.409,5.224,5.224,0,0,1,1.295-.642,10.533,10.533,0,0,0,1.711-.072c.886-.176,1.329-.541,1.329-1.089A3.023,3.023,0,0,0,227.793,415.712Zm-8.271,15.237a6.971,6.971,0,0,0-.351-2,5.73,5.73,0,0,0-.728-1.31c-.055-.077-.64-.947-.725-.91-.944.417-1.882.85-2.8,1.317a9.93,9.93,0,0,0-1.255.713c-.329.232-.838.6-.962,1,.037.091.206.118.5.077a3.736,3.736,0,0,1,1.18-.024,20.567,20.567,0,0,0,2.505-.852c.041.13.1.393.176.79a.4.4,0,0,0,.03.112c-.1.04-.216.083-.352.127q-2.51.914-5.132,1.609c-.49.216-.747.493-.768.828a2.16,2.16,0,0,0,.355.846.729.729,0,0,0,.737.324,7.915,7.915,0,0,0,2.093-.827c1.041-.382,2.025-.746,2.948-1.085a.934.934,0,0,0,.206-.071v1.329q-5.66,1.766-6.928,2.2c-1,.452-1.525.952-1.562,1.49a1.334,1.334,0,0,0,.325.73,1.042,1.042,0,0,0,1.061.232,32.542,32.542,0,0,1,4.629-1.8c.784-.254,1.582-.5,2.387-.737a10.964,10.964,0,0,1-.118,1.349c-.037.812-.352,1.28-.943,1.4a19.284,19.284,0,0,1-3.067.047c-.078.036-.135.155-.176.359a3.9,3.9,0,0,0,1.5.469,2.363,2.363,0,0,1,1.531.758c.041.6.257.9.649.9a1.5,1.5,0,0,0,.561-.291c.378-.282.636-.776,1-1.094a7.251,7.251,0,0,0,.839-.761,4.671,4.671,0,0,0,.732-2.666,18.642,18.642,0,0,0-.019-3.319C219.558,431.794,219.547,431.371,219.521,430.949ZM213.9,417.076a4.283,4.283,0,0,0-.47-1.408.672.672,0,0,0-.8-.315,1.657,1.657,0,0,0-1.474,1.709,3.445,3.445,0,0,0,.767,1.234q.766,1.116,1.356,1c.2-.039.233-.286.473-.6A1.611,1.611,0,0,0,213.9,417.076Zm4.5,3.476a.372.372,0,0,0-.5-.327,9.775,9.775,0,0,0-1.254.438,11.355,11.355,0,0,1-1.619.821.672.672,0,0,0-.443-.294,1.073,1.073,0,0,0-.71-.065c-.274.054-.548.345-.825.87a3.957,3.957,0,0,0-.294,1.089,10.632,10.632,0,0,0,.531,2.9c.51,1.038,1,1.512,1.474,1.419.176-.035.365-.242.561-.615a1.5,1.5,0,0,0,.118-.436,9.207,9.207,0,0,1,2-1.073c.243-.877.443-1.792.582-2.482a3.377,3.377,0,0,1-.669,1.025,7.58,7.58,0,0,1-2,.986c-.061-.38-.108-.8-.149-1.269.294-.214.609-.442.943-.687q1.273-.724,1.89-1.071a.605.605,0,0,0,.291-.362A2.466,2.466,0,0,0,218.4,420.552Z" transform="translate(-206.511 -411.192)"/><path d="M257.131,400.4a1.527,1.527,0,0,1-.47,1.246,1.854,1.854,0,0,1-.977.658.664.664,0,0,0-.109.044,20.323,20.323,0,0,0-2.3,1.48.8.8,0,0,0-.167.166q-.211.282-.388.493a.734.734,0,0,1-.361.239l-.185.051c-.47.13-.782-.326-.525-.772l.007-.013c.012-.021.026-.043.04-.063q1.13-1.61,2.056-2.726l.032-.036a5.334,5.334,0,0,1,2.164-1.709Q257.133,399.221,257.131,400.4Z" transform="translate(-238.447 -399.417)"/><path d="M241.1,403.606a12.777,12.777,0,0,1-.294,1.945,11.325,11.325,0,0,0-.178,1.375,1.283,1.283,0,0,1-.888,1.106l-.141.042a.8.8,0,0,1-1.087-.755q0-.366,0-.751v-2.123a4.265,4.265,0,0,1,.323-1.356,1.189,1.189,0,0,1,.241-.365l.009-.009a1.022,1.022,0,0,1,1.165-.267,4.041,4.041,0,0,1,.5.315A1.186,1.186,0,0,1,241.1,403.606Z" transform="translate(-228.724 -401.61)"/><path d="M249.594,431.985a4.248,4.248,0,0,1-.764,2.305,6.419,6.419,0,0,1-.974,1.312,2.692,2.692,0,0,1-1.268,1.077,1.7,1.7,0,0,1-.707-.036c.32-1.151.56-2.324.823-3.489a3.924,3.924,0,0,0,.122-.82,2.5,2.5,0,0,0-.057-.812.061.061,0,0,1,0-.033.059.059,0,0,1,.021-.026c.113-.092.224-.185.339-.275.059-.046.118-.091.179-.135.037-.027.139-.128.184-.128a1.173,1.173,0,0,1,.515-.249,1.155,1.155,0,0,1,.825.249C249.341,431.4,249.594,431.748,249.594,431.985Z" transform="translate(-234.218 -422.697)"/><path d="M203.28,438.054v0c-.027.225-.054.437-.085.642-.057.66-.088,1.248-.088,1.759a2.228,2.228,0,0,1-.5,1.367q-1,1.406-1.5,1.505-.943.187-.943-2.555a16.461,16.461,0,0,1,.355-3.164q.589-2.181,1.062-2.276a2.648,2.648,0,0,1,1.089.346,2.755,2.755,0,0,1,.385.305Z" transform="translate(-200.159 -426.171)"/><path d="M253.243,477.35a.677.677,0,0,1,.489-.647q.9-.249,1.757-.488c1.1-.256,2.072-.529,2.918-.815a6.653,6.653,0,0,1,.649-.186,1.534,1.534,0,0,1,1.122.278.993.993,0,0,1,.412.892c0,.551-.412.907-1.241,1.071a4.589,4.589,0,0,1-1.031.086c-.294.041-.6.081-.913.123q-1.784.507-3.544,1.03a.424.424,0,0,1-.578-.388Z" transform="translate(-239.701 -455.865)"/><path d="M257.022,465.594a1.331,1.331,0,0,1-.913,1.243q-1.886.612-3.448,1.066a.708.708,0,0,0-.206.071,4.268,4.268,0,0,0-.11-1.3.662.662,0,0,1,.453-.731q1.647-.532,2.721-.844a4,4,0,0,1,1.122-.016A.535.535,0,0,1,257.022,465.594Z" transform="translate(-239.022 -448.306)"/><path d="M251.914,454.894a.8.8,0,0,1-.68.9,21.217,21.217,0,0,0-2.5.861.249.249,0,0,1-.328-.1,5.456,5.456,0,0,0-.7-1.005.338.338,0,0,1,.17-.5l.672-.288a15.323,15.323,0,0,1,2.063-1.058.878.878,0,0,1,.737.209A1.4,1.4,0,0,1,251.914,454.894Z" transform="translate(-235.538 -439.85)"/></g><g transform="translate(28.598 39.225)"><path d="M319.727,386.31c.02-.775.03-1.373.03-1.8q0-1.152-.7-1.362a1.9,1.9,0,0,0-1.556-.211q-.9.263-1.069,4.254v1.182l.023,3.23h.007c0,.54.007,1.094.026,1.67v2.5l.026,3.438h0c0,.235,0,.474,0,.714v.2q0,.987.027,2.021.055,3.371.172,6.057a3.431,3.431,0,0,0,.549,1.364c.172-.034.328-.3.46-.783q.318-.5.666-1.115a5.122,5.122,0,0,0,1.01-1.872,9.834,9.834,0,0,0,.318-2.893v-2.688l-.01-5.269c-.013-.461-.02-.992-.02-1.592q-.085-1.86-.086-2.87c.033-.01-.03,0,0-.013l.09-3.269h0c0-.053,0-.106,0-.159C319.7,386.825,319.711,386.578,319.727,386.31Zm-5.039,5.852a1.312,1.312,0,0,0,.847-1.174v-1.139a.835.835,0,0,0-1.225-.757q-1.644.649-3.334,1.376-.114.052-.288.117a2.538,2.538,0,0,0-1.328-.746,4.335,4.335,0,0,0-1.357-.224,2.8,2.8,0,0,0-1.1.912,6.583,6.583,0,0,0-.348,1.714,21.685,21.685,0,0,0,1.761,7.848,5.451,5.451,0,0,0,1.529,1.922c.48.4.867.576,1.155.519q.636-.126.864-1.065a28.467,28.467,0,0,1,3.125-1.7.93.93,0,0,0,.54-.805v-1.377a.588.588,0,0,0-.874-.532q-1.45.61-3.165,1.432a7.779,7.779,0,0,0-.374-.763,8.143,8.143,0,0,1-.781-3.513,31.974,31.974,0,0,1,3.695-1.8C314.258,392.32,314.477,392.24,314.688,392.162Z" transform="translate(-306.561 -382.874)"/><path d="M361.859,401.653a.926.926,0,0,1,.626-.839q1.551-.511,3.042-.953c.728-.144,1.3-.767,1.7-1.867a14.188,14.188,0,0,0,1.212-4.772,13.243,13.243,0,0,1-2.625,1.53,19.175,19.175,0,0,1-3.119,1.168l-.008,0a.614.614,0,0,1-.851-.583l0-1.729a.979.979,0,0,1,.667-.888q2.068-.672,3.314-.943a11.856,11.856,0,0,1,3.549-.214,2.407,2.407,0,0,1,1.125-.713,1.021,1.021,0,0,1,.983.3,1.778,1.778,0,0,1,.606,1.383,11.159,11.159,0,0,1-2.453,6.432,1.686,1.686,0,0,1,.576,1.184q0,1.559-2.135,1.982-2.957.663-5.421,1.394a.578.578,0,0,1-.786-.56Z" transform="translate(-347.734 -388.799)"/></g><line y1="0.022" x2="0.046" transform="translate(6.88 25.443)"/><line y1="0.159" transform="translate(42.018 44.106)"/><path d="M266.442,323.4h0l.05-.023" transform="translate(-248.078 -299.327)"/><g transform="translate(29.065 6.079)"><path d="M353.542,266.665a1.077,1.077,0,0,0-1.051-.41q-.912.181-1.525,2.149c-.04.105-.077.23-.118.376a14.687,14.687,0,0,0-1.931,1l-.675.926c.03-.033.081-.08.148-.15a1.213,1.213,0,0,0,.5.751,1.31,1.31,0,0,0,.906.173,22.727,22.727,0,0,1-1.581,2.745q-2.02,3.558-2.048,4.388c0,.272.057.4.174.375a1.862,1.862,0,0,0,.588-.5,5.919,5.919,0,0,0,1.142-1.1,11.848,11.848,0,0,0,1.608-1.843,12.669,12.669,0,0,0,1.555-2.269c.329-.73.749-1.582,1.259-2.563.02-.038.04-.075.064-.117,0,0,0-.007.007-.011a.383.383,0,0,1,.023-.045c.772-1.536,1.185-2.555,1.276-2.781.007-.015.01-.026.014-.033s0-.007,0-.011v0a1.031,1.031,0,0,0,.017-.174A1.436,1.436,0,0,0,353.542,266.665Zm4.489-13.687q-.615.122-1.843,1.742a31.866,31.866,0,0,0-1.786,2.812c-.158.344-.181.586-.279.837-.057.032-.027.2-.1.239l-.774,2.112a.091.091,0,0,0,.116.117c.384-.145.821-.308,1.3-.487a23.261,23.261,0,0,0,2.461-1.045,1.445,1.445,0,0,0,1.054-1.408.59.59,0,0,0-.44-.557,4.725,4.725,0,0,0-1.289.021c-.235.087-.507.2-.819.337a1.892,1.892,0,0,1,.148-.234,16.136,16.136,0,0,1,2.105-1.589,1.582,1.582,0,0,0,.88-.641,1.68,1.68,0,0,0,.409-1.283Q359.173,252.752,358.031,252.978Z" transform="translate(-336.528 -252.942)"/><path d="M373.044,308.212a.713.713,0,0,0-.178-.113,3.37,3.37,0,0,1,.148,1.055,24.439,24.439,0,0,1-.819,5.844q-.529,2.271-1.289,2.421a5.626,5.626,0,0,0-1.085.45,1.607,1.607,0,0,1-.994.781q-.881.175-1.172-1.084a4.493,4.493,0,0,0-1.259-1.742.388.388,0,0,1,.292-.353,2.36,2.36,0,0,0,1.991.572q.735-.146,1.172-2.25a19.26,19.26,0,0,0,.44-3.895c0-.292-.04-.432-.118-.417a15.126,15.126,0,0,1-1.682,1.015l.01-.035,1.108-2.5c.181-.043.312-.072.507-.11a3.554,3.554,0,0,1,1.168-.732.526.526,0,0,1,.2-.01l.081.058c.222.168.9.664,1.743,1.192C373.226,308.314,373.135,308.265,373.044,308.212Z" transform="translate(-351.598 -293.29)"/><path d="M378.484,292.94c0,.117-.071.192-.2.218l-.47.093q-.322.034-.584.055a1.862,1.862,0,0,0-.44.235,1.542,1.542,0,0,1-.527.222,5.426,5.426,0,0,1-3.653-.77c-.843-.528-1.521-1.025-1.743-1.192l-.081-.058a6.8,6.8,0,0,1-1.024-.939,7.915,7.915,0,0,0-.937-1.191c-.584.233-1.085.43-1.494.588q-.5.258-1.007.524a.3.3,0,0,1-.42-.365l1.513-4.13a.386.386,0,0,1,.4-.25l.249.02a.405.405,0,0,1,.118.028q.923.376,1.376.6,1.2-.56,1.991-.862a5.551,5.551,0,0,1,1.638-.033.722.722,0,0,1,.557.682,1.925,1.925,0,0,1-1.316,1.839c-.275.115-.537.214-.792.3a7.5,7.5,0,0,0,2.109,1.338q1.053.582,2.576,1.249Q378.486,292.353,378.484,292.94Z" transform="translate(-351.214 -277.334)"/><path d="M354.43,268.955a.458.458,0,0,1-.379.515,3.308,3.308,0,0,1-1.756-.646q-.615-.437-.615-.876a2.311,2.311,0,0,1,.232-.865c.255-.383.46-.588.615-.619a1.581,1.581,0,0,1,1.289.359,3.025,3.025,0,0,1,.44.762A5.128,5.128,0,0,1,354.43,268.955Z" transform="translate(-340.636 -262.996)"/><path d="M345.576,272.572a.438.438,0,0,1-.08-.272,2.4,2.4,0,0,1,.341-1.1l0-.007a31.507,31.507,0,0,0,1.7-3.117,1.215,1.215,0,0,1-.7-.448,2.879,2.879,0,0,1-.44-1.112c0-.369.332-.721,1-1.047q.786-.272,1.552-.6.322-.945.614-1.938a3.806,3.806,0,0,1-1.377.743.907.907,0,0,1-.85-.359,2.582,2.582,0,0,1-.409-.973c.02-.377.332-.69.937-.948a19.506,19.506,0,0,0,2.344-.931q.438-2.021.819-4.44a9.416,9.416,0,0,1,.41-1.777,1.427,1.427,0,0,1,.937-.743.82.82,0,0,1,.849.271,1.566,1.566,0,0,1,.349,1.16,24.37,24.37,0,0,1-.819,4.263l-2.545,7.589a23.763,23.763,0,0,1-1.991,3.588l-.675.926-.007.008a.186.186,0,0,0-.023.025l-.06.093a3.768,3.768,0,0,1-1.3,1.292.445.445,0,0,1-.573-.147Z" transform="translate(-336.029 -253.348)"/><path d="M317.055,269.3q-.03-.931-.353-1.129a.972.972,0,0,0-.849-.389,2.624,2.624,0,0,0-1.111.8,6.164,6.164,0,0,1-1.934.736l-.144.029a2.439,2.439,0,0,0-.117-.474.927.927,0,0,0-.88-.413,1.212,1.212,0,0,0-.789.862,5.39,5.39,0,0,0-.353,2.179q-.73,10.334-2.136,19.6c0,.957.057,1.426.175,1.4a4.573,4.573,0,0,0,.907-1.617,25.154,25.154,0,0,0,1.2-3.515q.438-1.608.907-3.931a1.32,1.32,0,0,0,.7.009q.735-.146,2.139-1.888.146-.145.322-.326-.03,2.963-.057,5.75a1.236,1.236,0,0,1-1.115,1.332c-.369.073-.957.153-1.756.231a.7.7,0,0,0,.087.335,1.4,1.4,0,0,0,.47.286,1.239,1.239,0,0,1,1.024,1.117.92.92,0,0,0,.994.767,1.336,1.336,0,0,0,.967-.806c.235-.339.47-.667.7-.989a2.889,2.889,0,0,0,1.232-2.645v-4.069Q317.229,275.442,317.055,269.3Zm-2.314,10.092a6.745,6.745,0,0,0-1.494.823q-.73.5-1.2.825a35.677,35.677,0,0,0,.38-4.118v-.235a2.423,2.423,0,0,0,.5.079c.332-.046.635-.079.91-.093a4.371,4.371,0,0,0,.554-.053,2.3,2.3,0,0,0,.353-.1Zm0-4.479-.41-.241a7.816,7.816,0,0,0-.849-.184,2.765,2.765,0,0,0-.7-.035,3,3,0,0,0-.265.14q.06-1.563.2-3.318a2.3,2.3,0,0,0,.615-.269c.527-.457.859-.745,1-.873.235-.047.369.034.41.241Z" transform="translate(-308.388 -263.988)"/><path d="M372.966,308.944" transform="translate(-356.492 -294.658)"/><path d="M350.391,320.883l.034-.047.084-.117" transform="translate(-339.676 -303.428)"/><path d="M385.791,305.919c-.843-.528-1.521-1.025-1.743-1.193Z" transform="translate(-364.747 -291.516)"/><path d="M319.717,291.86s-1.649.995-.087,2.1" transform="translate(-316.261 -281.932)"/><path d="M330.66,293.118s1.067.537,0,1.612" transform="translate(-324.978 -282.869)"/><path d="M317.208,317.139s-1.874,1.437-.47,2.4" transform="translate(-314.219 -300.762)"/><path d="M330.66,310.676" transform="translate(-324.978 -295.948)"/></g><path d="M438.291,249.392" transform="translate(-376.088 -244.219)"/><g transform="translate(57.378)"><path d="M438.8,249.088a2.813,2.813,0,0,0-2.167-.639.741.741,0,0,0-.57.356,1.337,1.337,0,0,0-.195.686,3.451,3.451,0,0,0,.963,1.575,4.353,4.353,0,0,1,.661,1.61.915.915,0,0,0,.6.544,1.244,1.244,0,0,0,.65.093,1.644,1.644,0,0,0,.9-.692,1.339,1.339,0,0,0,.311-.916A3.883,3.883,0,0,0,438.8,249.088Zm-11.48,2.792c0-.057-.052-.086-.154-.084q-.823.154-1.922.392a.881.881,0,0,0-.772-.184q-.241.052-.652.816a4.583,4.583,0,0,0-.21,1.126q.067,2.355,1.225,2.132,1.038-.226,1.025-.689a9.609,9.609,0,0,1-.133-1.316A5.266,5.266,0,0,1,427.322,251.879Zm5.379-17.786a1.3,1.3,0,0,0-.8-.031,14.126,14.126,0,0,0-2.518.957c-.122.05-.24.1-.358.145a.734.734,0,0,0-.473.673l.056.712a.369.369,0,0,0,.55.286c.368-.154.792-.327,1.275-.523.808-.273,1.407-.464,1.791-.568q1.006-.219.981-1.089C433.2,234.445,433.033,234.256,432.7,234.094Zm10.479,2.985a1.468,1.468,0,0,0-1.079-.234q-.43.093-4.5,1.332-2.006.668-4.254,1.366a1.77,1.77,0,0,0,.021-.357,1.137,1.137,0,0,0-.609-.89,8.534,8.534,0,0,0,2.208-1.095,1.624,1.624,0,0,0,.559-.736,1.541,1.541,0,0,0,.2-.747,8.965,8.965,0,0,0,1.466-5.525,1.2,1.2,0,0,0-.483-.774,1.845,1.845,0,0,0-1.053-.3q-.3.066-.956.882c-.326.051-.609.1-.854.156q-1.036.286-3.617,1.14a12.193,12.193,0,0,1-1.323.56.658.658,0,0,0-.443.6l.017.962c.007.374.416.536.772.3.259-.174.514-.333.76-.474A23.047,23.047,0,0,1,433.2,232.2a8.1,8.1,0,0,0,1.574-.635,6.18,6.18,0,0,1-.42,2.4,6.91,6.91,0,0,1-1.467,2.426,13.5,13.5,0,0,1-3.761,1.5.381.381,0,0,0-.284.4l.14.942a.256.256,0,0,0,.346.193c.146-.045.3-.089.457-.136a1.076,1.076,0,0,0,.376.358c.331.143.5.33.508.564l.006.2q-5.471,1.775-10.2,3.479a1.585,1.585,0,0,0-1.1,1.319,1.622,1.622,0,0,0,2.024,1.052,25.7,25.7,0,0,0,4.4-1.709h0c.031-.014.062-.03.1-.045l.385-.178c.049-.024.1-.045.149-.069l.9-.414.274-.143c-.011,0,.048-.024.034-.028.222-.092.445-.187.667-.276q3.424-1.41,6.858-2.5,4.5-1.127,7.857-1.885c.566-.123.847-.372.837-.739A1.948,1.948,0,0,0,443.18,237.078Z" transform="translate(-419.375 -229.113)"/><path d="M444.643,295.246a1.263,1.263,0,0,1-.082.319,1.593,1.593,0,0,1-1.2.812q-.76.166-1.454-1.534a6.422,6.422,0,0,1-.712-2.391,5.69,5.69,0,0,1,.322-1.645,2.113,2.113,0,0,1,.324-.466v0l1.247-.529a1.386,1.386,0,0,1,.177.044c.394.129.592.3.6.52a9.324,9.324,0,0,0-.141,2.308.217.217,0,0,1-.006.047,2.065,2.065,0,0,0,.046.379.059.059,0,0,0,0,.025A3.757,3.757,0,0,0,444.643,295.246Z" transform="translate(-435.625 -274.325)"/><path d="M443.564,246.8a1.012,1.012,0,0,1-.87.686q-.975.212-1.488-1.6a28.858,28.858,0,0,1-.823-5.148,3.2,3.2,0,0,1,.3-1.323,2.31,2.31,0,0,1,.9-.836,3.393,3.393,0,0,1,1.045.151,1.538,1.538,0,0,1,.413.524s-.015,1.691.035,3.3l0,.083c.023.676.059,1.329.116,1.833a2.86,2.86,0,0,0,.111.69.708.708,0,0,0,.031.11Z" transform="translate(-435.024 -236.153)"/><path d="M453.179,281.452a.617.617,0,0,1,.39-.519q1.215-.482,2.48-.911,1.643-.473,3.528-.943l.629-.137a.632.632,0,0,0,.293-.158,1.943,1.943,0,0,1,.5-.393,1.346,1.346,0,0,1,1.048.151,1.117,1.117,0,0,1,.673,1.024,4.918,4.918,0,0,1-.635,2.507,8.42,8.42,0,0,0-.688,1.642,1.452,1.452,0,0,1-1.121,1.034.546.546,0,0,0-.142.057,12.4,12.4,0,0,1-2.572,1.032.176.176,0,0,1,.034.08,18.677,18.677,0,0,1,.282,2.367,10.078,10.078,0,0,1-.149,2.283,2.031,2.031,0,0,1-.818,1.406,2.592,2.592,0,0,0-.361.283c-.144.139-.309.3-.488.477a.644.644,0,0,0-.085.106,3.066,3.066,0,0,1-.435.545,1.1,1.1,0,0,1-.454.243q-.549.038-.656-.707a.38.38,0,0,0-.049-.152,1.451,1.451,0,0,0-.9-.516,1.759,1.759,0,0,1-.9-.361c.038-.163.087-.264.146-.293a12.993,12.993,0,0,0,1.561-.135,1.214,1.214,0,0,0,.944-1.289,18.381,18.381,0,0,0,.091-3.207v-.018a.392.392,0,0,0-.526-.349q-.261.064-.521.124a.425.425,0,0,1-.428-.127,1.477,1.477,0,0,1-.517-1.108v0c.089-.328.637-.481.637-.481a16.413,16.413,0,0,0,4.623-1.734,1.9,1.9,0,0,0,.838-.827,4.5,4.5,0,0,0,.407-1.079.4.4,0,0,0-.554-.456q-.313.1-.688.255a31.5,31.5,0,0,1-3.809,1.295.575.575,0,0,0-.146.062q-.241.144-.51.308c-.483.294-1.02.041-1-.468Z" transform="translate(-444.114 -265.788)"/><path d="M458.477,293.133c-.014-.171-.024-.343-.027-.512" transform="translate(-448.482 -276.42)"/><path d="M449.474,281.409l.379-.17.147-.063" transform="translate(-441.796 -267.895)"/><line x1="0.619" y2="0.275" transform="translate(9.432 12.454)"/></g><path d="M459.791,447.452" transform="translate(-392.103 -391.753)"/><g transform="translate(56.082 32.67)"><path d="M440.781,370.162a14.944,14.944,0,0,0-1.993.769q-1.127.541-2.685,1.112-1.182.408-1.53.561a2.979,2.979,0,0,0-.665.622,1.609,1.609,0,0,0-.229.741.908.908,0,0,0,.315.686,1.151,1.151,0,0,0,.752.142l-.007.008a2.127,2.127,0,0,1,1.711.088,3.857,3.857,0,0,1,1.456,1.236,5.134,5.134,0,0,1,.524,3.268c-.121.874-.392,2.51-1.434,2.717a9,9,0,0,1-1.927.107c-.056,0-.119,0-.179,0l-.378.247c.033.017.086.039.152.066.2.077.543.187,1.033.335q1.008.376,1.01.839c.04.452.242.664.606.628a1.779,1.779,0,0,0,.579-.231,1.357,1.357,0,0,1,.43-.314,3.514,3.514,0,0,1,.434-.288,1.536,1.536,0,0,0,.722-.318,3.877,3.877,0,0,0,.838-1.782,10.671,10.671,0,0,0,.374-2.911,8.835,8.835,0,0,0-.487-2.807s0-.006,0-.009a.129.129,0,0,1-.02-.052,3.58,3.58,0,0,0-.414-.838,2.189,2.189,0,0,0-.46-.63,4.023,4.023,0,0,0-1.271-.7c.464-.244.934-.483,1.417-.711a8.016,8.016,0,0,0,1.7-.857c.559-.266.837-.62.837-1.063Q441.993,369.922,440.781,370.162Zm6.307-4.541q0-1.1-.867-.954c-.864.171-1.337.553-1.414,1.144a1.71,1.71,0,0,0,.146.58,2.785,2.785,0,0,1,.056.535q.06,1.373.06,5.04a3.778,3.778,0,0,0,.315,1.643c.212.322.414.464.609.425.152-.03.364-.36.632-.989A3.861,3.861,0,0,0,447.2,371Q447.174,368.894,447.088,365.622Zm4.562,5.531q-.06-3.017-.116-4.334-.059-1.374-.146-4.533a25.544,25.544,0,0,0-.344-4.523q-.348-.681-1.645-.568a1.173,1.173,0,0,0-.983.86,6.04,6.04,0,0,1,.232.7c0,.444.02.9.056,1.376q.06,4.433.06,8.331,0,4.246-.03,7.915,0,2.141-.983,2.562-.8.189-1.586.344c-.288.037-.586.077-.894.121a.173.173,0,0,0-.146.145,1.517,1.517,0,0,0,.635.566q1.356.337,1.357,1.029.228,1.34,1.328,1.124a1.527,1.527,0,0,0,.752-.5,4.217,4.217,0,0,1,.692-.885,1.983,1.983,0,0,0,1.3-1.327,8.812,8.812,0,0,0,.493-3.389C451.679,374.382,451.666,372.709,451.65,371.153Z" transform="translate(-428.735 -357.179)"/><path d="M427.588,431.129a1.677,1.677,0,0,1-.751.553c-.02,0-.03-.08-.03-.252a4.856,4.856,0,0,1,.261-.658,5.434,5.434,0,0,1,.49-.792q.288-.514.665-1.056.253-.338.486-.632a1.9,1.9,0,0,1,2.148-.731,1.335,1.335,0,0,1,.154.083l-.017.013c-.252.278-.53.585-.837.914a14.913,14.913,0,0,1-1.185,1.274,6.618,6.618,0,0,1-.808.8C427.916,430.862,427.724,431.026,427.588,431.129Z" transform="translate(-423.616 -409.52)"/><path d="M432.327,432.341q-.75.755-1.616,1.5a8.277,8.277,0,0,1-1.069.9c-.348.264-.616.46-.808.594a1.693,1.693,0,0,1-.722.577q-.059-.018-.059-.276a2.9,2.9,0,0,1,.434-.751,10.134,10.134,0,0,1,.606-.868,12.6,12.6,0,0,1,.924-1.2q1.013-1.124,1.877-1.958.457-.463.775-.73l.013-.016a2.657,2.657,0,0,1,.752.712.5.5,0,0,1-.137.6Z" transform="translate(-424.544 -411.514)"/><path d="M434.446,440.048c-.248.241-.52.477-.808.709q-.839.772-1.817,1.542c-.116.1-.232.195-.344.287-.139.11-.271.213-.4.308-.03.022-.06.042-.089.064l-.378.247-.027.035a9.528,9.528,0,0,1-.9.608,1.639,1.639,0,0,1-.778.588q-.06.012-.06-.276a3.46,3.46,0,0,1,.464-.757c.248-.337.48-.641.692-.915.348-.417.7-.831,1.069-1.252q1.152-1.152,2.135-2.012c.52-.447.914-.787,1.185-1.013l.056-.047a4.308,4.308,0,0,1,.038,1.839Z" transform="translate(-425.133 -417.505)"/><path d="M430.432,372.179a1.5,1.5,0,0,0-1.328-.545.94.94,0,0,0-.662.651,28.769,28.769,0,0,0-4.33,1.292.294.294,0,0,0-.086.044l-2.311.951q-.954.447-1.907.924c-.056.051-.122.114-.2.186,0-.02-.017-.036-.056-.045a1.675,1.675,0,0,0-1.328-.316q-.522.1-.549,1.32a16.006,16.006,0,0,1-.46,3.094q-.233,1.809-.811,4.435-.491,2.377-.98,4.61-.924,4.459-1.126,6.46a2.631,2.631,0,0,0,.056.681c.04.145.1.213.176.2.3-.58.738-1.352,1.3-2.307a36.833,36.833,0,0,0,1.357-4.371q.636-2.435,1.182-5.025.377-1.49.983-4.873c.192-.922.338-1.636.434-2.135a.825.825,0,0,0,.086-.249,1.368,1.368,0,0,0,.4-.02,1.984,1.984,0,0,0,.675-.339,7.146,7.146,0,0,0,.6-.462c.556-.3,1.126-.607,1.7-.913a9.361,9.361,0,0,0-.4,1.811l-.056,2.176v.172a1.3,1.3,0,0,0,.258.843c.252.414.49.6.722.552a4.451,4.451,0,0,0,1.04-.352,9.612,9.612,0,0,0,2.367-.989,1.221,1.221,0,0,0,.778-.614,1.161,1.161,0,0,0,.261-.774.271.271,0,0,0-.172-.257,1.24,1.24,0,0,0-.606-.138,6.43,6.43,0,0,0-1.069.444,5.9,5.9,0,0,1-1.242.418c-.116.023-.232-.1-.347-.365l.2-2.232a.506.506,0,0,1,.03-.152,2.593,2.593,0,0,0,.06-.475.8.8,0,0,0-.291-.6.826.826,0,0,0-.142-.147c.192-.074.384-.162.576-.256a29.169,29.169,0,0,1,3.032-1.181,4.349,4.349,0,0,1-.768,1.635l-.1.155.351.3.239-.183a6.969,6.969,0,0,1,.652-.427,7.234,7.234,0,0,1,1.818-.619.676.676,0,0,0,.636-.705A1.7,1.7,0,0,0,430.432,372.179Z" transform="translate(-414.297 -367.932)"/><path d="M450.424,360.385q0,.755-1.013,1.356a28.591,28.591,0,0,1-3.549,1.283q-.063.311-.109.637a1.021,1.021,0,0,1-.612.775l-.81.334a.645.645,0,0,1-.951-.581v-1.974a4.808,4.808,0,0,1,.46-1.677,1.848,1.848,0,0,1,.837-.686c.252-.05.635.122,1.155.519a1.2,1.2,0,0,1,.374.647c.116-.04.212-.079.291-.114a12.084,12.084,0,0,1,2.711-1.057,1.454,1.454,0,0,1,.722.029C450.258,359.968,450.424,360.137,450.424,360.385Z" transform="translate(-435.96 -359.144)"/><path d="M460.319,385.257a1.127,1.127,0,0,1-.318.871,2.139,2.139,0,0,1-.95.678,7.8,7.8,0,0,1-1.042.7c-.1-.2-.469,0-.447-.249l.154-1.7c.136-.086.054-.035.15-.094l1.414-.86a2.338,2.338,0,0,1,.636.049l.351.3h0A.969.969,0,0,1,460.319,385.257Z" transform="translate(-446.524 -377.599)"/><path d="M437.693,394.032l-.056,2.176a1.83,1.83,0,0,1-.348.241,4.655,4.655,0,0,1-1.1.479.967.967,0,0,1-.838-.182,1.146,1.146,0,0,1-.463-.861,1.049,1.049,0,0,1,.781-1.019c.616-.218,1.152-.43,1.616-.638Z" transform="translate(-429.638 -384.631)"/><path d="M461.992,432.326a.594.594,0,0,1,.542-.642,14.427,14.427,0,0,1,3.1.254c.868.176,1.3.5,1.3.984q0,1.589-1.152,1.817a3.642,3.642,0,0,1-1.271-.5,11.524,11.524,0,0,0-1.589-.522c-.165-.044-.331-.082-.5-.118a.363.363,0,0,1-.289-.314Z" transform="translate(-449.822 -412.672)"/><path d="M461.962,429.333" transform="translate(-449.803 -410.926)"/><path d="M463.1,416.692a.806.806,0,0,1-.52.765,12.855,12.855,0,0,0-2.337,1.245l-.036.031a.383.383,0,0,1-.612-.076c-.039-.082-.075-.153-.107-.212a.454.454,0,0,1,.083-.5q.265-.316.527-.633a4.773,4.773,0,0,1,2.023-1.755.636.636,0,0,1,.692.181A1.515,1.515,0,0,1,463.1,416.692Z" transform="translate(-447.93 -400.647)"/><path d="M464,388.91" transform="translate(-451.318 -380.815)"/><path d="M455.185,428.689" transform="translate(-444.754 -410.447)"/><path d="M445.3,426.427a1.152,1.152,0,0,0-.119.04" transform="translate(-437.301 -408.762)"/></g></g></svg>