<svg xmlns="http://www.w3.org/2000/svg" width="1000" height="600" viewBox="0 0 1000 600"><defs><style>.a{fill:#d94727;}</style></defs><g transform="translate(-11.61 -11.421)"><path class="a" d="M921.844,601.587H94.322V564.481H64.893v19.09H43.351V562.238H62.466V540.22H14.392V75.571H62.466V53.553H43.351V32.22H64.893V51.31H94.322V14.2H921.844V51.31h29.429V32.22h21.542V53.553H953.7V75.571h48.074V540.22H953.7v22.018h19.115v21.333H951.273v-19.09H921.844Zm-825.1-2.242H919.418V562.238h31.856V537.978h48.074V77.815H951.273V53.553H919.418V16.444H96.749V53.553H64.893V77.815H16.819V537.978H64.893v24.261H96.749ZM953.7,581.327h16.686V564.481H953.7Zm-907.922,0H62.466V564.481H45.778ZM953.7,51.31h16.686V34.462H953.7Zm-907.922,0H62.466V34.462H45.778Z" transform="translate(3.527 3.526)"/><path class="a" d="M931.758,611.421H91.46V574.313H75.669V593.4H40.542V559.483h19.1v-9.434H11.61V72.793H59.638V63.359h-19.1V29.44H75.669V48.529H91.46V11.421h840.3V48.529h15.793V29.44h35.126V63.359H963.584v9.434h48.026V550.049H963.584v9.434h19.093V593.4H947.551V574.313H931.758ZM93.887,609.179H929.333V572.071h20.642V591.16h30.278V561.725H961.16V547.807h48.023V75.035H961.16V61.117h19.093V31.682H949.975V50.771H929.333V13.663H93.887V50.771H73.245V31.682H42.967V61.117h19.1V75.035H14.037V547.807H62.063v13.919h-19.1V591.16H73.245V572.071H93.887Z"/></g></svg>