<svg id="Frame-Bottom" xmlns="http://www.w3.org/2000/svg" width="320" height="28.8" viewBox="0 0 320 28.8">
  <path id="Path_125" data-name="Path 125" d="M466.663,71.5h15.384v7.735H492.24V91.064H755.494V79.233h10.193V71.5h15.384V65h.776v7.216H766.464v7.02h6.117v6.8h-6.893V79.948h-9.417V91.779H491.464V79.948h-9.417v6.086h-6.893v-6.8h6.117v-7.02H465.886V65h.777Zm299.8,13.822h5.34V79.948h-5.34ZM475.93,79.948v5.372h5.34V79.948Z" transform="translate(-463.867 -64.997)" fill="#d94727"/>
  <path id="Path_126" data-name="Path 126" d="M460.354,67.205h15.37v4.439h-6.112v9.387H479.3V74.943h6.605V86.777H753.248V74.943h6.605v6.088h9.689V71.644h-6.11V67.205H778.8V58.692h.777V67.92H764.209v3.009h6.11V81.746h-11.24V75.658h-5.054V87.492h-268.9V75.658h-5.053v6.088H468.834V70.929h6.112V67.92H459.577V58.692h.777Z" transform="translate(-459.577 -58.692)" fill="#d94727"/>
</svg>
