<?xml version="1.0" encoding="utf-8"?>
<!-- Generator: Adobe Illustrator 16.0.0, SVG Export Plug-In . SVG Version: 6.00 Build 0)  -->
<!DOCTYPE svg PUBLIC "-//W3C//DTD SVG 1.1//EN" "http://www.w3.org/Graphics/SVG/1.1/DTD/svg11.dtd">
<svg version="1.1" id="圖層_1" xmlns="http://www.w3.org/2000/svg" xmlns:xlink="http://www.w3.org/1999/xlink" x="0px" y="0px"
	 width="1366.007px" height="792.966px" viewBox="-0.001 -396.006 1366.007 792.966"
	 enable-background="new -0.001 -396.006 1366.007 792.966" xml:space="preserve">
<g>
	<g>
		<path fill="#FFFFFF" d="M55.87,356.612C35.127,368.231,18.453,382.403,1.57,396.96c14.374-14.04,28.883-27.611,47.718-38.83
			c33.453-19.927,68.137-30.232,105.8-35.252C120.674,328.319,88.414,338.381,55.87,356.612z"/>
		<path fill="#FFFFFF" d="M321.532,320.651c-63.123-1.868-117.314-4.322-166.442,2.226c50.653-8.006,105.977-6,173.762-5.244
			c138.9,1.543,237.964-9.633,334.894-59.134c18.171-9.277,35.564-19.324,53.441-29.342c-19.839,11.568-38.823,23.221-58.648,33.831
			C560.357,315.541,464.103,324.88,321.532,320.651z"/>
		<path fill="#FFFFFF" d="M928.117,161.103c-95.807,8.383-153.56,38.1-206.99,68.054c52.387-30.553,110.757-60.519,206.399-69.149
			c72-6.5,133.06,6.4,188.558,17.481c14.101,2.813,27.178,5.592,39.574,8.269c-13.026-2.617-26.845-5.371-41.819-8.209
			C1058.703,167.103,998.481,154.945,928.117,161.103z"/>
		<path fill="#FFFFFF" d="M1366,205.867c-83.942,8.754-133-3.66-209.188-20.109c76.827,15.423,125.309,25.769,209.188,16.757
			V205.867z"/>
		<path fill="#FFFFFF" d="M1366,197.535c-46.377,4.934-81.682,4.639-116.938,0.961c6.36,0.647,12.829,1.177,19.447,1.517
			c33.6,1.734,65.643-1.694,97.491-6.542V197.535z"/>
		<path fill="#FFFFFF" d="M0.003,393.354c10.951-6.799,21.742-13.608,32.752-20.185c-11.172,7.569-21.874,15.562-32.752,23.608
			V393.354z"/>
		<path fill="#FFFFFF" d="M930.032,160.103c-123.868,10.391-183.222,56.417-255.713,91.685
			c-95.678,46.544-197.755,60.063-333.544,61.467c-72.573,0.75-128.965-0.6-181.815,8.867c57.663-12.309,116.255-11.7,196.1-14.471
			c131.825-4.569,236.209-20.849,329.89-64.592c71.562-33.412,129.861-76.344,248.632-85.864
			c66.52-5.329,124.13,5.561,177.522,14.836c41.11,7.143,80.287,19.045,124.866,24.94c-35.943-4.528-73.248-12.255-123.369-21.3
			C1058.011,165.829,998.778,154.337,930.032,160.103z"/>
		<path fill="#FFFFFF" d="M32.757,373.17c10.364-7.116,21.154-13.591,32.31-19.388c29.512-15.25,61.17-25.926,93.891-31.662
			c-28.451,6.1-56.128,15.373-82.512,27.646C61.473,356.776,46.889,364.589,32.757,373.17z"/>
		<path fill="#FFFFFF" d="M1366,185.593c-33.938,4.889-67.948,8.767-102.839,7.19c-57.182-2.585-104.214-17.658-153.72-26
			c-51.835-8.735-107.461-19.074-171.459-14.214c-113.15,8.593-170.352,48.477-240.385,79.956
			c-91.527,41.146-197.826,60.535-325.294,68.431c-117.385,7.274-187.399,5.321-282.355,43.743
			C58.189,357.55,29.593,373.015,0,388.293v-6.849c34.665-14.836,68.337-29.994,104.513-42.729
			c99-34.85,170.791-34.744,286.609-45.4c124.232-11.434,229.011-34.34,320.513-72.899c69.523-29.294,123.225-66.285,231.658-73.988
			c61.364-4.36,114.826,5.466,164.915,13.68c48.005,7.872,93.977,21.918,149.372,24.108c36.101,1.427,72.287-2.862,108.418-7.619
			L1366,185.593z"/>
		<path fill="#FFFFFF" d="M1366,166.676c-38.48,4.441-77.2,9.115-114.537,7.753c-53.481-1.948-98.051-14.838-144.534-22.281
			c-166.219-26.617-245.208-0.097-380.293,54.764c-90.091,36.59-195.756,62.991-315.306,77.921
			c-112.028,13.998-190.155,16.471-291.31,47.098c-40.934,12.4-80.042,26.922-120.018,41.037v-9.912
			c45.382-13.145,90.105-26.717,136.036-38.562c100.942-26.03,190.181-31.806,296.289-48.829
			c115-18.448,220.232-48.361,309.78-83.416c130.813-51.205,206.924-73.644,363.368-49.16c44.873,7.024,87.906,18.777,139.388,20.5
			c39.009,1.3,80.312-3.752,121.136-7.643V166.676z"/>
		<path fill="#FFFFFF" d="M1366,144.51c-43.073,3-86.601,8.319-128.157,7.316c-49.377-1.19-91.213-12.174-134.117-18.729
			c-146.429-22.387-220.068-3.995-346.18,43.539c-90.285,34.028-193.123,67.29-304.021,89.305
			c-99.746,19.801-201.699,28.9-301.377,50.592c-51.042,11.1-101.391,23.437-152.149,35.41v-12.092
			c56-10.632,111.809-21.492,167.929-31.683c100.36-18.228,210.887-29.558,306.393-52.379
			c107.471-25.688,205.512-61.983,298.146-95.513c121.13-43.843,192.733-58.234,329.095-37.954
			c41.507,6.171,81.513,15.781,128.9,16.957c43.891,1.09,90.046-4.549,135.537-6.542L1366,144.51z"/>
		<path fill="#FFFFFF" d="M1366,120.566c-47.971,0.708-96.465,6.677-143.224,5.529c-45.437-1.114-83.767-9.383-123.918-15.151
			c-126.406-18.153-196.504-7.693-312.493,32.445c-96.699,33.462-187.571,72.471-292.229,101.956
			c-94.325,26.57-206.413,38.5-311.176,54.192c-60.991,9.134-121.978,18.296-182.959,27.487v-13.252
			c65.759-7.448,131.364-15.115,196.813-23c111.55-13.572,221.35-24.883,315.55-56.033
			c101.666-33.623,184.022-74.923,286.392-108.556c110.776-36.4,180-43.056,296.733-27.057c38.9,5.331,75.773,12.3,119.36,13.287
			c50.13,1.14,100.544-5.192,151.152-4.339L1366,120.566z"/>
		<path fill="#FFFFFF" d="M1366,95.273c-93.741-6.147-181.469,3.731-274.661-8.238c-107.53-13.809-176.656-10.773-282.207,21.839
			c-108.737,33.594-183.034,77.627-280.711,115.234c-93.816,36.119-200.24,46.369-319.345,57.895
			c-69.954,6.769-139.645,13.553-209.072,20.354v-15.638c73.274-4.333,146.648-7.927,219.31-13.358
			c127.524-9.528,228.6-18.816,322.387-59.776C635,172.837,701.735,124.721,817,91.67c100.334-28.768,170.327-28.428,269.275-16.834
			c93.447,10.95,186.929-0.627,279.723,7.645L1366,95.273z"/>
		<path fill="#FFFFFF" d="M1366,69.422c-0.295-0.034-0.595-0.074-0.889-0.105c-92.319-10.391-190.26,3.117-284.924-6.619
			c-91.174-9.376-163.211-12.787-258.314,12.087c-121.459,31.767-182.33,85.464-270.253,128.512
			c-93.072,45.57-188.969,54.208-324.506,61.681c-75.096,4.139-151.107,5.867-227.11,8.569v-12.6
			c77.772-1.111,155.44-1.082,232.042-3.966c142.818-5.375,233.861-13.821,325.539-63.6
			c82.132-44.588,138.919-104.849,265.67-134.954c89.208-21.191,165.818-14.8,249.699-7.653
			c94.694,8.061,193.622-6.814,284.585,4.218c2.813,0.34,5.636,0.713,8.463,1.1L1366,69.422z"/>
		<path fill="#FFFFFF" d="M1366,42.437c-5.312-0.816-10.608-1.561-15.89-2.233c-90.709-11.389-190.071,5.176-285.672-0.956
			c-77.783-4.986-160.578-14.064-243.806,3.57c-131.226,27.803-185.612,95.853-261.637,141.161
			c-89.682,53.439-176.177,62.254-325.3,65.526c-77.085,1.693-155.262,0.068-233.692-0.324v-11.716
			c76.292,0.308,152.329,1.648,226.811,0.076c153.331-3.238,233.259-11.3,325.52-66.1c74.138-44.029,132.751-114.137,261.864-140.37
			c78.242-15.9,167.56-6.777,242.5-3.783c96.136,3.839,197.621-12.316,287.543-0.885c7.236,0.919,14.487,1.988,21.753,3.207
			L1366,42.437z"/>
		<path fill="#FFFFFF" d="M535.789,159.502c-97.084,51.272-173.771,58.399-322.71,64.694c-69.37,2.928-140.146,3.986-211.03,5.684
			c71.7-6.627,143.266-13.105,214.5-18.781c132.6-10.563,209.199-21.695,305.569-63.544c52.264-22.694,101.725-51.4,160.213-74.783
			C627.273,100.637,583.69,134.204,535.789,159.502z"/>
		<path fill="#FFFFFF" d="M685.726,72.771c38.009-19.485,78.515-33.656,120.381-42.115c66.587-13.461,148.169-10.763,218.343-10.178
			c-74.481,4.3-157.315,6.358-227.953,19.638C758.589,47.331,721.486,58.269,685.726,72.771z"/>
		<path fill="#FFFFFF" d="M1366,21.247c-9.719-1.817-19.433-3.4-29.155-4.689c-87.673-11.618-190.477,3.744-285.975,4.01
			c-8.044,0.021-16.306-0.021-24.728-0.09c4.124-0.24,8.238-0.479,12.307-0.735c105.028-6.563,209-23.194,303.617-7.527
			c7.91,1.311,15.889,2.864,23.934,4.6V21.247z"/>
		<path fill="#FFFFFF" d="M1366,16.787c-7.016-2.235-14.101-4.355-21.315-6.3c7.08,1.569,14.185,3.341,21.315,5.231V16.787z"/>
		<path fill="#FFFFFF" d="M0,226.998c8.992-1.256,17.985-2.514,26.979-3.772C18.001,225.363,9.008,227.49,0,229.606V226.998z"/>
		<path fill="#FFFFFF" d="M198.227,199.623c-57.275,7.606-114.26,15.623-171.248,23.601c45.686-10.885,91.067-21.953,137.154-31.66
			c104.352-21.975,214.199-34.678,317.539-58.073c38.133-8.633,75.5-17.574,113.062-26.248
			c-31.619,11.318-62.756,22.865-95.006,33.518C401.997,173.032,313.858,184.271,198.227,199.623z"/>
		<path fill="#FFFFFF" d="M1287.24,0.134c13.251,1.194,26.417,3.18,39.431,5.947c6.11,1.33,12.1,2.817,18.016,4.407
			c-5.236-1.162-10.467-2.218-15.69-3.17c-93.452-16.891-196.349,2.044-298.396,15.358c-5.143,0.667-10.313,1.328-15.512,1.982
			c58.132-10.95,116.863-20.304,171.502-24.374C1220.142,0.237,1253.693,0.187,1287.24,0.134z"/>
		<path fill="#FFFFFF" d="M597.935,107.243c57.54-20.594,116.693-40.435,187.093-52.735c72.56-12.677,152.82-20.391,228.167-29.85
			c-86.627,16.312-171.92,36.134-240.326,47.163C711.862,81.657,654.67,94.143,597.935,107.243z"/>
		<path fill="#FFFFFF" d="M1366,27.657c-18.945-9.665-37.006-19.782-58.336-27.283c21.683,4.9,40.379,11.955,58.336,19.572V27.657z"
			/>
		<path fill="#FFFFFF" d="M0.004,236.567v-3.563c7.318-2.6,14.594-5.227,21.826-7.882C14.654,228.984,7.378,232.799,0.004,236.567z"
			/>
		<path fill="#FFFFFF" d="M1144.712,0.337c-40.448,6.242-82.02,15.823-123.565,26.543c31.515-10.176,63.01-19.466,94.083-26.506
			C1125.057,0.365,1134.884,0.353,1144.712,0.337z"/>
		<path fill="#FFFFFF" d="M530.652,116.807c79.133-8.622,157.783-16.6,229.97-26.772c78.273-11.032,168.774-39.774,259.424-63.155
			c-93.974,30.341-188.081,68.551-271.407,78.421C680.552,113.368,605.899,115.14,530.652,116.807z"/>
		<path fill="#FFFFFF" d="M21.823,225.126c39.306-21.15,75.979-43.235,117.018-59.787c105.777-42.664,248.293-45.42,388.735-48.532
			c-135.728,14.791-272.899,31.493-381.384,64.526C104.303,194.091,63.651,209.827,21.823,225.126z"/>
		<path fill="#FFFFFF" d="M103.19,162.053C66.89,183.228,37.562,212.212,0,238.153v-2.471
			c42.282-35.687,68.142-78.577,111.983-103.938c128.688-74.443,341.82-17.979,520.272-11.653
			C442.164,120.058,242.108,81.017,103.19,162.053z"/>
		<path fill="#FFFFFF" d="M634.871,120.096c34.427,0.005,68.525-1.264,101.879-4.763c9.36-0.982,18.92-2.456,28.643-4.32
			c-12.813,2.98-25.792,5.2-38.868,6.648C697.538,120.762,666.755,121.222,634.871,120.096z"/>
		<path fill="#FFFFFF" d="M1324.623,10.818c11.327,6.666,22.557,13.58,35.008,19.742
			C1345.63,25.293,1334.813,18.253,1324.623,10.818z"/>
		<path fill="#FFFFFF" d="M1310.209,0.087c4.849,3.565,9.559,7.19,14.412,10.731c-6.314-3.717-12.68-7.343-19.3-10.721
			L1310.209,0.087z"/>
		<path fill="#FFFFFF" d="M1087.154,0.411C978.648,32.591,864.075,92.299,766.51,111.006
			c89.452-20.47,187.644-75.067,284.131-110.557C1062.814,0.441,1074.985,0.428,1087.154,0.411z"/>
		<path fill="#FFFFFF" d="M1349.848,0c5.286,1.819,10.681,3.306,16.152,4.451v17.722c-22.851-4.089-37.154-12.522-49.451-22.102
			C1327.648,0.05,1338.748,0.026,1349.848,0z"/>
		<path fill="#FFFFFF" d="M715.572,89.947c76.658-7.66,160.7-50.658,245.388-89.444c14.159-0.011,28.318-0.02,42.475-0.026
			c-99.836,42.079-200.035,98.13-288.374,107.74c-190.237,20.691-465.673-87.647-617.013,5.45
			c-43.082,26.5-61.2,70.22-98.048,107.129v-22.018c29-29.574,46.6-62.249,75.067-85.5C218.359-3.738,507.672,110.72,715.572,89.947
			z"/>
		<path fill="#FFFFFF" d="M0,180.343c11.59-8.404,22.604-17.578,32.966-27.457c-10.1,11.55-20.694,23.129-32.966,34.065V180.343z"/>
		<path fill="#FFFFFF" d="M101.729,86.248c2.564-1.619,5.167-3.17,7.8-4.678c-27.878,19.337-49.6,45.931-76.563,71.316
			C54.41,128.362,73.593,103.983,101.729,86.248z"/>
		<path fill="#FFFFFF" d="M764.144,55.04c58.846-6.811,109.49-28.9,157.843-54.516c3.776,0,7.553-0.001,11.328-0.005
			c-66.592,33.123-132.847,64.826-199.881,71.654c-195.628,19.922-468.123-79.809-623.899,9.4c1.813-1.258,3.651-2.493,5.52-3.688
			C282.522-29.127,547.057,80.167,764.144,55.04z"/>
		<path fill="#FFFFFF" d="M170.622,49.68C127.461,74.012,93.73,112.331,45.66,143.564c33.074-27.051,58.771-55.9,86.64-74.256
			c15.496-10.149,31.997-18.674,49.242-25.44C177.866,45.736,174.219,47.656,170.622,49.68z"/>
		<path fill="#FFFFFF" d="M0.001,168.242c15.878-6.945,31.151-15.2,45.66-24.679c-14.314,11.863-29.586,22.52-45.66,31.861V168.242z
			"/>
		<path fill="#FFFFFF" d="M181.543,43.867c178.655-90.851,447.847,2.922,663.88-24.153c25.264-3.144,50.016-9.538,73.642-19.024
			c-34.943,17.423-72.713,31.14-116.431,36.132C600.457,59.914,351.588-23.481,181.543,43.867z"/>
		<path fill="#FFFFFF" d="M0,157.535v-13.667c64.953-18.429,111.442-50.83,156.039-80.88C111.035,95.023,67.278,134.427,0,157.535z"
			/>
		<path fill="#FFFFFF" d="M186.134,43.211c-10.062,6.348-20.038,13-30.094,19.777C165.914,55.949,175.864,49.279,186.134,43.211z"/>
		<path fill="#FFFFFF" d="M852.859,0.566c15.586,0,31.174-0.009,46.763-0.026c-3.185,0.533-6.422,1.024-9.713,1.472
			c-83.46,11.276-173.1,5.455-262.508-1.456C702.553,0.579,777.705,0.583,852.859,0.566z"/>
		<path fill="#FFFFFF" d="M235.236,16.202c13.54-6.088,27.422-11.385,41.576-15.862c9.405,0.011,18.81,0.019,28.211,0.024
			c-37.283,7.09-72.743,18.353-105.7,35.5c-4.472,2.327-8.858,4.792-13.19,7.351C202.012,33.197,218.125,23.937,235.236,16.202z"/>
		<path fill="#FFFFFF" d="M228.291,0.303l27.107,0.021c-0.755,0.319-1.515,0.616-2.27,0.94
			c-80.747,34.636-144,99.878-253.128,127.056v-18.081C97.004,86.707,157.237,35.263,228.291,0.303z"/>
		<path fill="#FFFFFF" d="M144.366,0.219c15.066,0.016,30.133,0.031,45.199,0.045C132.837,31.987,77.811,70.002,0,90.393v-20.92
			C56.839,52.023,101.406,25.446,144.366,0.219z"/>
		<path fill="#FFFFFF" d="M35.336,0.111c19.078,0.021,38.157,0.041,57.236,0.058C64.343,16.745,34.456,33.057,0,46.2V18.777
			C12.297,12.835,24.008,6.551,35.336,0.111z"/>
	</g>
	<g transform="translate(0)">
		<path fill="#FFFFFF" d="M55.875-355.659c-20.743-11.618-37.417-25.79-54.301-40.347c14.374,14.04,28.883,27.612,47.718,38.83
			c33.453,19.927,68.137,30.232,105.8,35.252C120.678-327.365,88.419-337.427,55.875-355.659z"/>
		<path fill="#FFFFFF" d="M321.537-319.698c-63.123,1.869-117.314,4.323-166.442-2.225c50.653,8.006,105.977,6,173.762,5.244
			c138.9-1.543,237.964,9.633,334.894,59.134c18.171,9.278,35.565,19.324,53.442,29.342c-19.838-11.568-38.825-23.22-58.649-33.83
			C560.361-314.588,464.107-323.927,321.537-319.698z"/>
		<path fill="#FFFFFF" d="M928.123-160.15c-95.807-8.383-153.561-38.101-206.992-68.055c52.389,30.553,110.758,60.52,206.4,69.149
			c72,6.5,133.061-6.4,188.559-17.481c14.1-2.813,27.178-5.592,39.574-8.269c-13.027,2.616-26.846,5.371-41.82,8.209
			C1058.709-166.15,998.487-153.992,928.123-160.15z"/>
		<path fill="#FFFFFF" d="M1366.004-204.909c-83.941-8.754-133,3.66-209.188,20.109c76.828-15.427,125.309-25.774,209.188-16.762
			V-204.909z"/>
		<path fill="#FFFFFF" d="M1366.004-196.582c-46.377-4.934-81.682-4.639-116.938-0.961c6.359-0.648,12.828-1.177,19.447-1.516
			c33.6-1.735,65.643,1.693,97.49,6.542V-196.582z"/>
		<path fill="#FFFFFF" d="M0.008-392.402c10.951,6.8,21.742,13.609,32.752,20.185c-11.169-7.569-21.871-15.562-32.752-23.613
			V-392.402z"/>
		<path fill="#FFFFFF" d="M930.037-159.15c-123.869-10.392-183.223-56.417-255.713-91.685
			c-95.677-46.545-197.755-60.064-333.543-61.467c-72.573-0.75-128.965,0.6-181.815-8.867c57.663,12.308,116.255,11.7,196.1,14.47
			c131.825,4.57,236.209,20.849,329.889,64.592c71.562,33.415,129.86,76.343,248.632,85.863
			c66.52,5.331,124.133-5.56,177.521-14.835c41.111-7.143,80.287-19.045,124.867-24.939c-35.943,4.528-73.248,12.255-123.369,21.3
			C1058.016-164.875,998.781-153.384,930.037-159.15z"/>
		<path fill="#FFFFFF" d="M32.761-372.218c10.364,7.116,21.154,13.59,32.31,19.388c29.516,15.251,61.177,25.926,93.9,31.661
			c-28.454-6.101-56.133-15.375-82.518-27.649C61.479-355.827,46.894-363.638,32.761-372.218z"/>
		<path fill="#FFFFFF" d="M1366.004-184.641c-33.938-4.89-67.947-8.767-102.838-7.19c-57.182,2.585-104.215,17.658-153.721,26
			c-51.834,8.735-107.461,19.074-171.459,14.215c-113.152-8.596-170.352-48.478-240.385-79.958
			c-91.528-41.145-197.827-60.535-325.294-68.43c-117.385-7.274-187.4-5.321-282.356-43.743
			c-31.758-12.846-60.354-28.313-89.946-43.588v6.848c34.665,14.835,68.337,29.994,104.513,42.729
			c99,34.85,170.791,34.744,286.609,45.4c124.232,11.434,229.011,34.341,320.512,72.9c69.523,29.294,123.225,66.285,231.658,73.988
			c61.365,4.36,114.826-5.466,164.916-13.681c48.004-7.871,93.977-21.918,149.371-24.107c36.102-1.428,72.287,2.861,108.418,7.619
			L1366.004-184.641z"/>
		<path fill="#FFFFFF" d="M1366.004-165.723c-38.48-4.441-77.199-9.115-114.537-7.753c-53.48,1.947-98.051,14.838-144.533,22.281
			c-166.219,26.613-245.201,0.1-380.293-54.765c-90.09-36.59-195.755-62.991-315.304-77.921
			c-112.029-13.993-190.156-16.47-291.313-47.1C79.089-343.377,39.98-357.902,0.005-372.016v9.912
			c45.382,13.145,90.105,26.717,136.036,38.562c100.942,26.03,190.181,31.806,296.289,48.829
			c115,18.448,220.232,48.361,309.78,83.416c130.811,51.207,206.928,73.646,363.371,49.161c44.873-7.023,87.906-18.777,139.389-20.5
			c39.008-1.301,80.311,3.752,121.135,7.643V-165.723z"/>
		<path fill="#FFFFFF" d="M1366.004-143.552c-43.072-3-86.6-8.319-128.156-7.316c-49.377,1.19-91.213,12.174-134.117,18.729
			c-146.43,22.384-220.068,3.991-346.18-43.543c-90.286-34.028-193.125-67.287-304.021-89.305
			c-99.746-19.8-201.699-28.9-301.377-50.591c-51.042-11.1-101.391-23.437-152.149-35.41v12.092
			c56,10.631,111.809,21.491,167.929,31.682c100.359,18.226,210.887,29.553,306.394,52.378
			c107.472,25.688,205.511,61.983,298.145,95.513c121.131,43.844,192.734,58.234,329.096,37.954
			c41.506-6.171,81.512-15.78,128.898-16.957c43.893-1.09,90.047,4.55,135.539,6.542V-143.552z"/>
		<path fill="#FFFFFF" d="M1366.004-119.613c-47.971-0.709-96.465-6.678-143.223-5.529c-45.438,1.113-83.768,9.383-123.918,15.15
			c-126.408,18.153-196.5,7.69-312.494-32.445C689.671-175.9,598.799-214.908,494.14-244.393
			c-94.325-26.572-206.415-38.5-311.177-54.191c-60.991-9.133-121.978-18.296-182.959-27.488v13.253
			c65.759,7.448,131.363,15.115,196.813,23c111.55,13.572,221.35,24.882,315.55,56.033
			c101.665,33.621,184.021,74.921,286.39,108.554c110.777,36.4,180,43.057,296.734,27.058c38.9-5.331,75.773-12.3,119.359-13.287
			c50.131-1.14,100.545,5.192,151.152,4.339V-119.613z"/>
		<path fill="#FFFFFF" d="M1366.004-94.32c-93.74,6.146-181.469-3.731-274.66,8.237c-107.531,13.81-176.656,10.773-282.207-21.839
			c-108.738-33.594-183.035-77.626-280.711-115.235c-93.82-36.122-200.244-46.368-319.35-57.894
			c-69.953-6.769-139.644-13.553-209.071-20.354v15.639c73.274,4.333,146.648,7.927,219.31,13.359
			c127.524,9.528,228.6,18.816,322.387,59.776c93.3,40.747,160.034,88.863,275.299,121.914
			c100.334,28.768,170.328,28.428,269.275,16.834c93.447-10.95,186.93,0.627,279.723-7.645L1366.004-94.32z"/>
		<path fill="#FFFFFF" d="M1366.004-68.464c-0.295,0.034-0.594,0.074-0.889,0.105c-92.318,10.391-190.26-3.117-284.924,6.619
			c-91.172,9.375-163.211,12.781-258.313-12.093c-121.461-31.766-182.332-85.464-270.254-128.513
			c-93.072-45.57-188.969-54.208-324.506-61.68c-75.096-4.139-151.107-5.868-227.11-8.57v12.6
			c77.772,1.111,155.44,1.082,232.042,3.965c142.818,5.376,233.861,13.822,325.539,63.6
			c82.132,44.588,138.918,104.849,265.67,134.954c89.207,21.191,165.818,14.8,249.699,7.652
			c94.693-8.061,193.621,6.814,284.584-4.218c2.814-0.34,5.637-0.713,8.463-1.101L1366.004-68.464z"/>
		<path fill="#FFFFFF" d="M1366.004-41.484c-5.311,0.815-10.607,1.561-15.889,2.232c-90.709,11.389-190.072-5.176-285.672,0.956
			c-77.783,4.985-160.578,14.063-243.807-3.569c-131.224-27.801-185.613-95.855-261.635-141.16
			c-89.683-53.44-176.177-62.254-325.305-65.527c-77.085-1.693-155.262-0.068-233.692,0.324v11.716
			c76.292-0.308,152.329-1.648,226.811-0.076c153.331,3.238,233.259,11.3,325.519,66.101
			c74.143,44.032,132.755,114.14,261.87,140.375c78.242,15.899,167.559,6.776,242.5,3.782
			c96.135-3.839,197.621,12.316,287.543,0.886c7.236-0.919,14.486-1.988,21.752-3.207L1366.004-41.484z"/>
		<path fill="#FFFFFF" d="M535.794-158.549c-97.085-51.268-173.772-58.404-322.712-64.694c-69.37-2.928-140.146-3.986-211.03-5.684
			c71.7,6.627,143.266,13.106,214.5,18.782c132.6,10.563,209.199,21.695,305.569,63.544c52.264,22.693,101.725,51.4,160.213,74.783
			C627.277-99.683,583.694-133.251,535.794-158.549z"/>
		<path fill="#FFFFFF" d="M685.73-71.818c38.009,19.485,78.515,33.656,120.382,42.115c66.586,13.461,148.168,10.764,218.342,10.178
			c-74.48-4.299-157.314-6.357-227.953-19.637C758.594-46.376,721.49-57.316,685.73-71.818z"/>
		<path fill="#FFFFFF" d="M1366.004-20.293c-9.719,1.817-19.432,3.399-29.154,4.688c-87.674,11.619-190.477-3.743-285.975-4.01
			c-8.045-0.021-16.307,0.021-24.729,0.09c4.125,0.24,8.238,0.479,12.307,0.735c105.029,6.563,209,23.194,303.617,7.527
			c7.91-1.312,15.889-2.864,23.934-4.601V-20.293z"/>
		<path fill="#FFFFFF" d="M1366.004-15.833c-7.016,2.235-14.1,4.355-21.314,6.301c7.08-1.57,14.184-3.342,21.314-5.231V-15.833z"/>
		<path fill="#FFFFFF" d="M0.005-226.044c8.992,1.256,17.985,2.514,26.979,3.773c-8.978-2.138-17.971-4.265-26.979-6.382V-226.044z"
			/>
		<path fill="#FFFFFF" d="M198.231-198.668c-57.275-7.606-114.26-15.623-171.248-23.6c45.686,10.884,91.067,21.952,137.154,31.659
			c104.352,21.975,214.199,34.678,317.539,58.072c38.133,8.633,75.5,17.574,113.062,26.248
			c-31.619-11.318-62.757-22.863-95.007-33.512C402.002-172.078,313.862-183.318,198.231-198.668z"/>
		<path fill="#FFFFFF" d="M1287.244,0.819c13.25-1.194,26.416-3.18,39.43-5.947c6.111-1.33,12.1-2.816,18.016-4.406
			c-5.236,1.16-10.467,2.217-15.689,3.17c-93.453,16.891-196.35-2.041-298.396-15.358c-5.143-0.667-10.314-1.327-15.512-1.982
			c58.131,10.95,116.863,20.3,171.502,24.374C1220.147,0.715,1253.698,0.766,1287.244,0.819z"/>
		<path fill="#FFFFFF" d="M597.939-106.292c57.54,20.597,116.694,40.437,187.092,52.736c72.561,12.677,152.82,20.391,228.168,29.85
			c-86.627-16.312-171.92-36.134-240.326-47.161C711.865-80.707,654.675-93.189,597.939-106.292z"/>
		<path fill="#FFFFFF" d="M1366.004-26.704c-18.945,9.665-37.006,19.782-58.336,27.283c21.684-4.901,40.379-11.955,58.336-19.573
			V-26.704z"/>
		<path fill="#FFFFFF" d="M0.009-235.617v3.562c7.318,2.6,14.594,5.227,21.826,7.882C14.658-228.033,7.383-231.847,0.009-235.617z"
			/>
		<path fill="#FFFFFF" d="M1144.717,0.616c-40.449-6.242-82.02-15.825-123.566-26.543c31.516,10.176,63.01,19.466,94.084,26.506
			C1125.061,0.59,1134.889,0.602,1144.717,0.616z"/>
		<path fill="#FFFFFF" d="M530.656-115.853c79.133,8.621,157.783,16.6,229.969,26.771c78.273,11.032,168.775,39.77,259.424,63.155
			c-93.973-30.34-188.08-68.552-271.406-78.422C680.556-112.413,605.903-114.187,530.656-115.853z"/>
		<path fill="#FFFFFF" d="M21.827-224.172c39.306,21.151,75.979,43.235,117.018,59.787c105.772,42.664,248.289,45.42,388.731,48.532
			c-135.728-14.791-272.899-31.493-381.384-64.526C104.307-193.135,63.655-208.874,21.827-224.172z"/>
		<path fill="#FFFFFF" d="M103.194-161.1c-36.3-21.175-65.628-50.159-103.189-76.1v2.467
			c42.282,35.687,68.142,78.578,111.983,103.938c128.688,74.442,341.82,17.979,520.272,11.653
			C442.169-119.105,242.112-80.064,103.194-161.1z"/>
		<path fill="#FFFFFF" d="M634.876-119.139c34.427-0.005,68.525,1.264,101.878,4.763c9.361,0.982,18.92,2.456,28.643,4.32
			c-12.813-2.98-25.791-5.201-38.867-6.648C697.543-119.807,666.76-120.269,634.876-119.139z"/>
		<path fill="#FFFFFF" d="M1324.627-9.861c11.328-6.666,22.557-13.58,35.008-19.737C1345.635-24.339,1334.817-17.299,1324.627-9.861
			z"/>
		<path fill="#FFFFFF" d="M1310.213,0.867c4.85-3.565,9.559-7.19,14.412-10.731c-6.313,3.719-12.678,7.344-19.297,10.719
			L1310.213,0.867z"/>
		<path fill="#FFFFFF" d="M1087.158,0.539C978.653-31.637,864.08-91.345,766.514-110.056C855.967-89.586,954.158-34.99,1050.645,0.5
			C1062.819,0.511,1074.989,0.524,1087.158,0.539z"/>
		<path fill="#FFFFFF" d="M1349.852,0.954c5.285-1.82,10.68-3.309,16.152-4.455v-17.718c-22.85,4.089-37.154,12.521-49.451,22.101
			C1327.653,0.903,1338.752,0.927,1349.852,0.954z"/>
		<path fill="#FFFFFF" d="M715.576-88.992c76.652,7.659,160.695,50.657,245.381,89.442c14.16,0.011,28.318,0.02,42.477,0.026
			c-99.836-42.08-200.035-98.131-288.375-107.74c-190.237-20.691-465.672,87.646-617.012-5.45
			c-43.082-26.5-61.2-70.22-98.048-107.129v22.019c29,29.574,46.6,62.25,75.067,85.5C218.363,4.692,507.677-109.771,715.576-88.992z
			"/>
		<path fill="#FFFFFF" d="M0.005-179.389c11.59,8.405,22.604,17.577,32.966,27.457c-10.1-11.55-20.694-23.13-32.966-34.065V-179.389
			z"/>
		<path fill="#FFFFFF" d="M101.733-85.295c2.564,1.619,5.167,3.17,7.8,4.679c-27.878-19.338-49.6-45.932-76.563-71.316
			C54.415-127.408,73.597-103.029,101.733-85.295z"/>
		<path fill="#FFFFFF" d="M764.149-54.087c58.846,6.811,109.49,28.9,157.842,54.516c3.777,0,7.553,0.002,11.328,0.006
			c-66.592-33.123-132.846-64.826-199.881-71.652C537.81-91.14,265.315,8.59,109.539-80.619c1.813,1.258,3.651,2.493,5.52,3.688
			C282.526,30.079,547.061-79.214,764.149-54.087z"/>
		<path fill="#FFFFFF" d="M170.627-48.726c-43.161-24.332-76.893-62.652-124.962-93.885c33.074,27.052,58.771,55.9,86.64,74.256
			c15.496,10.15,31.997,18.675,49.242,25.44C177.871-44.783,174.223-46.699,170.627-48.726z"/>
		<path fill="#FFFFFF" d="M0.006-167.29c15.878,6.945,31.151,15.2,45.66,24.679c-14.314-11.863-29.586-22.52-45.66-31.86V-167.29z"
			/>
		<path fill="#FFFFFF" d="M181.548-42.914c178.655,90.852,447.847-2.922,663.88,24.153c25.264,3.144,50.016,9.538,73.641,19.024
			c-34.943-17.424-72.713-31.141-116.43-36.133C600.462-58.96,351.593,24.434,181.548-42.914z"/>
		<path fill="#FFFFFF" d="M0.005-156.583v13.667c64.953,18.43,111.442,50.83,156.039,80.881
			C111.04-94.07,67.282-133.474,0.005-156.583z"/>
		<path fill="#FFFFFF" d="M186.138-42.258c-10.062-6.349-20.038-13-30.094-19.776C165.919-54.998,175.868-48.326,186.138-42.258z"/>
		<path fill="#FFFFFF" d="M852.864,0.387c15.586,0,31.174,0.008,46.762,0.025c-3.184-0.533-6.422-1.023-9.713-1.472
			c-83.459-11.276-173.1-5.455-262.507,1.456C702.557,0.374,777.709,0.37,852.864,0.387z"/>
		<path fill="#FFFFFF" d="M235.24-15.25c13.54,6.089,27.423,11.385,41.577,15.863c9.405-0.011,18.81-0.019,28.211-0.023
			c-37.282-7.091-72.743-18.354-105.699-35.5c-4.473-2.328-8.859-4.793-13.191-7.352C202.016-32.244,218.13-22.984,235.24-15.25z"/>
		<path fill="#FFFFFF" d="M228.296,0.651l27.107-0.021c-0.755-0.318-1.515-0.615-2.27-0.939
			c-80.747-34.637-144-99.879-253.128-127.057v18.076C97.009-85.753,157.241-34.31,228.296,0.651z"/>
		<path fill="#FFFFFF" d="M144.371,0.735c15.066-0.016,30.133-0.031,45.199-0.045C132.836-31.033,77.81-69.049-0.001-89.439v20.92
			C56.844-51.072,101.41-24.492,144.371,0.735z"/>
		<path fill="#FFFFFF" d="M35.341,0.842c19.078-0.021,38.157-0.041,57.236-0.058C64.347-15.792,34.461-32.103,0.005-45.247v27.423
			C12.302-11.881,24.012-5.597,35.341,0.842z"/>
	</g>
</g>
</svg>
