<svg xmlns="http://www.w3.org/2000/svg" width="160" height="132" viewBox="0 0 160 132">
  <g id="LOGO_血肉" transform="translate(0.28)">
    <rect id="Rectangle_159" data-name="Rectangle 159" width="160" height="132" transform="translate(-0.28)" fill="none"/>
    <g id="Group_90" data-name="Group 90" transform="translate(39 15)">
      <path id="Path_214" data-name="Path 214" d="M-177.6,467.6c.4-1.1.7-2.1,1.1-3.1a42.623,42.623,0,0,0,2.2-13.3c.1-4.3.3-8.7.3-13.1,0-2.9-.4-5.7-.5-8.6a14.065,14.065,0,0,1,.3-2.8,26.894,26.894,0,0,0-.5-9.8c-.4-1.3-1.1-2.5-1.6-3.7-.4-.9-.8-1.7-1.2-2.6-.2-.4-.1-.7.4-.9a16.672,16.672,0,0,1,2-.8,3.3,3.3,0,0,1,2.9.3,16.646,16.646,0,0,1,3.9,3.1l.4.4a22.916,22.916,0,0,0,2.8.7,1.338,1.338,0,0,0,.1-.5c-.1-6.3-.3-12.5-.5-18.9a7.273,7.273,0,0,0-.7-2.9c-.5-1.4-1.1-1.8-2.6-2.6l.3-.3c1.6-.5,3.2-1.2,4.8-1.6a10.612,10.612,0,0,1,3.5.3,69.63,69.63,0,0,0,15.7,2c6.1,0,12.2.1,18.3,0,2.4,0,4.7-.2,7-.4a5.306,5.306,0,0,0,1.7-.8c.9-.7,1.8-1.5,2.7-2.2a2.505,2.505,0,0,1,3.5-.1c1.2.9,2.5,1.6,3.7,2.4a2.336,2.336,0,0,1,.7.7c.9,1.1.9,1.6-.2,2.5-1.1,1-2.3,2-2.5,3.6,0,.3-.1.5-.1.7v17.1c0,.7.3,1,.9,1a3.592,3.592,0,0,0,3.2-1.4,8.957,8.957,0,0,1,4.5-3.1,5.544,5.544,0,0,1,4,.6.992.992,0,0,1,.6,1.3,12.173,12.173,0,0,1-1.6,3,6.876,6.876,0,0,0-1.4,4.5c-.2,6.3-.4,12.6-.7,19a114.1,114.1,0,0,0,.7,19.4,30.7,30.7,0,0,0,3,10.5,10.491,10.491,0,0,1-3-2,17.7,17.7,0,0,1-5.1-10.5,127.526,127.526,0,0,1-1.4-17.4c-.1-3.2-.4-6.3-.6-9.5-.1-1.2.1-2.4.1-3.5a9.38,9.38,0,0,0-.5-4.4,3.376,3.376,0,0,0-3.2-2.2c-2.1,0-4.3-.1-6.4-.1-7.8,0-15.6-.1-23.4-.1-5.3,0-10.7-.1-16,0-2.2,0-4.4.1-6.6.1-.5,0-1.1-.1-1.6-.1-2.4.1-3.6,1.4-3.7,3.9-.1,2.7-.1,5.4-.3,8.1-.2,3.6-.6,7.2-.8,10.8-.1,2.7-.1,5.4-.3,8.1a35.888,35.888,0,0,1-2.6,12,13.469,13.469,0,0,1-5.4,6.4,2.185,2.185,0,0,1-.5.3C-177.3,467.5-177.4,467.5-177.6,467.6Zm59.1-75.6a4.331,4.331,0,0,1-.5-.1c-5.1-.1-10.2-.1-15.4-.2-2.8-.1-5.5-.1-8.2-.1-4.9-.1-9.7-.1-14.6-.2-.5,0-.7.1-.7.7v20.4c0,.5.1.7.7.7h7.8c.5,0,.7-.1.7-.7,0-1.8.1-3.7,0-5.6a63.193,63.193,0,0,1,.1-12.3c0-.2.1-.5.1-.9,2,.9,3.9,1.8,5.8,2.8a1.411,1.411,0,0,1,.8,1.5c-.1,4.8-.1,9.5-.1,14.3v.7a.31.31,0,0,0,.2.1h8.1c.1,0,.5-.3.5-.5.1-2.6.2-5.3.3-7.9.1-3.3,0-6.6,0-9.9a2.2,2.2,0,0,1,.1-.8,25.746,25.746,0,0,1,6.2,2.4,1.513,1.513,0,0,1,.7,1.4v14.5c0,.6.2.8.8.8a52.292,52.292,0,0,1,5.6,0c.6,0,.8-.2.8-.7.1-1.8.3-3.7.4-5.5.1-4.7.1-9.5.1-14.2A.745.745,0,0,1-118.5,392Z" transform="translate(177.8 -364.5)" fill="#fff"/>
      <path id="Path_215" data-name="Path 215" d="M-162.1,465.7c6.8-2.4,11.5-7.4,15.6-13a51.535,51.535,0,0,0,6.2-10.6,28.036,28.036,0,0,0,2-8.3,5.341,5.341,0,0,1,1.8.5,15.118,15.118,0,0,1,4.7,3.6,3.2,3.2,0,0,1,.5,3.9,39.491,39.491,0,0,1-2.9,4.9c-2.2,3-4.6,5.8-7,8.7a19.8,19.8,0,0,1-5.9,4.4,78.691,78.691,0,0,1-9.6,4.9,12.057,12.057,0,0,1-4.9,1.1A1.088,1.088,0,0,1-162.1,465.7Z" transform="translate(177.8 -364.5)" fill="#fff"/>
      <path id="Path_216" data-name="Path 216" d="M-151.4,387.8c1.2-1.3,2.5-2.7,3.8-4a91.607,91.607,0,0,0,10.2-12.2c.5-.9,1-1.8,1.4-2.7.8-2,.5-3-1.2-4.3a.367.367,0,0,1,.3-.1,21.091,21.091,0,0,1,8.9,2.4,18,18,0,0,1,3.7,3,5.024,5.024,0,0,1,.8,1.2,1.106,1.106,0,0,1-.6,1.6c-5.1,2.3-9.3,6-14.1,8.8a106.441,106.441,0,0,1-13.2,6.3Z" transform="translate(177.8 -364.5)" fill="#fff"/>
      <path id="Path_217" data-name="Path 217" d="M-160.8,444.5l.2-.2a27.967,27.967,0,0,0,10.1-8.9c2-2.7,3.9-5.5,5.8-8.3a13.628,13.628,0,0,0,2.2-5.9c.1-.4.1-.5.6-.5h7.7c.1,0,.2.1.4.1-.6,1-1.1,1.9-1.6,2.8a100.17,100.17,0,0,1-6.2,9.3,23.613,23.613,0,0,1-4.4,3.9,62.358,62.358,0,0,1-12.5,7.2,15.876,15.876,0,0,1-2,.7C-160.8,444.7-160.8,444.6-160.8,444.5Z" transform="translate(177.8 -364.5)" fill="#fff"/>
      <path id="Path_218" data-name="Path 218" d="M-114.7,440.4a8.77,8.77,0,0,1-4.5.3,21.754,21.754,0,0,1-10.1-5.2,18.706,18.706,0,0,1-4.3-4.6,4.855,4.855,0,0,1-.1-5.3,10.783,10.783,0,0,1,2.8-3.2.561.561,0,0,1,.9,0,7.9,7.9,0,0,1,1.4,2.3,49.252,49.252,0,0,0,2.9,7.2,16.06,16.06,0,0,0,8.9,7.9l.9.3A2.664,2.664,0,0,1-114.7,440.4Z" transform="translate(177.8 -364.5)" fill="#fff"/>
      <path id="Path_219" data-name="Path 219" d="M-133.1,447.9c.4-.6.9-1.2,1.4-2.1,1.7,1.1,3.5,2,5.3,3.2a21.891,21.891,0,0,1,6.5,6,9.993,9.993,0,0,1,.8,1.4,4.144,4.144,0,0,1-1,5.2,15.583,15.583,0,0,1-2,1.6,1.193,1.193,0,0,1-2-.4,8.806,8.806,0,0,1-1.1-2.4,30.726,30.726,0,0,0-5.4-10.1C-131.3,449.5-132.3,448.7-133.1,447.9Z" transform="translate(177.8 -364.5)" fill="#fff"/>
    </g>
  </g>
</svg>
