<svg xmlns="http://www.w3.org/2000/svg" width="110" height="105.6" viewBox="0 0 110 105.6">
  <g id="LOGO" transform="translate(-430 -434)">
    <rect id="Rectangle_91" data-name="Rectangle 91" width="110" height="105.6" transform="translate(430 434)" fill="none"/>
    <g id="Group_108" data-name="Group 108" transform="translate(440 446)">
      <g id="Group_99" data-name="Group 99" transform="translate(0 56.068)">
        <g id="Group_98" data-name="Group 98">
          <path id="Path_275" data-name="Path 275" d="M218.523,460.615l.682-1.015a1.7,1.7,0,0,0,1.3.286c.5-.113.741-.373.74-.7,0-.349-.3-.393-.762-.488l-.686-.152a1.218,1.218,0,0,1-1.068-1.269A2.291,2.291,0,0,1,220.6,455.2a1.988,1.988,0,0,1,1.7.342l-.6.926a1.413,1.413,0,0,0-1.1-.186c-.411.093-.672.332-.671.649,0,.34.346.385.807.474l.673.134a1.162,1.162,0,0,1,1.05,1.271,2.356,2.356,0,0,1-1.982,2.167A2.384,2.384,0,0,1,218.523,460.615Z" transform="translate(-218.523 -435.398)" fill="#fff"/>
          <path id="Path_276" data-name="Path 276" d="M240.215,449.731l1.192-.27.006,2.135,1.82-.412-.006-2.136,1.192-.27.015,5.541-1.192.27-.006-2.313-1.82.412.006,2.313-1.192.27Z" transform="translate(-235.394 -430.45)" fill="#fff"/>
          <path id="Path_277" data-name="Path 277" d="M264.728,446.569l1.192-.27.015,5.541-1.192.27Z" transform="translate(-254.459 -428.521)" fill="#fff"/>
          <path id="Path_278" data-name="Path 278" d="M275.691,441.756l1.222-.276,1.383,2.445.525,1.1.032-.007c-.058-.574-.156-1.328-.158-1.981l-.006-1.958,1.136-.257.015,5.541-1.222.276-1.383-2.451-.525-1.092-.032.007c.058.6.156,1.319.158,1.972l.005,1.967-1.136.257Z" transform="translate(-262.986 -424.26)" fill="#fff"/>
          <path id="Path_279" data-name="Path 279" d="M299.892,436.937l3.3-.748,0,1.051-2.112.478,0,1.113,1.8-.407,0,1.051-1.8.407,0,1.277,2.192-.5,0,1.051-3.385.766Z" transform="translate(-281.808 -420.658)" fill="#fff"/>
          <path id="Path_280" data-name="Path 280" d="M319.833,433.2l1.9-.43c1.118-.253,2.036-.052,2.04,1.265a2.335,2.335,0,0,1-2.03,2.282l-.707.16.006,1.994-1.192.27Zm1.809,2.145c.627-.142.963-.5.962-1.045s-.339-.655-.966-.513l-.61.138,0,1.558Zm-.119.692.822-.988,1.692,2.745-1.334.3Z" transform="translate(-297.317 -417.929)" fill="#fff"/>
          <path id="Path_281" data-name="Path 281" d="M341.06,430.439a3.433,3.433,0,0,1,2.562-3.487,1.852,1.852,0,0,1,1.666.343l-.626.946a1.1,1.1,0,0,0-1-.216,1.975,1.975,0,0,0-1.384,2.1c0,1.139.5,1.69,1.489,1.465a1.153,1.153,0,0,0,.558-.291l0-.957-.874.2,0-1.022,1.932-.437.007,2.555a3.2,3.2,0,0,1-1.738,1.065C342.2,433.023,341.065,432.305,341.06,430.439Z" transform="translate(-313.826 -413.427)" fill="#fff"/>
          <path id="Path_282" data-name="Path 282" d="M363.886,425.174l-1.6-3.205,1.275-.289.474,1.167c.142.383.281.736.432,1.131l.032-.007c.149-.463.3-.881.442-1.329l.467-1.38,1.245-.282-1.579,3.924.006,1.976-1.192.27Z" transform="translate(-330.337 -408.83)" fill="#fff"/>
          <path id="Path_283" data-name="Path 283" d="M390.84,417.2l1.812-.41c1.16-.262,2.1-.038,2.1,1.308a2.4,2.4,0,0,1-2.058,2.346l-.652.148.005,1.88-1.192.27Zm1.781,2.265a1.064,1.064,0,0,0,.963-1.1c0-.58-.355-.708-1-.562l-.549.124,0,1.672Z" transform="translate(-352.543 -405.492)" fill="#fff"/>
          <path id="Path_284" data-name="Path 284" d="M412.42,413.738l-.008-2.973,1.192-.27.008,3.1c0,1.085.329,1.387.919,1.253s.933-.586.93-1.671l-.008-3.1,1.149-.26.008,2.973c.005,1.861-.712,2.833-2.076,3.141S412.425,415.6,412.42,413.738Z" transform="translate(-369.321 -400.147)" fill="#fff"/>
          <path id="Path_285" data-name="Path 285" d="M436.733,406.807l1.812-.41c1.16-.263,2.1-.038,2.1,1.308a2.4,2.4,0,0,1-2.058,2.346l-.652.147.005,1.88-1.192.27Zm1.781,2.265a1.064,1.064,0,0,0,.964-1.1c0-.58-.355-.708-1-.562l-.549.124,0,1.672Z" transform="translate(-388.236 -397.413)" fill="#fff"/>
          <path id="Path_286" data-name="Path 286" d="M458.438,401.895l1.812-.41c1.16-.262,2.1-.038,2.1,1.308a2.4,2.4,0,0,1-2.058,2.346l-.652.147.005,1.88-1.192.27Zm1.781,2.265a1.063,1.063,0,0,0,.963-1.1c0-.58-.355-.708-1-.562l-.549.124,0,1.672Z" transform="translate(-405.117 -393.592)" fill="#fff"/>
          <path id="Path_287" data-name="Path 287" d="M480.143,396.136l3.3-.748,0,1.051-2.112.478,0,1.113,1.8-.407,0,1.05-1.8.407,0,1.277,2.193-.5,0,1.051-3.385.766Z" transform="translate(-421.999 -388.925)" fill="#fff"/>
          <path id="Path_288" data-name="Path 288" d="M499.651,392.145l-1.451.329,0-1.051,4.095-.927,0,1.051-1.452.328.012,4.491-1.192.27Z" transform="translate(-436.04 -385.121)" fill="#fff"/>
          <path id="Path_289" data-name="Path 289" d="M526.135,390.986l.682-1.014a1.7,1.7,0,0,0,1.3.286c.5-.112.741-.373.74-.7,0-.349-.3-.393-.762-.488l-.686-.152a1.218,1.218,0,0,1-1.068-1.269,2.291,2.291,0,0,1,1.873-2.077,1.99,1.99,0,0,1,1.7.342l-.6.926a1.415,1.415,0,0,0-1.1-.186c-.411.093-.672.332-.672.649,0,.34.346.385.807.474l.672.134a1.162,1.162,0,0,1,1.05,1.271,2.355,2.355,0,0,1-1.982,2.167A2.382,2.382,0,0,1,526.135,390.986Z" transform="translate(-457.769 -381.244)" fill="#fff"/>
          <path id="Path_290" data-name="Path 290" d="M547.827,380.1l1.192-.27.006,2.135,1.82-.412-.006-2.136,1.192-.27.015,5.541-1.192.27-.006-2.313-1.82.412.006,2.313-1.192.27Z" transform="translate(-474.64 -376.297)" fill="#fff"/>
          <path id="Path_291" data-name="Path 291" d="M571.253,378.391A3.2,3.2,0,0,1,573.64,375c1.422-.322,2.4.5,2.4,2.307a3.257,3.257,0,0,1-2.387,3.439C572.234,381.067,571.258,380.2,571.253,378.391Zm3.568-.808c0-1.111-.459-1.664-1.178-1.5s-1.172.921-1.168,2.032.459,1.712,1.178,1.549S574.824,378.695,574.821,377.584Z" transform="translate(-492.86 -373.016)" fill="#fff"/>
          <path id="Path_292" data-name="Path 292" d="M594.864,367.748l1.221-.276.373,2.506c.071.568.148,1.135.22,1.7l.032-.008c.1-.607.205-1.222.309-1.823l.56-2.717,1.011-.229.574,2.46c.107.539.214,1.113.322,1.681l.032-.007c.068-.607.139-1.215.207-1.8l.358-2.671,1.139-.258-.921,5.753-1.5.339-.522-2.4c-.085-.409-.157-.838-.215-1.239l-.032.007c-.063.429-.128.888-.211,1.335l-.492,2.63-1.472.333Z" transform="translate(-511.223 -366.309)" fill="#fff"/>
        </g>
      </g>
      <g id="Group_107" data-name="Group 107" transform="translate(8.055 0)">
        <g id="Group_100" data-name="Group 100" transform="translate(0 10.971)">
          <path id="Path_293" data-name="Path 293" d="M281.07,163.414a10.993,10.993,0,0,0-1.154.843c-.479.369-1.038.812-1.687,1.332q-1.025.9-1.635,1.449a.679.679,0,0,0-.283-.454,1.486,1.486,0,0,0-.9-.206,1.1,1.1,0,0,0-.614.4,2.738,2.738,0,0,0-.228.988,14.657,14.657,0,0,0,.075,1.675c0,1.419-.069,2.846-.2,4.292q-.208,2.135-.562,4.331c-.208,1.319-.386,2.45-.539,3.383-.254,1.518-.384,2.395-.384,2.634.341-.1.753-.663,1.229-1.677a7.491,7.491,0,0,0,1.229-2.675,6.526,6.526,0,0,0,.614-2.118c.069-.576.118-1.592.153-3.047v-.234l.078-1.755v-.406c.066-1.124.127-1.906.179-2.34.084-.513.162-1.235.231-2.171a2.213,2.213,0,0,0,.588-.4,7.188,7.188,0,0,1,1.713-.9c.785-.121,1.569-.248,2.356-.389a1.254,1.254,0,0,0,.969-1.317Q281.941,163.242,281.07,163.414Zm-9.572,3c-.271.088-.741.265-1.4.532a1.234,1.234,0,0,0,.078-.448,1.829,1.829,0,0,0-.949-1.476,2.594,2.594,0,0,0-1.612-.217.814.814,0,0,0-.459.7,1.31,1.31,0,0,0,.511.952.933.933,0,0,1,.513.766,1.984,1.984,0,0,1-.13.64c-.309.13-.606.238-.894.33-.7.243-1.289.46-1.768.659q-1.025.458-1.047,1.205a.967.967,0,0,0,.436.808,1.055,1.055,0,0,0,1.024.207,5.083,5.083,0,0,0,1.583-.646,26.58,26.58,0,0,1,2.688-1.352c.545-.246,1.217-.524,2.022-.836a1.153,1.153,0,0,0,.845-1.139Q272.934,166.278,271.5,166.413Zm.055,5.284-.539.185a1.589,1.589,0,0,0,.153-.157q1.406-1.486,1.407-2.148a1.069,1.069,0,0,0-.231-.643.689.689,0,0,0-.562-.2q-.588.142-1.586,1.722c-.239.423-.453.817-.64,1.174-.17.374-.314.737-.435,1.084-.323.151-.637.3-.943.444a4.283,4.283,0,0,0-.13-1.021,2.453,2.453,0,0,0-.461-.728,1.429,1.429,0,0,0-1.252-.366c-.1.02-.222.154-.358.4a1.63,1.63,0,0,0-.156.541,1.5,1.5,0,0,0,.536,1.021c.291.2.563.376.819.527-.715.263-1.312.491-1.791.69q-.973.422-1,1.147a.915.915,0,0,0,.41.761,1.019,1.019,0,0,0,.946.2,5.584,5.584,0,0,0,1.638-.633c.052-.025.13-.066.231-.121l1.791-.894.04-.02c.208-.1.427-.2.652-.3q.818-.365,2.019-.833a1.2,1.2,0,0,0,.871-1.148C272.983,171.841,272.5,171.613,271.552,171.7Z" transform="translate(-262.209 -163.395)" fill="#fff"/>
          <path id="Path_294" data-name="Path 294" d="M329.629,215.443a13.532,13.532,0,0,1-.413,3.575q-.792,1.741-1.252,2.911-.489.012-.793-2.505-.024-6.138-.072-9.464a.894.894,0,0,1,.491-.795l1.137-.548a.552.552,0,0,1,.823.526v.715Q329.628,212.478,329.629,215.443Z" transform="translate(-311.023 -198.514)" fill="#fff"/>
          <path id="Path_295" data-name="Path 295" d="M328.25,186.8q0,.666-.868,1.046a7.965,7.965,0,0,1-1.482.7c-.41.148-.822.307-1.229.471l-2.46,1.131v0l-.043.023h0a9.868,9.868,0,0,1-1.742.769,1.314,1.314,0,0,1-1-.215l.078-1.755q1.073-.6,2.688-1.427l2.564-1.293a8.8,8.8,0,0,1,1.451-.556,2.461,2.461,0,0,1,1.486.167A1.251,1.251,0,0,1,328.25,186.8Z" transform="translate(-305.055 -180.701)" fill="#fff"/>
          <path id="Path_296" data-name="Path 296" d="M293.923,219.341a1.171,1.171,0,0,1-.854,1.124c-.857.337-1.595.654-2.215.944l-.176-2a17.84,17.84,0,0,1,1.837-.742C293.453,218.564,293.923,218.788,293.923,219.341Z" transform="translate(-282.697 -206.362)" fill="#fff"/>
          <path id="Path_297" data-name="Path 297" d="M293.747,236.158c0,.79-.286,1.239-.854,1.352a.875.875,0,0,1-.782-.223,2.716,2.716,0,0,0-.955-.665,3.51,3.51,0,0,1-.453-.412l-.026-.624a1.307,1.307,0,0,1,1.033-.735,2.838,2.838,0,0,1,1.534.351A1.072,1.072,0,0,1,293.747,236.158Z" transform="translate(-282.697 -218.97)" fill="#fff"/>
          <path id="Path_298" data-name="Path 298" d="M259.747,229.654q-.8.41-1.609.873a6.239,6.239,0,0,1-2.039.857.981.981,0,0,1-.955-.212.918.918,0,0,1-.378-.733c0-.484.326-.869.981-1.149q.856-.395,2.215-.918a12.572,12.572,0,0,0,1.76-.724Z" transform="translate(-254.766 -213.369)" fill="#fff"/>
          <path id="Path_299" data-name="Path 299" d="M265.938,225.029a9.526,9.526,0,0,1-.228,2.26,2.043,2.043,0,0,1-.7,1.345,2.206,2.206,0,0,0-.479.323c-.167.134-.352.295-.554.488a4.143,4.143,0,0,1-.577.59,1.244,1.244,0,0,1-.554.286c-.369.007-.562-.263-.58-.814a1.6,1.6,0,0,0-.753-.857,2.668,2.668,0,0,1-.606-.434q-.125.3-.779.431-1,.173-1.007-1.99a3.872,3.872,0,0,1,.2-.946c.234-.43.418-.66.554-.687a.646.646,0,0,1,.6.206,6.189,6.189,0,0,0,1.71-.59c.084,0,.127.027.127.076a4.927,4.927,0,0,0-1.459,2.049,6.328,6.328,0,0,0,.075.992l.026-.005a5.383,5.383,0,0,0,1.71.29q.778-.154.854-1.251.125-1.232.153-4.256l-.026-2.005a2.146,2.146,0,0,0-.049-.53V220a.819.819,0,0,1,.4-.811l.629-.39a.569.569,0,0,1,.911.29,4.22,4.22,0,0,1,.075.452l.176,2c.052.558.084,1.065.1,1.514l.026.624C265.929,224.195,265.938,224.646,265.938,225.029Z" transform="translate(-258.152 -206.39)" fill="#fff"/>
        </g>
        <g id="Group_101" data-name="Group 101" transform="translate(1.268 37.85)">
          <path id="Path_300" data-name="Path 300" d="M285.643,300.567a.944.944,0,0,0-.9-.41,2.1,2.1,0,0,0-.742.607q-1.621.321-3.443.762c-.377.092-.763.2-1.155.332l-1.284.355c-.224.062-.448.133-.669.212l-1.8.536a5.019,5.019,0,0,0-.512.178q-2.382.812-4.542,1.719a.794.794,0,0,0-.486.8l.147,1.013.012,0a7.077,7.077,0,0,0,2.068-1.129,33.269,33.269,0,0,1,3.776-1.47q2.929-.912,5.882-1.755.95-.215,1.644-.352a12.212,12.212,0,0,1-1.847,2.063q.022.2.23.158a5.985,5.985,0,0,0,.772-.356,4.56,4.56,0,0,1,1.128-.559,9.172,9.172,0,0,0,1.49-.063c.772-.153,1.157-.471,1.157-.948A2.633,2.633,0,0,0,285.643,300.567Zm-7.206,13.275a6.072,6.072,0,0,0-.306-1.745,5,5,0,0,0-.634-1.141c-.048-.067-.558-.825-.632-.793-.822.364-1.64.74-2.442,1.147a8.664,8.664,0,0,0-1.094.621c-.286.2-.73.523-.839.875.032.079.18.1.436.067a3.255,3.255,0,0,1,1.028-.021,17.928,17.928,0,0,0,2.183-.742c.035.114.085.342.153.688a.346.346,0,0,0,.026.1c-.085.035-.188.073-.306.111q-2.187.8-4.471,1.4c-.427.188-.651.43-.669.722a1.879,1.879,0,0,0,.309.737.635.635,0,0,0,.642.282,6.891,6.891,0,0,0,1.823-.721l2.568-.945a.827.827,0,0,0,.18-.062v1.158q-4.931,1.539-6.035,1.915c-.872.394-1.328.829-1.361,1.3a1.164,1.164,0,0,0,.283.636.909.909,0,0,0,.925.2,28.339,28.339,0,0,1,4.032-1.571c.683-.221,1.379-.435,2.08-.642a9.554,9.554,0,0,1-.1,1.175c-.032.707-.306,1.115-.822,1.217a16.8,16.8,0,0,1-2.672.041c-.068.031-.118.135-.153.313a3.4,3.4,0,0,0,1.311.409,2.06,2.06,0,0,1,1.334.66c.035.523.224.786.566.786a1.311,1.311,0,0,0,.489-.253c.33-.246.555-.676.873-.953a6.331,6.331,0,0,0,.731-.663,4.07,4.07,0,0,0,.638-2.322,16.241,16.241,0,0,0-.017-2.892C278.469,314.578,278.459,314.21,278.437,313.842Zm-4.894-12.087a3.725,3.725,0,0,0-.41-1.227.585.585,0,0,0-.695-.275,1.444,1.444,0,0,0-1.284,1.489,3.007,3.007,0,0,0,.669,1.075q.667.972,1.181.871c.171-.034.2-.25.413-.521A1.4,1.4,0,0,0,273.543,301.755Zm3.92,3.028a.324.324,0,0,0-.436-.285,8.486,8.486,0,0,0-1.093.382,9.874,9.874,0,0,1-1.411.716.585.585,0,0,0-.386-.256.936.936,0,0,0-.618-.057c-.239.047-.477.3-.719.758a3.44,3.44,0,0,0-.256.949,9.268,9.268,0,0,0,.462,2.53c.445.9.875,1.317,1.284,1.236.153-.03.318-.21.489-.536a1.311,1.311,0,0,0,.1-.38,8.02,8.02,0,0,1,1.747-.935c.212-.764.386-1.561.506-2.162a2.94,2.94,0,0,1-.583.893,6.6,6.6,0,0,1-1.747.859c-.053-.331-.094-.7-.13-1.105.256-.186.53-.385.822-.6q1.109-.631,1.646-.933a.526.526,0,0,0,.253-.315A2.147,2.147,0,0,0,277.463,304.783Z" transform="translate(-267.103 -296.629)" fill="#fff"/>
          <path id="Path_301" data-name="Path 301" d="M316.724,285.19a1.331,1.331,0,0,1-.409,1.086,1.616,1.616,0,0,1-.851.573.54.54,0,0,0-.095.039,17.689,17.689,0,0,0-2,1.289.7.7,0,0,0-.145.144q-.184.245-.338.429a.639.639,0,0,1-.315.208l-.161.045c-.409.113-.681-.284-.457-.672l.007-.011c.011-.018.023-.038.035-.055q.984-1.4,1.792-2.375l.028-.032a4.645,4.645,0,0,1,1.885-1.489Q316.726,284.164,316.724,285.19Z" transform="translate(-300.446 -284.335)" fill="#fff"/>
          <path id="Path_302" data-name="Path 302" d="M301.077,288.364a11.162,11.162,0,0,1-.256,1.694,9.87,9.87,0,0,0-.155,1.2,1.118,1.118,0,0,1-.774.964l-.123.037a.694.694,0,0,1-.947-.658q0-.319,0-.654v-1.85a3.705,3.705,0,0,1,.282-1.181,1.033,1.033,0,0,1,.21-.318l.008-.008a.891.891,0,0,1,1.015-.232,3.538,3.538,0,0,1,.435.274A1.033,1.033,0,0,1,301.077,288.364Z" transform="translate(-290.295 -286.625)" fill="#fff"/>
          <path id="Path_303" data-name="Path 303" d="M309.427,316.734a3.7,3.7,0,0,1-.666,2.008,5.61,5.61,0,0,1-.848,1.143,2.343,2.343,0,0,1-1.1.938,1.478,1.478,0,0,1-.616-.031c.278-1,.488-2.025.717-3.039a3.421,3.421,0,0,0,.106-.715,2.184,2.184,0,0,0-.05-.708.039.039,0,0,1,.016-.051c.1-.08.2-.161.3-.239.051-.04.1-.08.156-.118.033-.024.121-.111.161-.111a1.021,1.021,0,0,1,.448-.217,1,1,0,0,1,.719.217C309.206,316.221,309.427,316.527,309.427,316.734Z" transform="translate(-296.031 -308.642)" fill="#fff"/>
          <path id="Path_304" data-name="Path 304" d="M263.189,322.622v0c-.024.2-.047.38-.074.559-.05.575-.077,1.087-.077,1.532a1.942,1.942,0,0,1-.436,1.191q-.875,1.225-1.311,1.311-.822.163-.822-2.226a14.343,14.343,0,0,1,.309-2.756q.513-1.9.925-1.983a2.312,2.312,0,0,1,.948.3,2.394,2.394,0,0,1,.336.266Z" transform="translate(-260.47 -312.27)" fill="#fff"/>
          <path id="Path_305" data-name="Path 305" d="M313.554,361.991a.59.59,0,0,1,.426-.564q.788-.217,1.531-.425c.96-.223,1.806-.461,2.542-.71a5.821,5.821,0,0,1,.566-.162,1.336,1.336,0,0,1,.978.242.865.865,0,0,1,.359.777c0,.48-.359.79-1.081.933a3.974,3.974,0,0,1-.9.075c-.256.036-.521.071-.8.108q-1.554.441-3.088.9a.369.369,0,0,1-.5-.338Z" transform="translate(-301.756 -343.273)" fill="#fff"/>
          <path id="Path_306" data-name="Path 306" d="M316.728,350.442a1.159,1.159,0,0,1-.8,1.083q-1.643.534-3,.929a.623.623,0,0,0-.18.062,3.719,3.719,0,0,0-.1-1.133.576.576,0,0,1,.394-.637q1.435-.463,2.37-.736A3.482,3.482,0,0,1,316.4,350,.466.466,0,0,1,316.728,350.442Z" transform="translate(-301.047 -335.381)" fill="#fff"/>
          <path id="Path_307" data-name="Path 307" d="M311.677,339.658a.7.7,0,0,1-.592.786,18.481,18.481,0,0,0-2.178.75.217.217,0,0,1-.285-.088,4.776,4.776,0,0,0-.606-.876.3.3,0,0,1,.148-.432l.586-.251a13.361,13.361,0,0,1,1.8-.922.766.766,0,0,1,.642.182A1.225,1.225,0,0,1,311.677,339.658Z" transform="translate(-297.409 -326.552)" fill="#fff"/>
        </g>
        <g id="Group_102" data-name="Group 102" transform="translate(24.915 34.173)">
          <path id="Path_308" data-name="Path 308" d="M378.342,270.785c.017-.675.026-1.2.026-1.565q0-1-.606-1.187a1.656,1.656,0,0,0-1.356-.184q-.783.229-.931,3.706v1.03l.02,2.814h.006c0,.47.006.954.023,1.455v2.18l.023,3h0c0,.2,0,.413,0,.623v.176c0,.573.012,1.16.023,1.761q.048,2.937.15,5.277a2.99,2.99,0,0,0,.479,1.189c.15-.03.286-.258.4-.682q.277-.431.58-.971a4.454,4.454,0,0,0,.88-1.631,8.561,8.561,0,0,0,.277-2.521V282.9l-.009-4.59c-.012-.4-.017-.865-.017-1.387q-.073-1.621-.075-2.5c.029-.009-.026,0,0-.012l.078-2.848h0c0-.046,0-.092,0-.139C378.319,271.234,378.328,271.019,378.342,270.785Zm-4.39,5.1a1.144,1.144,0,0,0,.738-1.023v-.992a.728.728,0,0,0-1.067-.659q-1.432.565-2.9,1.2-.1.046-.251.1a2.212,2.212,0,0,0-1.157-.65,3.775,3.775,0,0,0-1.182-.2,2.446,2.446,0,0,0-.955.795,5.743,5.743,0,0,0-.3,1.493,18.893,18.893,0,0,0,1.534,6.837,4.749,4.749,0,0,0,1.332,1.674c.418.352.756.5,1.007.452q.554-.11.753-.928a24.733,24.733,0,0,1,2.723-1.483.81.81,0,0,0,.47-.7v-1.2a.512.512,0,0,0-.761-.463q-1.263.532-2.757,1.247a6.861,6.861,0,0,0-.326-.665,7.1,7.1,0,0,1-.681-3.061,27.863,27.863,0,0,1,3.219-1.567C373.578,276.021,373.768,275.952,373.953,275.884Z" transform="translate(-366.872 -267.792)" fill="#fff"/>
          <path id="Path_309" data-name="Path 309" d="M422.167,285.177a.807.807,0,0,1,.545-.731q1.351-.445,2.65-.83c.635-.126,1.131-.668,1.483-1.626a12.359,12.359,0,0,0,1.055-4.158,11.527,11.527,0,0,1-2.287,1.333,16.721,16.721,0,0,1-2.717,1.017l-.007,0a.535.535,0,0,1-.741-.508l0-1.506a.853.853,0,0,1,.581-.773q1.8-.586,2.887-.821a10.33,10.33,0,0,1,3.092-.186,2.094,2.094,0,0,1,.981-.621.889.889,0,0,1,.857.257,1.549,1.549,0,0,1,.528,1.2,9.722,9.722,0,0,1-2.137,5.6,1.47,1.47,0,0,1,.5,1.031q0,1.359-1.86,1.727-2.576.578-4.723,1.215a.5.5,0,0,1-.685-.488Z" transform="translate(-409.861 -273.979)" fill="#fff"/>
        </g>
        <line id="Line_18" data-name="Line 18" y1="0.02" x2="0.04" transform="translate(5.994 22.166)" fill="#fff"/>
        <line id="Line_19" data-name="Line 19" y1="0.138" transform="translate(36.607 38.425)" fill="#fff"/>
        <path id="Path_310" data-name="Path 310" d="M326.753,208.312h0l.043-.02" transform="translate(-310.754 -187.342)" fill="#fff"/>
        <g id="Group_103" data-name="Group 103" transform="translate(25.321 5.296)">
          <path id="Path_311" data-name="Path 311" d="M412.9,149.816a.939.939,0,0,0-.916-.357c-.53.105-.971.731-1.328,1.872-.035.092-.067.2-.1.328a12.775,12.775,0,0,0-1.682.869l-.588.807c.026-.029.07-.07.129-.131a1.058,1.058,0,0,0,.433.654,1.142,1.142,0,0,0,.79.151,19.861,19.861,0,0,1-1.378,2.391,14,14,0,0,0-1.784,3.823c0,.237.05.347.152.327a1.617,1.617,0,0,0,.512-.435,5.149,5.149,0,0,0,.995-.961,10.322,10.322,0,0,0,1.4-1.606,11.042,11.042,0,0,0,1.354-1.977q.43-.954,1.1-2.233c.018-.033.035-.066.056-.1,0,0,0-.006.006-.01a.293.293,0,0,1,.02-.039c.673-1.339,1.033-2.226,1.112-2.423.006-.013.009-.022.012-.029s0-.006,0-.009v0a.924.924,0,0,0,.015-.152A1.251,1.251,0,0,0,412.9,149.816Zm3.911-11.924q-.535.106-1.606,1.518a27.687,27.687,0,0,0-1.556,2.45c-.137.3-.158.511-.243.73-.05.028-.023.177-.091.208l-.675,1.84a.079.079,0,0,0,.1.1c.334-.126.715-.268,1.135-.424a20.285,20.285,0,0,0,2.144-.911,1.259,1.259,0,0,0,.919-1.227.514.514,0,0,0-.383-.486,4.135,4.135,0,0,0-1.123.018c-.2.076-.442.172-.714.294a1.651,1.651,0,0,1,.129-.2,14.052,14.052,0,0,1,1.834-1.385,1.377,1.377,0,0,0,.766-.559,1.464,1.464,0,0,0,.357-1.118Q417.809,137.695,416.814,137.892Z" transform="translate(-398.08 -137.861)" fill="#fff"/>
          <path id="Path_312" data-name="Path 312" d="M432.5,192.988a.622.622,0,0,0-.155-.1,2.931,2.931,0,0,1,.129.919,21.3,21.3,0,0,1-.714,5.091q-.461,1.978-1.123,2.11a4.887,4.887,0,0,0-.945.392,1.4,1.4,0,0,1-.866.681q-.768.152-1.021-.944a3.919,3.919,0,0,0-1.1-1.517.339.339,0,0,1,.254-.308,2.057,2.057,0,0,0,1.735.5q.641-.127,1.021-1.96a16.759,16.759,0,0,0,.383-3.393c0-.254-.035-.376-.1-.363a13.207,13.207,0,0,1-1.465.884l.009-.031.965-2.175c.158-.037.272-.063.442-.1a3.093,3.093,0,0,1,1.018-.638.456.456,0,0,1,.178-.009l.07.05c.193.146.784.579,1.518,1.039C432.656,193.077,432.577,193.034,432.5,192.988Z" transform="translate(-413.814 -179.987)" fill="#fff"/>
          <path id="Path_313" data-name="Path 313" d="M437.172,176.924c0,.1-.061.167-.178.19l-.41.081q-.281.029-.509.048a1.633,1.633,0,0,0-.383.2,1.344,1.344,0,0,1-.459.193,4.725,4.725,0,0,1-3.183-.671c-.734-.46-1.325-.893-1.518-1.039l-.07-.05a5.926,5.926,0,0,1-.892-.818,6.892,6.892,0,0,0-.816-1.037c-.509.2-.945.374-1.3.512q-.437.225-.877.457a.259.259,0,0,1-.366-.317l1.318-3.6a.336.336,0,0,1,.345-.218l.217.017a.349.349,0,0,1,.1.024q.8.328,1.2.522,1.044-.488,1.735-.751a4.836,4.836,0,0,1,1.428-.028.629.629,0,0,1,.486.594,1.678,1.678,0,0,1-1.147,1.6c-.24.1-.468.186-.69.266a6.532,6.532,0,0,0,1.837,1.166q.917.507,2.244,1.088Q437.174,176.413,437.172,176.924Z" transform="translate(-413.414 -163.328)" fill="#fff"/>
          <path id="Path_314" data-name="Path 314" d="M414.387,153.549a.4.4,0,0,1-.331.449,2.886,2.886,0,0,1-1.53-.563q-.535-.381-.535-.763a2,2,0,0,1,.2-.754c.222-.334.4-.513.535-.539a1.378,1.378,0,0,1,1.123.313,2.642,2.642,0,0,1,.383.664A4.467,4.467,0,0,1,414.387,153.549Z" transform="translate(-402.369 -148.357)" fill="#fff"/>
          <path id="Path_315" data-name="Path 315" d="M405.876,155.032a.382.382,0,0,1-.069-.237,2.089,2.089,0,0,1,.3-.957l0-.006a27.447,27.447,0,0,0,1.48-2.716,1.059,1.059,0,0,1-.611-.391,2.508,2.508,0,0,1-.383-.968c0-.322.29-.628.869-.912q.685-.237,1.351-.522.281-.823.535-1.689a3.317,3.317,0,0,1-1.2.647.789.789,0,0,1-.74-.312,2.252,2.252,0,0,1-.357-.848c.018-.328.29-.6.816-.826a17.049,17.049,0,0,0,2.042-.812q.382-1.761.714-3.868a8.2,8.2,0,0,1,.357-1.548,1.243,1.243,0,0,1,.816-.647.714.714,0,0,1,.74.237,1.364,1.364,0,0,1,.3,1.01,21.22,21.22,0,0,1-.714,3.713l-2.217,6.612a20.694,20.694,0,0,1-1.735,3.126l-.588.807-.006.007a.149.149,0,0,0-.02.022l-.053.081a3.284,3.284,0,0,1-1.133,1.126.388.388,0,0,1-.5-.128Z" transform="translate(-397.559 -138.284)" fill="#fff"/>
          <path id="Path_316" data-name="Path 316" d="M376.249,154.017q-.026-.811-.307-.983a.846.846,0,0,0-.74-.339,2.288,2.288,0,0,0-.968.7,5.367,5.367,0,0,1-1.685.641l-.126.025a2.112,2.112,0,0,0-.1-.413.806.806,0,0,0-.766-.36,1.055,1.055,0,0,0-.687.751,4.694,4.694,0,0,0-.307,1.9q-.636,9-1.86,17.076c0,.834.05,1.242.152,1.222a3.987,3.987,0,0,0,.79-1.409,21.859,21.859,0,0,0,1.047-3.063q.382-1.4.79-3.424a1.153,1.153,0,0,0,.611.008q.641-.127,1.863-1.645.127-.126.281-.284-.026,2.581-.05,5.009a1.077,1.077,0,0,1-.971,1.161c-.322.064-.834.133-1.53.2a.61.61,0,0,0,.076.292,1.217,1.217,0,0,0,.41.249,1.079,1.079,0,0,1,.892.973.8.8,0,0,0,.866.668,1.164,1.164,0,0,0,.843-.7c.2-.3.41-.581.611-.861a2.517,2.517,0,0,0,1.074-2.3v-3.546Q376.4,159.373,376.249,154.017Zm-2.016,8.792a5.885,5.885,0,0,0-1.3.717q-.636.433-1.044.719a31.083,31.083,0,0,0,.331-3.588v-.2a2.107,2.107,0,0,0,.433.069c.29-.04.553-.069.793-.081a3.852,3.852,0,0,0,.483-.046,2.006,2.006,0,0,0,.307-.084Zm0-3.9-.357-.21a6.89,6.89,0,0,0-.74-.16,2.432,2.432,0,0,0-.611-.031,2.6,2.6,0,0,0-.231.122q.053-1.362.178-2.891a2,2,0,0,0,.535-.235c.459-.4.749-.649.869-.76.2-.041.322.03.357.21Z" transform="translate(-368.699 -149.393)" fill="#fff"/>
          <path id="Path_317" data-name="Path 317" d="M433.276,193.862" transform="translate(-418.924 -181.416)" fill="#fff"/>
          <path id="Path_318" data-name="Path 318" d="M410.7,205.78l.029-.041.073-.1" transform="translate(-401.367 -190.573)" fill="#fff"/>
          <path id="Path_319" data-name="Path 319" d="M445.876,190.684c-.734-.46-1.325-.893-1.518-1.039Z" transform="translate(-427.543 -178.136)" fill="#fff"/>
          <path id="Path_320" data-name="Path 320" d="M379.929,176.778s-1.436.867-.076,1.826" transform="translate(-376.919 -168.129)" fill="#fff"/>
          <path id="Path_321" data-name="Path 321" d="M390.971,178.036s.93.468,0,1.4" transform="translate(-386.021 -169.107)" fill="#fff"/>
          <path id="Path_322" data-name="Path 322" d="M377.391,202.057s-1.632,1.252-.41,2.094" transform="translate(-374.788 -187.79)" fill="#fff"/>
          <path id="Path_323" data-name="Path 323" d="M390.971,195.6" transform="translate(-386.021 -182.764)" fill="#fff"/>
        </g>
        <path id="Path_324" data-name="Path 324" d="M498.6,134.31" transform="translate(-444.41 -129.803)" fill="#fff"/>
        <g id="Group_105" data-name="Group 105" transform="translate(49.988 0)">
          <g id="Group_104" data-name="Group 104">
            <path id="Path_325" data-name="Path 325" d="M496.612,131.433a2.451,2.451,0,0,0-1.888-.556.646.646,0,0,0-.5.31,1.166,1.166,0,0,0-.17.6,3.007,3.007,0,0,0,.839,1.372,3.78,3.78,0,0,1,.576,1.4.8.8,0,0,0,.519.474,1.087,1.087,0,0,0,.566.081,1.433,1.433,0,0,0,.782-.6,1.166,1.166,0,0,0,.271-.8A3.382,3.382,0,0,0,496.612,131.433Zm-10,2.432c0-.05-.045-.075-.134-.073q-.717.134-1.675.341a.768.768,0,0,0-.673-.16q-.21.046-.568.711a4,4,0,0,0-.183.981q.059,2.052,1.067,1.857c.6-.131.9-.33.893-.6a8.379,8.379,0,0,1-.116-1.147A4.583,4.583,0,0,1,486.61,133.866Zm4.686-15.5a1.129,1.129,0,0,0-.7-.027,12.3,12.3,0,0,0-2.194.834c-.106.044-.209.086-.312.126a.638.638,0,0,0-.412.587l.048.621a.321.321,0,0,0,.479.249c.321-.134.69-.285,1.111-.455.7-.238,1.226-.4,1.56-.495q.876-.191.855-.949C491.73,118.676,491.585,118.512,491.3,118.37Zm9.129,2.6a1.278,1.278,0,0,0-.94-.2q-.374.081-3.921,1.161-1.747.582-3.706,1.19a1.538,1.538,0,0,0,.019-.311.991.991,0,0,0-.531-.776,7.436,7.436,0,0,0,1.924-.954,1.415,1.415,0,0,0,.487-.641,1.342,1.342,0,0,0,.171-.651,7.81,7.81,0,0,0,1.277-4.814,1.044,1.044,0,0,0-.421-.674,1.608,1.608,0,0,0-.917-.259q-.265.058-.833.769c-.284.044-.53.089-.743.136q-.9.249-3.151.993a10.628,10.628,0,0,1-1.153.488.574.574,0,0,0-.387.52l.015.838c.006.326.363.468.672.266.225-.151.448-.29.662-.413a20.136,20.136,0,0,1,2.78-.912,7.059,7.059,0,0,0,1.372-.553,5.384,5.384,0,0,1-.366,2.093,6.019,6.019,0,0,1-1.278,2.114,11.753,11.753,0,0,1-3.277,1.307.331.331,0,0,0-.247.346l.122.821a.223.223,0,0,0,.3.168c.128-.04.261-.077.4-.119a.938.938,0,0,0,.328.312c.288.124.437.288.443.491l.005.177q-4.766,1.547-8.888,3.031a1.38,1.38,0,0,0-.957,1.149,1.413,1.413,0,0,0,1.763.917,22.386,22.386,0,0,0,3.832-1.489h0c.027-.012.054-.026.085-.039l.336-.155c.042-.021.088-.039.13-.06l.783-.36.238-.125c-.009,0,.042-.021.03-.024.194-.08.387-.163.581-.24q2.983-1.229,5.975-2.181,3.923-.981,6.845-1.642c.493-.107.738-.324.729-.644A1.7,1.7,0,0,0,500.425,120.971Z" transform="translate(-479.686 -114.031)" fill="#fff"/>
            <path id="Path_326" data-name="Path 326" d="M504.509,179.464a1.093,1.093,0,0,1-.072.278,1.387,1.387,0,0,1-1.049.707q-.662.144-1.267-1.336a5.592,5.592,0,0,1-.62-2.083,4.954,4.954,0,0,1,.28-1.434,1.856,1.856,0,0,1,.282-.406v0l1.086-.461a1.209,1.209,0,0,1,.154.039c.343.112.516.264.522.453a8.123,8.123,0,0,0-.123,2.01.191.191,0,0,1,0,.041,1.773,1.773,0,0,0,.04.331.05.05,0,0,0,0,.022A3.273,3.273,0,0,0,504.509,179.464Z" transform="translate(-496.653 -161.237)" fill="#fff"/>
            <path id="Path_327" data-name="Path 327" d="M503.465,130.657a.881.881,0,0,1-.758.6q-.849.185-1.3-1.4a25.139,25.139,0,0,1-.717-4.485,2.792,2.792,0,0,1,.261-1.153,2.013,2.013,0,0,1,.782-.728,2.961,2.961,0,0,1,.911.132,1.333,1.333,0,0,1,.359.456s-.013,1.473.031,2.878l0,.072c.02.589.052,1.158.1,1.6a2.487,2.487,0,0,0,.1.6.659.659,0,0,0,.027.1Z" transform="translate(-496.025 -121.382)" fill="#fff"/>
            <path id="Path_328" data-name="Path 328" d="M513.414,165.971a.537.537,0,0,1,.34-.452q1.059-.42,2.161-.794,1.431-.412,3.073-.821l.548-.119a.551.551,0,0,0,.255-.138,1.68,1.68,0,0,1,.435-.342,1.173,1.173,0,0,1,.913.131.972.972,0,0,1,.586.892,4.284,4.284,0,0,1-.553,2.184,7.33,7.33,0,0,0-.6,1.431,1.265,1.265,0,0,1-.977.9.475.475,0,0,0-.124.05,10.8,10.8,0,0,1-2.241.9.153.153,0,0,1,.03.07,16.261,16.261,0,0,1,.246,2.062,8.807,8.807,0,0,1-.13,1.989,1.769,1.769,0,0,1-.712,1.225,2.261,2.261,0,0,0-.314.247c-.126.121-.269.261-.425.416a.551.551,0,0,0-.075.093,2.668,2.668,0,0,1-.379.475.958.958,0,0,1-.4.212q-.478.033-.571-.616a.333.333,0,0,0-.043-.132,1.265,1.265,0,0,0-.784-.45,1.531,1.531,0,0,1-.784-.314c.033-.141.076-.23.127-.256a11.278,11.278,0,0,0,1.36-.118,1.057,1.057,0,0,0,.822-1.123,15.987,15.987,0,0,0,.079-2.794v-.015a.342.342,0,0,0-.458-.3q-.227.056-.454.108a.37.37,0,0,1-.373-.111,1.286,1.286,0,0,1-.451-.965v0c.078-.286.555-.419.555-.419a14.3,14.3,0,0,0,4.028-1.511,1.651,1.651,0,0,0,.73-.72,3.917,3.917,0,0,0,.354-.94.346.346,0,0,0-.483-.4q-.273.091-.6.222a27.444,27.444,0,0,1-3.318,1.128.507.507,0,0,0-.127.054q-.21.125-.445.268c-.421.257-.888.036-.867-.408Z" transform="translate(-505.516 -152.325)" fill="#fff"/>
          </g>
          <path id="Path_329" data-name="Path 329" d="M518.785,177.985c-.012-.149-.021-.3-.024-.446" transform="translate(-510.077 -163.424)" fill="#fff"/>
          <path id="Path_330" data-name="Path 330" d="M509.785,166.3l.33-.148.128-.055" transform="translate(-503.096 -154.523)" fill="#fff"/>
          <line id="Line_20" data-name="Line 20" x1="0.539" y2="0.24" transform="translate(8.217 10.85)" fill="#fff"/>
        </g>
        <path id="Path_331" data-name="Path 331" d="M520.1,332.37" transform="translate(-461.132 -283.845)" fill="#fff"/>
        <g id="Group_106" data-name="Group 106" transform="translate(48.859 28.463)">
          <path id="Path_332" data-name="Path 332" d="M500.177,253.409a12.939,12.939,0,0,0-1.736.67q-.982.471-2.339.968-1.029.355-1.332.489a2.606,2.606,0,0,0-.58.542,1.4,1.4,0,0,0-.2.645.792.792,0,0,0,.274.6,1.006,1.006,0,0,0,.655.124l-.006.007a1.853,1.853,0,0,1,1.491.076,3.364,3.364,0,0,1,1.269,1.077,4.476,4.476,0,0,1,.457,2.847c-.105.761-.341,2.187-1.249,2.367a7.838,7.838,0,0,1-1.679.093c-.049,0-.1,0-.156,0l-.329.215c.029.014.075.034.133.057.173.067.473.163.9.292.585.218.88.463.88.731.035.394.21.579.528.547a1.551,1.551,0,0,0,.5-.2,1.187,1.187,0,0,1,.375-.273,3.062,3.062,0,0,1,.378-.251,1.34,1.34,0,0,0,.629-.277,3.378,3.378,0,0,0,.73-1.552,9.291,9.291,0,0,0,.326-2.536,7.7,7.7,0,0,0-.424-2.445s0-.005,0-.008a.119.119,0,0,1-.017-.046,3.114,3.114,0,0,0-.36-.73,1.9,1.9,0,0,0-.4-.549,3.5,3.5,0,0,0-1.107-.611c.4-.213.813-.421,1.234-.62a7,7,0,0,0,1.483-.747c.487-.232.73-.54.73-.926Q501.233,253.2,500.177,253.409Zm5.494-3.956q0-.956-.756-.831c-.753.149-1.165.482-1.232,1a1.5,1.5,0,0,0,.127.505,2.413,2.413,0,0,1,.049.466q.052,1.2.052,4.391a3.3,3.3,0,0,0,.274,1.431c.185.28.361.4.531.371.133-.026.317-.314.551-.862a3.366,3.366,0,0,0,.5-1.784Q505.747,252.3,505.672,249.453Zm3.974,4.819q-.052-2.629-.1-3.776-.052-1.2-.127-3.949a22.285,22.285,0,0,0-.3-3.941q-.3-.593-1.433-.495a1.022,1.022,0,0,0-.857.749,5.292,5.292,0,0,1,.2.612c0,.386.017.787.049,1.2q.052,3.861.052,7.258,0,3.7-.026,6.9,0,1.865-.856,2.232-.7.165-1.382.3c-.251.032-.511.067-.779.105a.151.151,0,0,0-.127.126,1.324,1.324,0,0,0,.554.493q1.181.294,1.183.9.2,1.167,1.156.979a1.328,1.328,0,0,0,.655-.432,3.69,3.69,0,0,1,.6-.771,1.727,1.727,0,0,0,1.131-1.156,7.681,7.681,0,0,0,.43-2.952C509.672,257.085,509.661,255.627,509.646,254.272Z" transform="translate(-489.683 -242.098)" fill="#fff"/>
          <path id="Path_333" data-name="Path 333" d="M487.8,315.573a1.46,1.46,0,0,1-.655.482q-.026.005-.026-.22a4.228,4.228,0,0,1,.228-.573,4.762,4.762,0,0,1,.427-.69q.251-.448.58-.92.22-.295.423-.551a1.658,1.658,0,0,1,1.872-.637,1.124,1.124,0,0,1,.134.072l-.014.012c-.219.242-.462.51-.73.8a13.032,13.032,0,0,1-1.033,1.11,5.764,5.764,0,0,1-.7.693C488.084,315.34,487.917,315.483,487.8,315.573Z" transform="translate(-484.338 -296.747)" fill="#fff"/>
          <path id="Path_334" data-name="Path 334" d="M492.087,316.974q-.653.657-1.408,1.309a7.208,7.208,0,0,1-.932.788c-.3.23-.536.4-.7.517a1.473,1.473,0,0,1-.629.5q-.052-.016-.052-.241a2.54,2.54,0,0,1,.378-.655,8.9,8.9,0,0,1,.528-.757,10.872,10.872,0,0,1,.8-1.042q.882-.98,1.635-1.706.4-.4.675-.636l.012-.014a2.317,2.317,0,0,1,.655.62.438.438,0,0,1-.119.524Z" transform="translate(-485.306 -298.829)" fill="#fff"/>
          <path id="Path_335" data-name="Path 335" d="M494.035,324.723c-.216.21-.453.416-.7.618q-.731.673-1.583,1.344c-.1.086-.2.17-.3.25-.121.1-.236.185-.352.269l-.078.056-.329.215-.023.031a8.3,8.3,0,0,1-.782.53,1.429,1.429,0,0,1-.678.512q-.052.01-.052-.24a3.019,3.019,0,0,1,.4-.66c.216-.294.418-.559.6-.8.3-.363.611-.724.932-1.09q1-1,1.86-1.753c.453-.39.8-.686,1.033-.883l.049-.041a3.754,3.754,0,0,1,.033,1.6Z" transform="translate(-485.922 -305.083)" fill="#fff"/>
          <path id="Path_336" data-name="Path 336" d="M488.665,257.025a1.311,1.311,0,0,0-1.157-.474.819.819,0,0,0-.577.567,25.066,25.066,0,0,0-3.772,1.126.26.26,0,0,0-.075.038l-2.013.829q-.831.39-1.661.805c-.049.044-.107.1-.176.162,0-.017-.014-.032-.049-.039a1.458,1.458,0,0,0-1.156-.275c-.3.06-.462.443-.479,1.15a13.91,13.91,0,0,1-.4,2.7q-.2,1.576-.707,3.864-.428,2.071-.854,4.017-.8,3.884-.981,5.628a2.282,2.282,0,0,0,.049.593c.035.126.084.185.153.172.265-.505.643-1.177,1.131-2.01a32.143,32.143,0,0,0,1.183-3.808q.554-2.122,1.03-4.377.329-1.3.857-4.245c.167-.8.294-1.425.378-1.86a.729.729,0,0,0,.075-.217,1.181,1.181,0,0,0,.352-.018,1.731,1.731,0,0,0,.589-.3,6.3,6.3,0,0,0,.519-.4c.484-.263.981-.529,1.482-.8a8.142,8.142,0,0,0-.352,1.578l-.049,1.9v.15a1.138,1.138,0,0,0,.225.734c.219.36.427.521.629.481a3.851,3.851,0,0,0,.906-.306,8.378,8.378,0,0,0,2.062-.862,1.062,1.062,0,0,0,.678-.535,1.012,1.012,0,0,0,.228-.674.236.236,0,0,0-.15-.224,1.081,1.081,0,0,0-.528-.12,5.59,5.59,0,0,0-.931.386,5.127,5.127,0,0,1-1.082.365c-.1.02-.2-.087-.3-.318l.176-1.944a.441.441,0,0,1,.026-.132,2.26,2.26,0,0,0,.052-.414.7.7,0,0,0-.254-.527.712.712,0,0,0-.124-.128c.167-.065.334-.141.5-.224a25.424,25.424,0,0,1,2.642-1.029,3.791,3.791,0,0,1-.669,1.425c-.029.046-.058.089-.086.135l.306.265.208-.159a6.053,6.053,0,0,1,.568-.372,6.313,6.313,0,0,1,1.584-.539.589.589,0,0,0,.554-.614A1.477,1.477,0,0,0,488.665,257.025Z" transform="translate(-474.608 -253.324)" fill="#fff"/>
          <path id="Path_337" data-name="Path 337" d="M509.827,245.23q0,.658-.883,1.182a24.892,24.892,0,0,1-3.092,1.117c-.036.181-.068.366-.095.555a.891.891,0,0,1-.534.676l-.706.29a.562.562,0,0,1-.829-.506v-1.719a4.194,4.194,0,0,1,.4-1.461,1.613,1.613,0,0,1,.73-.6c.219-.044.554.106,1.007.452a1.05,1.05,0,0,1,.326.564c.1-.034.185-.068.254-.1a10.53,10.53,0,0,1,2.362-.921,1.266,1.266,0,0,1,.629.025C509.683,244.866,509.827,245.014,509.827,245.23Z" transform="translate(-497.227 -244.148)" fill="#fff"/>
          <path id="Path_338" data-name="Path 338" d="M520.274,270.089a.982.982,0,0,1-.277.759,1.861,1.861,0,0,1-.828.591,6.779,6.779,0,0,1-.908.607c-.089-.175-.409,0-.39-.217l.134-1.485c.118-.075.047-.031.13-.082l1.232-.749a2.018,2.018,0,0,1,.554.043l.306.265h0A.84.84,0,0,1,520.274,270.089Z" transform="translate(-508.256 -263.418)" fill="#fff"/>
          <path id="Path_339" data-name="Path 339" d="M497.642,278.95l-.049,1.9a1.6,1.6,0,0,1-.3.21,4.062,4.062,0,0,1-.955.417.843.843,0,0,1-.73-.158,1,1,0,0,1-.4-.751.914.914,0,0,1,.681-.888c.536-.19,1-.375,1.407-.556Z" transform="translate(-490.625 -270.76)" fill="#fff"/>
          <path id="Path_340" data-name="Path 340" d="M522.3,317.161a.518.518,0,0,1,.473-.559,12.572,12.572,0,0,1,2.7.221c.756.153,1.13.439,1.13.857q0,1.385-1,1.583a3.182,3.182,0,0,1-1.107-.435,10.024,10.024,0,0,0-1.384-.455c-.144-.038-.288-.072-.433-.1a.316.316,0,0,1-.252-.273Z" transform="translate(-511.699 -300.039)" fill="#fff"/>
          <path id="Path_341" data-name="Path 341" d="M522.273,314.251" transform="translate(-511.68 -298.215)" fill="#fff"/>
          <path id="Path_342" data-name="Path 342" d="M522.943,301.461a.7.7,0,0,1-.453.667,11.185,11.185,0,0,0-2.036,1.084l-.032.028a.333.333,0,0,1-.533-.066c-.034-.072-.065-.133-.093-.185a.4.4,0,0,1,.072-.434q.231-.275.459-.552a4.159,4.159,0,0,1,1.762-1.529.555.555,0,0,1,.6.157A1.32,1.32,0,0,1,522.943,301.461Z" transform="translate(-509.724 -287.483)" fill="#fff"/>
          <path id="Path_343" data-name="Path 343" d="M524.307,273.828" transform="translate(-513.262 -266.776)" fill="#fff"/>
          <path id="Path_344" data-name="Path 344" d="M515.495,313.608" transform="translate(-506.408 -297.715)" fill="#fff"/>
          <path id="Path_345" data-name="Path 345" d="M505.594,311.346a.976.976,0,0,0-.1.035" transform="translate(-498.627 -295.956)" fill="#fff"/>
        </g>
      </g>
    </g>
  </g>
</svg>
