<svg xmlns="http://www.w3.org/2000/svg" width="160" height="132" viewBox="0 0 160 132">
  <g id="LOGO_吳蹦" transform="translate(-0.5)">
    <rect id="Rectangle_160" data-name="Rectangle 160" width="160" height="132" transform="translate(0.5)" fill="none"/>
    <g id="Group_95" data-name="Group 95" transform="translate(49 6)">
      <path id="Path_197" data-name="Path 197" d="M-95.7,117.014c-2.072,1.151-4.068,2.226-6.064,3.3a1.327,1.327,0,0,1-.768.077,8.318,8.318,0,0,1-1.458-.614,15,15,0,0,1-2.686-1.458,3.009,3.009,0,0,1-1.228-2.917l.921-5.987c.077-.537.461-.614.844-.461.768.307,1.458.614,2.3,1,.077-1,.077-2.072.154-2.763a16.683,16.683,0,0,1-2.61-2.61,2.546,2.546,0,0,1-.077-2c.921-2,1.919-3.991,2.917-5.987.384-.768.844-.921,1.535-.23a9.22,9.22,0,0,0,2.763,1.689,4.749,4.749,0,0,1,2.3,6.831,1.048,1.048,0,0,1-.844.307,4.32,4.32,0,0,1-.768-.154c-.154.691-.307,1.151-.461,1.689-.307,1.075-.691,2.149-1.075,3.3,1.765.307,3.454-1,4.759.768.307-1.842.537-3.684.844-5.526.23-1.228.537-2.533.844-3.761a.753.753,0,0,1,1.3-.461,3.634,3.634,0,0,1,.844,1c.23.461.307.844,1,.768.154,0,.461.384.537.614.23.921.384,1.919.537,2.84a9.4,9.4,0,0,1,.154,1.458,16.916,16.916,0,0,0-.307,2.763c-.077,2-.23,3.991-.154,5.987,0,2.533.23,5.143.307,7.676a3.852,3.852,0,0,1-.154.921,2.978,2.978,0,0,1-.844-.461,2.7,2.7,0,0,1-1-3.147c.384-1.3.077-2.84.077-4.3,0-1,0-2-.077-2.993a4.327,4.327,0,0,0-.307-.921c-.384.307-.844.537-1,.844a8.366,8.366,0,0,0-.23,2c-.23,2.993-.537,5.987-.768,8.98a5.942,5.942,0,0,1-.537,1.228c-.384-.23-.844-.384-1.151-.614a5.366,5.366,0,0,1-1-1.3,2.508,2.508,0,0,1,0-1.3c0-.384.23-.768.23-1.151C-96.088,120.314-95.858,118.626-95.7,117.014Zm-4.3-4.068v3.915c1.689-.077,2.763-1.842,4.529-1.075V111.18a13.815,13.815,0,0,0-2.456,1.458C-98.621,113.176-99.159,113.483-100,112.946Zm.844-10.746c0-1.535-.537-2.686-.921-2.379a4.677,4.677,0,0,0-1.382,1.842C-101.768,102.123-100.617,102.43-99.159,102.2Zm-4.912,15.582c0-1.842.921-3.454.384-5.3C-104.685,113.483-104.992,116.784-104.071,117.781Zm12.9-8.75a4.072,4.072,0,0,0-.844.691.746.746,0,0,0-.077.691,1.9,1.9,0,0,0,.691.307c.077-.23.23-.384.23-.614C-91.176,109.8-91.176,109.415-91.176,109.031Z" transform="translate(137.558 -50.436)" fill="#fff"/>
      <path id="Path_198" data-name="Path 198" d="M-89.6,67.861c-.461,1.458-.921,2.686-1.3,3.991-.077.154-.077.307-.154.384a32.5,32.5,0,0,1-2.456,3.224c-1.535,1.765-2.84,1.382-3.838-.23-.461-.691-.077-1,.614-1.458a6.2,6.2,0,0,0,2-2A48.844,48.844,0,0,0-92.6,67.247a4.048,4.048,0,0,0,.23-.921c-1.228,0-2.379-.077-3.531,0a3.245,3.245,0,0,1-2.686-1.151.773.773,0,0,1,.23-1.3,5.839,5.839,0,0,1,1.612-.614,43.157,43.157,0,0,1,4.375-.691c1.228-.154,1.689-.921,2.072-2.072a21.809,21.809,0,0,1-2.917.384,9.535,9.535,0,0,1-2.533-.307c-1.075-.384-1.842-2.763-1.3-3.838.384-.768,1.228-.768,1.612.154a1.5,1.5,0,0,0,1.919.844c2.149-.23,4.3-.461,6.371-.537a40.661,40.661,0,0,1,5.3.077c1.3.077,1.535.614,1.765,1.919a2.184,2.184,0,0,1-.768,2.533c.154.077.23.154.307.154a9.494,9.494,0,0,1,4.145.768,6.9,6.9,0,0,1,1.842.921.845.845,0,0,1,.307.768,1.767,1.767,0,0,1-1,.844,12.371,12.371,0,0,1-2.917.077c-1.458-.077-2.993-.384-4.452-.461-1.151-.077-2.226,0-3.377,0a.58.58,0,0,1-.077.307c.844.691,1.689,1.458,2.61,2.072,2.226,1.612,4.452,3.147,6.6,4.836A10.039,10.039,0,0,1-75.1,73.848a1.3,1.3,0,0,1,.23.768c-.154,1.382-2.533,2.84-3.684,2.072-1.919-1.228-3.761-2.61-5.526-3.991C-85.918,71.238-87.683,69.626-89.6,67.861Zm1.535-5.987c1.765.154,2.917.077,3.224-1.3-.461-.077-.921-.154-1.3-.23C-87.76,59.955-87.913,60.032-88.067,61.874Z" transform="translate(135.447 -41.196)" fill="#fff"/>
      <path id="Path_199" data-name="Path 199" d="M-82.276,43.522c-.23,1.612-.384,2.84-.614,4.145-.23,1.075-2.072,1.919-3.454,1.689a11.3,11.3,0,0,0-1.612,0,.268.268,0,0,0-.154.077c-1.458-.384-3.07-.077-4.375-1.075-1.075-.844-1.228-1.535-.461-2.61a2.5,2.5,0,0,0,.307-1.689,37.352,37.352,0,0,1-.077-4.145c0-.614-.077-1.228-.077-1.919a1.023,1.023,0,0,1,.307-.768,1.461,1.461,0,0,1,1.075-.307c1.228.461,2.3-.154,3.454-.23a7.77,7.77,0,0,1,2.3.154,2.773,2.773,0,0,1,2.3,2.226C-82.967,40.605-82.583,42.217-82.276,43.522Zm-4.145-.307c-.154-.844-.307-1.765-.537-2.61a1.128,1.128,0,0,0-.384-.461c-1.075-.384-1.612,0-1.689,1.151,0,.537-.154,1-.154,1.535-.077,1.3.154,1.535,1.458,1.228a1.306,1.306,0,0,1,.537-.077C-86.651,44.059-86.267,43.829-86.421,43.215Z" transform="translate(134.185 -36.661)" fill="#fff"/>
      <path id="Path_200" data-name="Path 200" d="M-79.8,114.909a2.579,2.579,0,0,0,.384-1.075c0-.921-.23-1.765-.23-2.686a15.72,15.72,0,0,1,.384-1.842c.23-1.535.384-2.993.537-4.529a.268.268,0,0,0,.154-.077,3.94,3.94,0,0,0,3.07.691c.844-.154,1.382.614,1.535,1.458.23,1.689.384,3.454.614,5.219.461,3.761,1,7.445,1.458,11.206.23,1.765.384,3.454.614,5.219a1.225,1.225,0,0,1-.23.614c-.844-1.151-2.533-1.689-2.379-3.531,0-.23.307-.384.384-.614.077,0,.23.077.307.077-.384-3.07-.844-6.14-1.3-9.364-.691.154-1.3.307-1.919.384-.384.077-1,.077-1.228.307-.23.307-.077.921-.077,1.3.23,3.377.384,6.755.614,10.209v.768a4.9,4.9,0,0,0-1.075-.921c-1.151-.768-1.3-1.765-1.228-3.147.154-2.072,0-4.222,0-6.294a8.342,8.342,0,0,0-.077-1.382A4.214,4.214,0,0,0-79.8,114.909Zm4.836-4.605c-.154-1.151-.23-2.3-.461-3.454a1.188,1.188,0,0,0-.844-.614c-.23,0-.614.384-.691.614a14.166,14.166,0,0,0-.307,1.765C-77.421,110.84-77.421,110.84-74.964,110.3Zm.077,1.689c-.844.23-1.612.384-2.456.614v1.382c.921.077,1.765.154,2.686.307,0-.537-.077-1-.077-1.458C-74.811,112.606-74.811,112.376-74.888,111.992Z" transform="translate(131.018 -52.476)" fill="#fff"/>
      <path id="Path_201" data-name="Path 201" d="M-135.164,122.318a1.877,1.877,0,0,1,2.226,1c.077.154.537.154.768.077.844-.537,1.612-1.151,2.456-1.765.23-.154.537-.077.768-.154,0,.307.077.691-.154.921-.537.614-1.151,1.151-1.765,1.765a.823.823,0,0,1-.461.154c.077.077.077.154.154.307.844.307,1.765.691,2.61,1a13.836,13.836,0,0,0,1.612.614.658.658,0,0,1,.461,1c-.23.537-.537.768-1.075.537-1.458-.614-2.917-1.228-4.375-1.765-.154-.077-.307-.077-.461-.154q-.691,1.612-1.382,2.993a10,10,0,0,1-.768,1.151,1.947,1.947,0,0,1-2.917.384A7.843,7.843,0,0,1-138.849,129c-.154-.154-.23-.537-.077-.614a1.671,1.671,0,0,1,.614-.384c.461-.154,1-.154,1.228-.461,1-1.151,1.919-2.379,2.917-3.608-.077-.077-.154-.077-.154-.154-.691.614-1.3,1.3-2,1.842a1.246,1.246,0,0,1-1.151.077c-.461-.384.077-.691.384-1,.461-.384.844-.768,1.382-1.228a5.01,5.01,0,0,1-.614-.537c-.691-.614-.691-1-.077-1.689.384-.461.768-1,1.075-1.382a13.7,13.7,0,0,0-1.765-.691h-.23c-.768.154-1.075-.154-1-.921a3.481,3.481,0,0,1,2.149-2.763,1.7,1.7,0,0,0,1.3-2c-.307-.077-.614,0-.844-.154s-.614-.537-.614-.768a1.929,1.929,0,0,1,.461-1.075c.077-.077.614.154.844.307a.582.582,0,0,0,.307.154c1.228-.077,1.151.844,1.075,1.612,0,.614,0,1.075.768,1.151.23,0,.537.461.614.691a4.449,4.449,0,0,1-1.228,3.684,19.908,19.908,0,0,0-1.919,2.993C-135.241,122.088-135.241,122.241-135.164,122.318Zm-1.382,6.985c1.075,0,2.226-1.458,2.456-2.993C-134.857,127.23-135.7,128.228-136.546,129.3Zm3.224-12.972-.23-.23c-.23.154-.537.23-.691.461a2.21,2.21,0,0,0-.077,1,2.391,2.391,0,0,0,.691-.537A1.9,1.9,0,0,0-133.322,116.331Zm-2,1.075-.461-.461-1.075,1.075.384.384C-136.085,118.1-135.7,117.713-135.318,117.406Z" transform="translate(144.78 -54.052)" fill="#fff"/>
      <path id="Path_202" data-name="Path 202" d="M-82.816,94.394a3.666,3.666,0,0,0,2.686-4.912,1.136,1.136,0,0,1,1.842.921,3.737,3.737,0,0,1-.077.921c-.077,1.151-.23,2.379-.307,3.531-.077.077-.154.077-.23.154l-1.151-1.151a7.029,7.029,0,0,1-3.838,3.3,3.806,3.806,0,0,1-2.763.077c-2.072-.844-3.991-2.917-2.763-5.68.384-.844.537-.921,1.228-.384,1,.921,2,1.842,1.382,3.454-.077.154.307.614.537.614.384.077,1,.307,1.075-.461l.921-5.987a4.174,4.174,0,0,0,0-1.382c0-.768.384-1.075,1.075-.921a1.682,1.682,0,0,1,1.382,2.072c-.23,1.689-.614,3.454-.921,5.143C-82.662,93.934-82.739,94.087-82.816,94.394Z" transform="translate(133.343 -48.234)" fill="#fff"/>
      <path id="Path_203" data-name="Path 203" d="M-135.185,100.957c-.077,1.535-.154,2.993-.307,4.452,0,.461.23,1.151-.537,1.151-.384,0-.844-.537-1.228-.921a6.466,6.466,0,0,1-.537-1.382,7.155,7.155,0,0,0,1.075.154c.077-.844.154-1.765.154-2.61a1.06,1.06,0,0,0-.307-.23,9.585,9.585,0,0,1-.614.921,17.533,17.533,0,0,1-1.689,1.689.7.7,0,0,1-1.151-.23c-.307-.537.23-.614.537-.844.768-.691,1.382-1.458,2.072-2.149a8.726,8.726,0,0,0,1.228-1.151c-1.3-.307-1.689-1-1.3-2.533a5.359,5.359,0,0,1,.614-1.535c.384-.768,1.228-.461,1.842-.537.23,0,.614.691.844,1.075.077.154,0,.537.077.691.614.691.307,1.151-.307,1.689-.461.307-.537.768.077,1,1.3.537,2.61,1.151,3.838,1.689.384.154.844.154,1.228.307a1.571,1.571,0,0,1,.614.614,1.066,1.066,0,0,1-.154.844,1.267,1.267,0,0,1-.921,0c-1.458-.614-2.84-1.228-4.3-1.842A4.1,4.1,0,0,0-135.185,100.957Z" transform="translate(145.108 -50.268)" fill="#fff"/>
      <path id="Path_204" data-name="Path 204" d="M-119.636,155.349c0,.307-.077.691-.077,1.151.921-.154,1.765-.23,2.533-.384.537-.077,1.075,0,1.151.614.154.614-.23.921-.921,1-.768.077-1.458.307-2.149.307-.844.077-1.075.461-1.151,1.228-.077.921-.23,1.842-.384,2.686-.077.307-.461.537-.691.768-.23-.307-.614-.691-.614-1,.614-4.375.921-8.827,2.686-12.972v-.077a10.184,10.184,0,0,1-1.612-.23,2.17,2.17,0,0,1-1.151-.844c-.154-.307.077-.844.307-1.151.307-.384.614-.077.921.23a2.593,2.593,0,0,0,1.535.461,8.455,8.455,0,0,0,1.382-.154.806.806,0,0,1,.691.384c.077.23.077.768-.154.921-1.612,1.382-1.612,3.377-2.149,5.219a12.382,12.382,0,0,1,1.689,0,2.528,2.528,0,0,1,1,.537,2.737,2.737,0,0,1-.768.844Q-118.369,155.119-119.636,155.349Z" transform="translate(140.842 -62.137)" fill="#fff"/>
      <path id="Path_205" data-name="Path 205" d="M-131.9,185.265a2.259,2.259,0,0,1,.691-.23c.307,0,.614-.077.921-.077a4.687,4.687,0,0,1-.23,1c-.077.154-.154.307-.307.307-1.458.23-1.075,1.458-1.458,2.533.614,0,1.151-.077,1.689-.077,2.226,0,4.375,0,6.6.077a1.021,1.021,0,0,1,1.075,1.151c-.154.768-.691.691-1.3.614a23.421,23.421,0,0,0-7.676-.077c-1.458.154-2.917.23-4.375.307-.537,0-1.228-.077-1.228-.768,0-.614.537-.768,1.151-.844a6.571,6.571,0,0,0,1.765-.384c.614-.23,1.3-.537,1.151-1.382a4.585,4.585,0,0,0-.461-.844c-.154-.307-.614-.614-.537-.844.077-.307.537-.461.844-.691a2.069,2.069,0,0,0,.614-.537c.154-.23.23-.614.384-.768a3.809,3.809,0,0,1,1-.23v.768A3.864,3.864,0,0,0-131.9,185.265Z" transform="translate(144.43 -70.792)" fill="#fff"/>
      <path id="Path_206" data-name="Path 206" d="M-135.817,90.272c-.691-.384-1.3-.614-1.842-.921a2.37,2.37,0,0,1-.23-3.991,5.725,5.725,0,0,1,.921-.537c.691-.384,1.612-.921,2.149-.307A3.938,3.938,0,0,1-134.2,86.9a22.857,22.857,0,0,1-.384,2.993c.384-.154.691-.307.844-.23.23.077.614.23.614.384a1.543,1.543,0,0,1-.307,1,3.028,3.028,0,0,1-1.151.461c-1.3.307-2.533.537-3.838.844-.614.154-1.228.154-1.382-.537s.384-.844,1.075-.921C-137.736,90.733-136.891,90.5-135.817,90.272Zm-1.689-2.072c.844.077,1.382.154,2,.154a8.339,8.339,0,0,0,.154-1.151C-136.124,87.586-136.738,87.816-137.505,88.2Z" transform="translate(144.972 -47.719)" fill="#fff"/>
      <path id="Path_207" data-name="Path 207" d="M-120.8,97.117c1.535.691,1.765,1.3,1.3,2.993a9.449,9.449,0,0,1-2.456,3.915,2.51,2.51,0,0,1-2.686.614c-.23-.077-.461-.307-.461-.461.077-.23.307-.537.461-.537,2.226-.384,3.147-2,3.915-3.838.307-.691.23-1.151-.614-1.382-1.3-.307-1.458-.844-.691-2a5.725,5.725,0,0,0,.537-.921l-.154-.154c-2.072-.307-2.3-.921-1.151-2.61a12.744,12.744,0,0,1,1.228-1.612c.154-.23.614-.154.921-.23a4.324,4.324,0,0,1,0,1,19.649,19.649,0,0,1-1.228,1.919c.691.384,1.919,0,1.765,1.228C-120.188,95.582-120.571,96.273-120.8,97.117Z" transform="translate(141.547 -49.268)" fill="#fff"/>
      <path id="Path_208" data-name="Path 208" d="M-124.578,141.2c1.382-.384,2.763-.691,4.145-1.075.23-.077.461-.23.691-.154.384.077.921.23,1,.461a.824.824,0,0,1-.691,1.151c-1.228.23-2.379.537-3.608.844-1.151.307-2.226.614-3.377.921a1.058,1.058,0,0,1-.691,0c-.384-.154-.921-.307-1-.614a.79.79,0,0,1,.844-1c1.3-.077,1.228-1.075,1.535-1.919-.461-.154-1-.23-1.382-.384-.23-.077-.537-.307-.537-.461,0-.23.23-.691.461-.691a20.5,20.5,0,0,1,3.07,0,2.139,2.139,0,0,1,.154,1.151,7.686,7.686,0,0,1-.768,1.612Z" transform="translate(142.254 -60.268)" fill="#fff"/>
      <path id="Path_209" data-name="Path 209" d="M-129.911,175.685c.768-.768,1.382-1.3,1.919-1.842-.077-.154-.077-.23-.154-.384-.921.077-1.919.154-2.84.23-.921.154-1.765.384-2.686.537-1.689.23-2.456,1.535-3.377,2.763-.154.23-.614.614-.844.537-.537-.23-.23-.614-.154-1.075.461-2.379,2.149-3.147,4.3-3.454,1.458-.23,2.917-.614,4.375-.921,1.3-.23,2.3.077,2.456.921a2.48,2.48,0,0,1-1.765,2.686C-128.914,175.839-129.3,175.762-129.911,175.685Z" transform="translate(144.593 -68.12)" fill="#fff"/>
      <path id="Path_210" data-name="Path 210" d="M-144.434,121.973c-.461.614-.768,1.151-1.151,1.612-.154.154-.537.154-.844.23,0-.307-.154-.691-.077-.921,1.3-2,2.61-3.915,3.915-5.833.154-.23.537-.307.768-.461a4.048,4.048,0,0,1,.23.921,2.007,2.007,0,0,1-.23.614c-1.919,2.226-1.458,4.912-1.458,7.522,0,1-.154,2.072-.23,3.07,0,.23-.384.461-.537.614-.23-.23-.537-.537-.537-.768,0-1.075.154-2.149.23-3.224C-144.357,124.2-144.434,123.2-144.434,121.973Z" transform="translate(146.528 -55.242)" fill="#fff"/>
      <path id="Path_211" data-name="Path 211" d="M-129.206,153.74a15.752,15.752,0,0,1,.614,2.149,44.87,44.87,0,0,1,.307,4.529c0,.307-.384.691-.614,1-.23-.23-.691-.461-.768-.768-.077-.844-.077-1.689-.077-2.533a25.442,25.442,0,0,0-.154-3.377c-.614.921-1.151,1.919-1.765,2.84-.154.23-.23.537-.461.691a2.262,2.262,0,0,1-1,.384c0-.384-.154-.768,0-1.075,1.228-2.072,2.533-4.145,3.838-6.14.154-.23.614-.384.921-.537a6.2,6.2,0,0,1,.077,1.151A8.323,8.323,0,0,1-129.206,153.74Z" transform="translate(143.428 -63.214)" fill="#fff"/>
      <path id="Path_212" data-name="Path 212" d="M-131.165,178.265a5.572,5.572,0,0,1-1.3-.537c-.23-.154-.461-.537-.384-.768a.882.882,0,0,1,.691-.461,14.988,14.988,0,0,1,1.765.154c.844.154,1.151.768.691,1.458a17.816,17.816,0,0,1-1.612,1.919c.23,0,.461.077.691.077a1.821,1.821,0,0,1,2.072,1.535.854.854,0,0,1-.23.768c-.23.077-.768,0-.844-.154-.461-.768-1.075-.614-1.765-.614a4.666,4.666,0,0,1-1.458-.077c-1-.23-1.075-.921-.384-1.612C-132.546,179.417-131.932,178.879-131.165,178.265Z" transform="translate(143.544 -69.165)" fill="#fff"/>
      <path id="Path_213" data-name="Path 213" d="M-132.235,172.392c-.691-.461-1.228-.768-1.765-1.151a5.1,5.1,0,0,1,1.535-.844c.614-.077,1.228.23,1.075,1C-131.39,171.7-131.851,172.008-132.235,172.392Z" transform="translate(143.616 -67.743)" fill="#fff"/>
    </g>
  </g>
</svg>
