<svg xmlns="http://www.w3.org/2000/svg" width="160" height="132" viewBox="0 0 160 132">
  <g id="LOGO_ARIES" transform="translate(-0.221)">
    <rect id="Rectangle_154" data-name="Rectangle 154" width="160" height="132" transform="translate(0.221)" fill="none"/>
    <g id="Group_91" data-name="Group 91" transform="translate(45 14)">
      <path id="Path_254" data-name="Path 254" d="M-169,430c.4-.4.4-.6.6-.6,2.1-1.2,1.7-1.3.5-3.1-1.1-1.6-2.3-3.1-3.4-4.6s-.9-2.3.4-3.5c1.6-1.5,1.7-1.9.4-3.5a6.4,6.4,0,0,1-1-7,15.474,15.474,0,0,0,.7-4.3,8.233,8.233,0,0,1,1.7-4.8,6.169,6.169,0,0,0,1-6.5,14.972,14.972,0,0,1-.6-3.3,15.65,15.65,0,0,0,2.7.5,3.611,3.611,0,0,0,1.8-.3c2.3-1.9,4.6-3.9,6.8-5.9a4.738,4.738,0,0,0,1.2-1.9c1-2.7,2.7-4.5,5.7-4.9.4-.1.8-.3,1.2-.4a1.093,1.093,0,0,0,.9-1.5,8.6,8.6,0,0,1-.1-1.6c0-1.1.6-2,1.8-1.9a41.339,41.339,0,0,0,11-1.7c1.2-.3,2.7.3,4.1.7,2.7.6,5.3,1.3,7.9,2a5.71,5.71,0,0,1,2.1,1.3,13.734,13.734,0,0,1,1.3,2,4.368,4.368,0,0,0,3.1,2.5c1.6.3,1.8.7,1.5,2.3a1.966,1.966,0,0,0,1.1,2.3,5.359,5.359,0,0,0,1.1.5,2.914,2.914,0,0,1,2.1,2.9,12.412,12.412,0,0,0,1.1,3.6,34.627,34.627,0,0,0,4.2,7.8c2.1,2.7,2.1,5.4.7,9.3a4.435,4.435,0,0,1,2.2,4.7,2.373,2.373,0,0,1-1.6,2.3c-.8.3-1.5.8-2.5,1.3a22.277,22.277,0,0,1,3,1.3,20.246,20.246,0,0,1,2.6,2c-.9.2-1.5.4-2.2.5l-.3,4.2c0,.4-.4.9-.4,1.3a14.919,14.919,0,0,0,.2,2.1,36.073,36.073,0,0,1-3.9,2.2,8.083,8.083,0,0,1-2.7.5c-1.8.3-2,.7-1.1,2.2.4.7.7,1.5,1.1,2.4a6.384,6.384,0,0,1-1.4,0c-1.4-.6-2.3.2-3.2,1.1a29.559,29.559,0,0,1-2.6,2.4c-1,.8-1.8,1.5-1.7,2.9a7.368,7.368,0,0,0-1.4.4,4.776,4.776,0,0,0-.4-1.8,7.407,7.407,0,0,0-1.8-2.1c-1.2-.7-2-.3-2.6,1a4.179,4.179,0,0,1-.4,1c-.4.7-.9,1.2-1.9.7a2.25,2.25,0,0,0-1.8,0c-1.7,1.3-3.4.7-5.1.2a10.412,10.412,0,0,1-1.2-.5c-.1.5-.3,1.1-.4,1.6-.1,1-.8,1.4-1.6,1.1-2-.8-4-1.7-6-2.6-.3-.1-.4-.7-.7-1.1-.5.5-1.1,1-1.6,1.6a1.4,1.4,0,0,1-2.3,0c-.5-.5-.9-1.1-1.4-1.5a22.6,22.6,0,0,0-2.6-1.6c-.1,0-.2,0-.2-.1-1.5-1.6-2.6-.6-3.8.4a1.807,1.807,0,0,1-2.2.2,9.51,9.51,0,0,0-2.4-.7,1.738,1.738,0,0,1-1.6-1.7c0-.3-.4-.6-.6-.9a11.4,11.4,0,0,1-1-1.9,1.5,1.5,0,0,0-1.7-1.4A10.207,10.207,0,0,1-169,430Zm39.1-25.2a14.718,14.718,0,0,0,0,2.1c.2,1.9.9,3.7,2.8,4.5a5.008,5.008,0,0,0,5.6-.8,11.743,11.743,0,0,0,4.2-11.2,3.659,3.659,0,0,0-2.5-3.2,1.555,1.555,0,0,1-.8-.6,2.052,2.052,0,0,0-3-.6,12.776,12.776,0,0,0-3.2,2.4,22.9,22.9,0,0,0-4.7,8.5c-1.4,5-2.9,10-4.4,15a9.432,9.432,0,0,1-1,2.3c-.6,1-1.3,1-1.9-.1a6.191,6.191,0,0,1-.7-1.9c-1.2-4.3-2.3-8.6-3.5-12.8a9.987,9.987,0,0,1-.3-4.2c1-6.5-2.3-9.9-8.7-9.4-5.3.4-8.8,4.2-8.3,9.1a8.349,8.349,0,0,1-.3,3.5c-1.3,4.3,2.9,8.9,7.5,8.3.3,0,.7-.1,1-.1,4,.3,6.3-1.3,7.2-5.3a17.232,17.232,0,0,1,.7-2.1c1.1,3.9,2,7.7,2.9,11.5a24.736,24.736,0,0,0,1.5,4.6c.9,1.9,3.1,1.9,4.2.1a8.488,8.488,0,0,0,.9-2.2c1-3.4,1.9-6.8,2.8-10.1a6.9,6.9,0,0,1,.4-1c.2.5.3.8.4,1.1,1.7,4.6,5.6,5.9,9.7,3.3,5.8-3.6,9.3-11.8,8-18.5-.4-1.9-1.3-3.5-3.3-3.9a18.484,18.484,0,0,0-4.7,0c-.4,0-.7.4-1,.7,3.9-1.3,6.1-.3,6.8,3.4a18.318,18.318,0,0,1-.2,8.4c-.9,3.3-2.3,6.4-5.3,8.4a5.676,5.676,0,0,1-8.8-3A8.3,8.3,0,0,1-129.9,404.8Zm7-28.9c-.4-.9-.8-1.5-1.2-2.3C-124.9,374.8-124.8,375.2-122.9,375.9Zm-16.2,31.9c-.5-.3-.8-.6-1.1-.8-.2.2-.5.5-.4.6a2.757,2.757,0,0,0,.7.9A6.531,6.531,0,0,1-139.1,407.8Zm3.8,1a3.549,3.549,0,0,0,.8-1.2c0-.2-.3-.4-.5-.7-.2.3-.5.6-.7.9C-135.8,408.1-135.6,408.4-135.3,408.8Z" transform="translate(172.115 -369.119)" fill="#fff"/>
      <path id="Path_255" data-name="Path 255" d="M-153.5,457.3c1.1-.1,2.1-.2,3.4-.3-.5-1.8-1-3.6-1.6-5.3a.367.367,0,0,1-.3-.1,18.027,18.027,0,0,0-.8,2.1c-.9,3.2-1.8,6.5-2.8,9.7-.1.4-.5.6-.7,1-.1-.1-.2-.1-.3-.2a2.719,2.719,0,0,1,0-.9c1.2-4,2.4-8.1,3.6-12.1a1.722,1.722,0,0,1,1.2-1,1.543,1.543,0,0,1,1.1,1c1.2,4,2.4,8,3.5,12,.1.3-.2.7-.3,1a6.034,6.034,0,0,1-.8-.8,31.726,31.726,0,0,1-1.2-4.1c-.2-1.2-.8-1.4-1.8-1.3a6.552,6.552,0,0,1-1.4,0,1.8,1.8,0,0,1-.9-.4C-153.5,457.6-153.5,457.5-153.5,457.3Z" transform="translate(172.115 -369.119)" fill="#fff"/>
      <path id="Path_256" data-name="Path 256" d="M-142.6,457.5a11.2,11.2,0,0,1,2.7,5.7c.1.3-.2.7-.3,1.1-.2-.3-.6-.5-.7-.8-.6-1.4-1-2.8-1.7-4.2a2.155,2.155,0,0,0-2.5-1.3v6.3c-.1.1-.3.1-.4.2-.2-.3-.6-.6-.6-.9-.1-4.1-.2-8.1-.3-12.2,0-.9.4-1.2,1.2-1.1s1.7.1,2.5.2a2.228,2.228,0,0,1,2.1,1.9A4.073,4.073,0,0,1-142.6,457.5Zm-2.6-3.5h0a6.559,6.559,0,0,0,.1,2,1.12,1.12,0,0,0,.7.8,2.642,2.642,0,0,0,3-2.3c.2-1.8-.6-3-2.4-3.2-.9-.1-1.6.1-1.4,1.3A6.535,6.535,0,0,1-145.2,454Z" transform="translate(172.115 -369.119)" fill="#fff"/>
      <path id="Path_257" data-name="Path 257" d="M-122.2,454.6c-1.2-.1-.9-.9-.9-1.5,0-1.9-1.3-2.8-2.8-2-1.1.5-1.3,2.8-.2,3.8.8.8,1.8,1.5,2.7,2.3,1.5,1.2,2,4.7.9,6.2-.7,1-3.3,1.1-4.5.3a2.881,2.881,0,0,1-.2-3.9,10.4,10.4,0,0,1,.2,1.5,1.766,1.766,0,0,0,2,1.9c1.4,0,1.8-.4,1.9-1.9a3.561,3.561,0,0,0-1.8-3.7c-1.5-1-3.1-2-3.3-4.1-.1-1.3.3-2.7,1.3-3.2a3.511,3.511,0,0,1,3.7.2C-121.9,451.6-122.2,453.1-122.2,454.6Z" transform="translate(172.115 -369.119)" fill="#fff"/>
      <path id="Path_258" data-name="Path 258" d="M-132.4,451.3v4.1c1.2.1,2.3.1,3.7.2-1.2,1.4-2.5.5-3.5,1v5.8c.9,1.1,2.6-.4,3.3,1.5h-4c-.2,0-.5-.6-.5-1-.1-3.9-.1-7.8-.1-11.6,0-.8.3-1.2,1.1-1.2a24.317,24.317,0,0,1,2.7,0c.3,0,.6.4.9.6a1.905,1.905,0,0,1-1,.5A11.737,11.737,0,0,1-132.4,451.3Z" transform="translate(172.115 -369.119)" fill="#fff"/>
      <path id="Path_259" data-name="Path 259" d="M-135.1,464.1c-1,0-2.1.1-3.2.2,0-.1-.1-.2-.1-.4a10.907,10.907,0,0,1,1.1-.6c-.1-3.6-.2-7.2-.4-10.9,0-.5-.8-1-1.3-1.7,1.1-.6,2.5-.1,4.1-.4-.3.5-.5.8-.6.8-1,0-1.1.7-1.1,1.5.2,3.2.3,6.5.5,9.7C-136.2,462.9-135.6,463.4-135.1,464.1Z" transform="translate(172.115 -369.119)" fill="#fff"/>
      <path id="Path_260" data-name="Path 260" d="M-149.2,468.7a13.124,13.124,0,0,1,2.5.6,6.949,6.949,0,0,1-.4,1.7c.2.3.4.9.7,1.5-.1.1-.2.1-.3.2-.4-.6-.9-1.3-1.3-1.9-.1,0-.2.1-.3.1,0,.5-.1,1.1-.1,1.6h-.4A31.8,31.8,0,0,1-149.2,468.7Z" transform="translate(172.115 -369.119)" fill="#fff"/>
      <path id="Path_261" data-name="Path 261" d="M-138.9,472.6a11.217,11.217,0,0,0-.5-1.3c-.4,0-.8-.1-1.3-.1-.2.5-.3,1-.5,1.4a.367.367,0,0,1-.3-.1c.1-1.2-.1-2.4.7-3.4.2-.2,1.3-.2,1.3,0,.4,1.1.7,2.3,1,3.4A.756.756,0,0,0-138.9,472.6Zm-.6-1.9.3-.3-.9-1.2c-.3.4-.6.8-1,1.3C-140.3,470.6-139.9,470.6-139.5,470.7Z" transform="translate(172.115 -369.119)" fill="#fff"/>
      <path id="Path_262" data-name="Path 262" d="M-145.1,469h1.9a.367.367,0,0,0,.1.3,6.47,6.47,0,0,0-1.3.4c0,.1-.1.2-.1.4.5.2.9.4,1.6.7a10.26,10.26,0,0,1-1.4.4c0,.9,0,.9,1.5,1.4-.6.1-1.3.1-2,.2C-144.9,471.4-145,470.2-145.1,469Z" transform="translate(172.115 -369.119)" fill="#fff"/>
      <path id="Path_263" data-name="Path 263" d="M-150.3,469.4c-1.7,0-2.2.4-2.2,1.4s.1,1.1,2.4,1.3a1.772,1.772,0,0,1-2.6-.1,2.255,2.255,0,0,1,.2-2.7C-151.8,469-151.1,468.5-150.3,469.4Z" transform="translate(172.115 -369.119)" fill="#fff"/>
      <path id="Path_264" data-name="Path 264" d="M-127,472.6c-.1-1.4-.2-2.5-.2-3.7.5-.1,1.1-.1,1.6-.2,0,.1.1.2.1.3-.4.1-.8.3-1.2.4,0,.3.1.6.1,1h1.2v.2c-.4.1-.7.3-1.1.4,0,1,0,1,1.3,1.5C-125.8,472.5-126.3,472.6-127,472.6Z" transform="translate(172.115 -369.119)" fill="#fff"/>
      <path id="Path_265" data-name="Path 265" d="M-130.1,472.7c-.3-1.2-.7-2.4-1-3.6.1,0,.2-.1.3-.1.3.8.6,1.7,1,2.7.4-1.1.7-2,1-2.8.1.1.3.1.4.2-.4,1.2-.8,2.5-1.3,3.7C-129.8,472.7-129.9,472.7-130.1,472.7Z" transform="translate(172.115 -369.119)" fill="#fff"/>
      <path id="Path_266" data-name="Path 266" d="M-136.3,472.6c-.1-.7-.1-1.3-.2-2s.3-1.7-1.4-1.3l.4-.4h2.5v.2a8.108,8.108,0,0,1-1.1.3c.1,1.1.1,2.1.2,3.2Z" transform="translate(172.115 -369.119)" fill="#fff"/>
      <path id="Path_267" data-name="Path 267" d="M-133.4,472.6c-.1-1.3-.2-2.5-.3-3.8.1,0,.4-.1.9-.2-.2,1.3-.6,2.6.6,3.8A7.384,7.384,0,0,1-133.4,472.6Z" transform="translate(172.115 -369.119)" fill="#fff"/>
      <path id="Path_268" data-name="Path 268" d="M-129.9,404.8a9.116,9.116,0,0,0-.2,6.1,5.692,5.692,0,0,0,8.8,3c3-2,4.4-5,5.3-8.4a19.842,19.842,0,0,0,.2-8.4c-.7-3.7-2.9-4.7-6.8-3.4.3-.2.7-.7,1-.7a24.593,24.593,0,0,1,4.7,0c2,.4,3,2,3.3,3.9,1.3,6.7-2.2,14.9-8,18.5-4.1,2.6-8.1,1.3-9.7-3.3-.1-.3-.2-.6-.4-1.1a6.894,6.894,0,0,0-.4,1c-.9,3.4-1.8,6.8-2.8,10.1a8.489,8.489,0,0,1-.9,2.2c-1.1,1.8-3.3,1.8-4.2-.1a22.533,22.533,0,0,1-1.5-4.6c-.9-3.8-1.8-7.6-2.9-11.5-.2.7-.5,1.4-.7,2.1-.9,4-3.1,5.6-7.2,5.3-.3,0-.7.1-1,.1-4.6.6-8.8-4-7.5-8.3a8.35,8.35,0,0,0,.3-3.5c-.5-4.9,3-8.8,8.3-9.1,6.5-.5,9.7,3,8.7,9.4a9.871,9.871,0,0,0,.3,4.2c1.2,4.3,2.3,8.6,3.5,12.8a14.579,14.579,0,0,0,.7,1.9c.6,1,1.3,1.1,1.9.1a9.432,9.432,0,0,0,1-2.3c1.5-5,2.9-10,4.4-15a21.576,21.576,0,0,1,4.7-8.5,14.882,14.882,0,0,1,3.2-2.4,2.131,2.131,0,0,1,3,.6,1.555,1.555,0,0,0,.8.6,3.659,3.659,0,0,1,2.5,3.2,11.663,11.663,0,0,1-4.2,11.2,5.008,5.008,0,0,1-5.6.8c-1.9-.8-2.6-2.5-2.8-4.5A6.48,6.48,0,0,0-129.9,404.8Zm-14.8-1.8c.4-3.7-1.4-6.6-4.6-7.4-3.3-.8-9.6,2.2-9.4,7.5.1,4.3,2.1,7.7,5.2,10.6a1.971,1.971,0,0,0,1.5.3c4.2-1.5,8.1-5,6.1-11a6.509,6.509,0,0,0-3.5-4.4,4.685,4.685,0,0,0-4.7.7c-1.3,1-1.1,2.5-.8,3.9a35.8,35.8,0,0,0,1.1,3.5,1.921,1.921,0,0,0,3,1,4.728,4.728,0,0,0,2.4-5.4c-.2-1.1-.9-1.4-1.9-1.2-2.1.4-2.8,2-1.7,3.8.5.7,1,1.3,1.5,2a4.717,4.717,0,0,1-3-3c-.3-1.1-.4-2.2.8-2.9,1.4-.8,2.8-1.7,4.5-.9a1.834,1.834,0,0,1,.7,1c.9,3.3-.1,6.9-4,8.1a2.873,2.873,0,0,1-3.6-1.4,11.091,11.091,0,0,1-1.5-7.1,3.373,3.373,0,0,1,.9-2c2.2-2,7.1-2.7,9.4.9A26.036,26.036,0,0,1-144.7,403Zm22.6-1.6c-.6-.1-1.2-.5-1.5-.3-1.6.7-3,3.4-2.8,5.2.1,1.2.7,1.5,1.7.9,2.5-1.4,4.8-6.3,4.4-9.1a1.417,1.417,0,0,0-1.6-1.4,4.664,4.664,0,0,0-4.6,2.3,22.287,22.287,0,0,0-2.2,6.1c-.6,3.1,1.9,5.2,4.9,4.7a5.387,5.387,0,0,0,4.4-3.4,10.992,10.992,0,0,0,.8-6.9,4.594,4.594,0,0,0-.7-1.6,2.25,2.25,0,0,0-.1,1.4,10.152,10.152,0,0,1-4.6,9.3c-1.7.9-2.8.4-3.2-1.4-.7-3.5.9-5.3,3.7-6.6C-122.4,400-122,400.4-122.1,401.4Zm-37.8,5.8c-1.3,2.6,1.8,7.2,4.7,7.1C-156.7,412-158.4,409.6-159.9,407.2Z" transform="translate(172.115 -369.119)"/>
      <path id="Path_269" data-name="Path 269" d="M-122.9,375.9c-1.9-.6-2.1-1-1.2-2.3A24.2,24.2,0,0,1-122.9,375.9Z" transform="translate(172.115 -369.119)"/>
      <path id="Path_270" data-name="Path 270" d="M-139.1,407.8a6.527,6.527,0,0,0-.8.7c-.2-.3-.5-.6-.7-.9-.1-.1.3-.4.4-.6A7.633,7.633,0,0,1-139.1,407.8Z" transform="translate(172.115 -369.119)"/>
      <path id="Path_271" data-name="Path 271" d="M-135.3,408.8c-.2-.5-.5-.8-.4-.9.1-.3.5-.6.7-.9.2.2.5.5.5.7C-134.7,408-135,408.3-135.3,408.8Z" transform="translate(172.115 -369.119)"/>
      <path id="Path_272" data-name="Path 272" d="M-144.7,403a33.1,33.1,0,0,0-1.5-3.3c-2.3-3.6-7.2-2.9-9.4-.9a3.672,3.672,0,0,0-.9,2,11.091,11.091,0,0,0,1.5,7.1,2.8,2.8,0,0,0,3.6,1.4c3.9-1.2,4.9-4.8,4-8.1a1.834,1.834,0,0,0-.7-1c-1.7-.8-3.1.1-4.5.9-1.2.7-1.1,1.8-.8,2.9a4.505,4.505,0,0,0,3,3c-.5-.7-1-1.3-1.5-2-1.2-1.8-.5-3.5,1.7-3.8a1.418,1.418,0,0,1,1.9,1.2,4.844,4.844,0,0,1-2.4,5.4,1.97,1.97,0,0,1-3-1,14.25,14.25,0,0,1-1.1-3.5c-.3-1.4-.5-2.8.8-3.9a4.467,4.467,0,0,1,4.7-.7c2,.8,2.9,2.5,3.5,4.4,1.9,6-2,9.5-6.1,11a1.625,1.625,0,0,1-1.5-.3c-3-2.9-5-6.3-5.2-10.6-.2-5.2,6.1-8.2,9.4-7.5C-146.1,396.4-144.2,399.3-144.7,403Z" transform="translate(172.115 -369.119)" fill="#fff"/>
      <path id="Path_273" data-name="Path 273" d="M-122.1,401.4c0-1-.4-1.4-1.4-.9-2.8,1.3-4.4,3.1-3.7,6.6.4,1.8,1.5,2.3,3.2,1.4a9.856,9.856,0,0,0,4.6-9.3,2.327,2.327,0,0,1,.1-1.4,7.741,7.741,0,0,1,.7,1.6,10.277,10.277,0,0,1-.8,6.9,5.679,5.679,0,0,1-4.4,3.4c-3.1.5-5.5-1.7-4.9-4.7a22.287,22.287,0,0,1,2.2-6.1,4.671,4.671,0,0,1,4.6-2.3,1.537,1.537,0,0,1,1.6,1.4c.4,2.8-1.9,7.7-4.4,9.1-1,.6-1.6.3-1.7-.9-.2-1.8,1.2-4.5,2.8-5.2A11.31,11.31,0,0,1-122.1,401.4Z" transform="translate(172.115 -369.119)" fill="#fff"/>
      <path id="Path_274" data-name="Path 274" d="M-159.9,407.2c1.6,2.4,3.2,4.8,4.7,7.1C-158.1,414.4-161.2,409.8-159.9,407.2Z" transform="translate(172.115 -369.119)" fill="#fff"/>
    </g>
  </g>
</svg>
