<svg xmlns="http://www.w3.org/2000/svg" width="160" height="132" viewBox="0 0 160 132">
  <g id="LOGO_ISD" transform="translate(-0.5)">
    <rect id="Rectangle_157" data-name="Rectangle 157" width="160" height="132" transform="translate(0.5)" fill="none"/>
    <g id="Group_94" data-name="Group 94" transform="translate(32 19)">
      <g id="Group_73" data-name="Group 73" transform="translate(0 67.458)">
        <g id="Group_70" data-name="Group 70" transform="translate(0 18.3)">
          <path id="Path_155" data-name="Path 155" d="M31.7,124.3v7.2h-.5v-7.2Z" transform="translate(-31.2 -124.2)" fill="#fff"/>
          <path id="Path_156" data-name="Path 156" d="M33.2,131.5v-7.2h2.9c2.2,0,3.4,1.1,3.4,3.4,0,2.5-1.1,3.8-3.4,3.8Zm2.9-.5c1.9,0,2.8-1.1,2.8-3.3,0-2-.9-2.9-2.8-2.9H33.8v6.3h2.3Z" transform="translate(-31.2 -124.2)" fill="#fff"/>
          <path id="Path_157" data-name="Path 157" d="M45.5,124.3v.5H41.3v2.9h4v.5h-4v3h4.3v.5H40.8v-7.2h4.7Z" transform="translate(-31.2 -124.2)" fill="#fff"/>
          <path id="Path_158" data-name="Path 158" d="M46.3,131.5l3.2-7.2h.6l3.3,7.2h-.6l-1.1-2.4H48.6l.2-.5h2.7l-1.7-3.9-3,6.8Z" transform="translate(-31.2 -124.2)" fill="#fff"/>
          <path id="Path_159" data-name="Path 159" d="M56.7,131.3v-.5a10.075,10.075,0,0,0,2.5.3c1.5,0,2.2-.6,2.2-1.8q0-1.2-1.5-1.2H58.3c-1.3,0-2-.6-2-1.8,0-1.4,1-2.1,2.9-2.1a8.524,8.524,0,0,1,2.3.3v.5a9.079,9.079,0,0,0-2.3-.3c-1.6,0-2.4.6-2.4,1.7,0,.8.5,1.3,1.5,1.3h1.6c1.3,0,2,.6,2,1.7,0,1.5-.9,2.2-2.7,2.2A10.075,10.075,0,0,1,56.7,131.3Z" transform="translate(-31.2 -124.2)" fill="#fff"/>
          <path id="Path_160" data-name="Path 160" d="M68,124.3v.5H65.5v6.7H65v-6.7H62.6v-.5Z" transform="translate(-31.2 -124.2)" fill="#fff"/>
          <path id="Path_161" data-name="Path 161" d="M68.5,127.9c0-2.4,1.2-3.7,3.6-3.7s3.5,1.2,3.5,3.7c0,2.4-1.2,3.6-3.5,3.6C69.7,131.6,68.5,130.3,68.5,127.9Zm3.6,3.2c2,0,3-1.1,3-3.2s-1-3.2-3-3.2-3,1.1-3,3.2S70.1,131.1,72.1,131.1Z" transform="translate(-31.2 -124.2)" fill="#fff"/>
          <path id="Path_162" data-name="Path 162" d="M76.9,131.5v-7.2h3c1.3,0,1.9.6,1.9,1.7q0,1.5-2.1,2.1l2.4,3.3h-.7L79,128.1v-.4c1.5-.2,2.2-.8,2.2-1.7s-.5-1.3-1.4-1.3H77.5v6.7h-.6Z" transform="translate(-31.2 -124.2)" fill="#fff"/>
          <path id="Path_163" data-name="Path 163" d="M87.7,124.3v.5H83.5v2.9h4v.5h-4v3h4.3v.5H83v-7.2h4.7Z" transform="translate(-31.2 -124.2)" fill="#fff"/>
          <path id="Path_164" data-name="Path 164" d="M91.6,131.5v-7.2h2.9c2.2,0,3.4,1.1,3.4,3.4,0,2.5-1.1,3.8-3.4,3.8Zm2.9-.5c1.9,0,2.8-1.1,2.8-3.3,0-2-.9-2.9-2.8-2.9H92.2v6.3h2.3Z" transform="translate(-31.2 -124.2)" fill="#fff"/>
          <path id="Path_165" data-name="Path 165" d="M103.8,124.3v.5H99.6v2.9h4v.5h-4v3h4.3v.5H99.1v-7.2h4.7Z" transform="translate(-31.2 -124.2)" fill="#fff"/>
          <path id="Path_166" data-name="Path 166" d="M105.2,131.3v-.5a10.075,10.075,0,0,0,2.5.3c1.5,0,2.2-.6,2.2-1.8q0-1.2-1.5-1.2h-1.6c-1.3,0-2-.6-2-1.8,0-1.4,1-2.1,2.9-2.1a8.524,8.524,0,0,1,2.3.3v.5a9.079,9.079,0,0,0-2.3-.3c-1.6,0-2.4.6-2.4,1.7,0,.8.5,1.3,1.5,1.3h1.6c1.3,0,2,.6,2,1.7,0,1.5-.9,2.2-2.7,2.2A10.075,10.075,0,0,1,105.2,131.3Z" transform="translate(-31.2 -124.2)" fill="#fff"/>
          <path id="Path_167" data-name="Path 167" d="M112.4,124.3v7.2h-.5v-7.2Z" transform="translate(-31.2 -124.2)" fill="#fff"/>
          <path id="Path_168" data-name="Path 168" d="M119.4,131.2a6.279,6.279,0,0,1-1.9.3c-2.6,0-3.9-1.2-3.9-3.7,0-2.4,1.3-3.5,3.8-3.5a6.448,6.448,0,0,1,2,.3v.5a6.8,6.8,0,0,0-1.9-.3c-2.2,0-3.3,1-3.3,3.1,0,2.2,1.1,3.3,3.2,3.3a10.4,10.4,0,0,0,1.5-.2v-2.6h.5v2.8Z" transform="translate(-31.2 -124.2)" fill="#fff"/>
          <path id="Path_169" data-name="Path 169" d="M120.8,131.5v-7.2h.7l4.8,6.2v-6.2h.5v7.2h-.4l-5-6.6v6.6Z" transform="translate(-31.2 -124.2)" fill="#fff"/>
        </g>
        <g id="Group_72" data-name="Group 72" transform="translate(0.096)">
          <g id="Group_71" data-name="Group 71">
            <path id="Path_170" data-name="Path 170" d="M38.3,110.5a1.135,1.135,0,0,1,.8.3.908.908,0,0,1,.3.7V114a.908.908,0,0,1-.3.7,1.08,1.08,0,0,1-.7.3H33.6a11.705,11.705,0,0,1-.4,2.6c-.3,1.2-.7,1.9-1.1,2a.9.9,0,0,1-.5-.1.631.631,0,0,1-.2-.9,7.693,7.693,0,0,0,1-4.2v-3.1a1.061,1.061,0,0,1,.9-.9h5Zm-4.5-1.7a4.274,4.274,0,0,1-2.2.7c-.2-.1-.3-.2-.3-.4v-.5c.1-.2.2-.2.4-.3a12.215,12.215,0,0,0,3.8-1.9c.2-.1.3-.2.5-.2s.3,0,.4.1a10.616,10.616,0,0,0,3.4,1.5c.2,0,.3.1.4.3a.9.9,0,0,1,.1.5c0,.2-.1.3-.3.4-.1,0-.2.1-.3.1a10.034,10.034,0,0,1-3.5-1.5c-.1,0-.2-.1-.3-.1a.367.367,0,0,0-.3.1,7.418,7.418,0,0,1-1.6,1,.215.215,0,0,1-.2.2.367.367,0,0,1,.3-.1H38c.2,0,.3,0,.4.1s.1.2.1.4,0,.3-.1.4a.52.52,0,0,1-.4.2H34.1a.52.52,0,0,1-.4-.2c-.1-.1-.1-.2-.1-.4-.1-.1,0-.2.2-.4Zm-.3,3.5h4.7v-.5a.265.265,0,0,0-.3-.3H33.8a.265.265,0,0,0-.3.3v.5Zm4.7,1H33.5v.7h4.4a.265.265,0,0,0,.3-.3Zm.3,6.3h-4a.55.55,0,0,1-.5-.3.844.844,0,0,1-.2-.7v-2a.764.764,0,0,1,.2-.5.735.735,0,0,1,.6-.2h4a1.445,1.445,0,0,1,.7.2.551.551,0,0,1,.2.5v2a.908.908,0,0,1-.3.7A1.329,1.329,0,0,1,38.5,119.6Zm-.7-2.6H35.3c-.2,0-.3,0-.3.1-.1.1-.1.2-.1.4v.6c0,.2,0,.3.1.3a.367.367,0,0,0,.3.1h2.5c.1,0,.3,0,.3-.1a.367.367,0,0,0,.1-.3v-.6a.367.367,0,0,0-.1-.3C38.1,117,38,117,37.8,117Zm5.5-10.1a.694.694,0,0,1,.6-.7.52.52,0,0,1,.4.2.764.764,0,0,1,.2.5v11.5a1.357,1.357,0,0,1-.7,1.3.952.952,0,0,1-.7.2c-1.5-.1-2.3-.3-2.5-.7a.454.454,0,0,1,0-.5,1.38,1.38,0,0,1,.3-.4.454.454,0,0,1,.5,0,6.964,6.964,0,0,0,1.4.3.758.758,0,0,0,.4-.2c.1-.1.1-.2.1-.4V106.9Zm-1.3,1V116a.694.694,0,0,1-.6.7.52.52,0,0,1-.4-.2.764.764,0,0,1-.2-.5v-8.1c0-.2.1-.3.2-.5a.764.764,0,0,1,.5-.2.52.52,0,0,1,.4.2C41.9,107.6,42,107.7,42,107.9Z" transform="translate(-31.296 -105.9)" fill="#fff"/>
            <path id="Path_171" data-name="Path 171" d="M55,118.3H50.3a.6.6,0,0,1,0-1.2H55v-1H51.5a.713.713,0,0,1-.6-.3.844.844,0,0,1-.2-.7v-3.3a1.421,1.421,0,0,1,.2-.6.735.735,0,0,1,.6-.2H55v-.7H50.6a.6.6,0,0,1,0-1.2H55v-.9H50.3c-.3,0-.4.1-.4.4v5.1a13.3,13.3,0,0,1-.6,4.2,9.751,9.751,0,0,1-.6,1.4.536.536,0,0,1-.4.3.9.9,0,0,1-.5-.1.633.633,0,0,1-.1-.9,13.762,13.762,0,0,0,1-5.2v-5.3a1.884,1.884,0,0,1,.2-.8,1.136,1.136,0,0,1,.8-.3h4.9a1.44,1.44,0,0,1,.2-.9.764.764,0,0,1,.5-.2.52.52,0,0,1,.4.2,1.44,1.44,0,0,1,.2.9h5a.694.694,0,0,1,.7.6c0,.2-.1.4-.2.4a.764.764,0,0,1-.5.2H56.3v.9h4.4c.2,0,.3,0,.4.1a.6.6,0,0,1-.4,1H56.3v.7h3.4a1.445,1.445,0,0,1,.7.2c.2.1.2.3.2.6V115a.908.908,0,0,1-.3.7.864.864,0,0,1-.6.3H56.3v1h4.6c.2,0,.3,0,.4.1a.6.6,0,0,1-.4,1H56.3v1.2a.694.694,0,0,1-.6.7.52.52,0,0,1-.4-.2.764.764,0,0,1-.2-.5A2.787,2.787,0,0,1,55,118.3Zm0-5.2v-.8H52.4c-.2,0-.3,0-.3.1-.1.1-.1.2-.1.4v.4h3Zm0,1.9v-.8H51.9v.4c0,.2,0,.3.1.3a.367.367,0,0,0,.3.1Zm1.3-2.8v.8h3.2v-.4a.354.354,0,0,0-.4-.4Zm0,2v.8H59a.438.438,0,0,0,.3-.1.367.367,0,0,0,.1-.3v-.4Z" transform="translate(-31.296 -105.9)" fill="#fff"/>
            <path id="Path_172" data-name="Path 172" d="M75.9,119.6H65.8a1.135,1.135,0,0,1-.8-.3.909.909,0,0,1-.4-.8V108a1.613,1.613,0,0,1,.3-.9,1.136,1.136,0,0,1,.8-.3H75.8a1.222,1.222,0,0,1,.9.4,1.136,1.136,0,0,1,.3.8v10.5a1.032,1.032,0,0,1-1.1,1.1Zm-1.1-11v.3h.3c.2,0,.3,0,.4.1a.6.6,0,0,1-.4,1H72.3a19.79,19.79,0,0,0,.7,4,14.861,14.861,0,0,0,1.1-2.8c0-.2.1-.3.3-.4a.3.3,0,0,1,.4,0,.265.265,0,0,1,.3.3.3.3,0,0,1,0,.4,13.549,13.549,0,0,1-1.7,3.8v.1a8.789,8.789,0,0,1,.5,1c.1.1.1.1.2.1a.1.1,0,0,0,.1-.1c0-.3.1-.6.1-1a.707.707,0,0,1,.6-.6.758.758,0,0,1,.4.2c.1.1.1.2.1.4,0,1.4-.2,2.2-.5,2.4a.764.764,0,0,1-.5.2,1.445,1.445,0,0,1-.7-.2,4.031,4.031,0,0,1-1.1-1.4c-.9,1.2-1.5,1.9-1.9,1.9a.707.707,0,0,1-.6-.6c0-.2.3-.6,1-1.1-.5.1-1.6.3-3.4.6a2.975,2.975,0,0,1-1.4,0,.52.52,0,0,1-.2-.4c0-.2,0-.3.1-.4a.758.758,0,0,1,.4-.2,21.162,21.162,0,0,0,4-.7h.5a1.381,1.381,0,0,1,.3.4v.3s.2-.3.6-.8a15.011,15.011,0,0,1-1-5.2H66.6a.6.6,0,0,1,0-1.2H71v-1H66.2a1.007,1.007,0,0,0-.3.1.367.367,0,0,0-.1.3V118a.354.354,0,0,0,.4.4h9c.1,0,.3,0,.3-.1a.367.367,0,0,0,.1-.3v-9.6a.354.354,0,0,0-.4-.4h-.9C74.6,108,74.7,108.2,74.8,108.6Zm-4.6,6.2H67.3a.764.764,0,0,1-.5-.2.735.735,0,0,1-.2-.6v-2.4a.684.684,0,0,1,.7-.7h2.9a1.445,1.445,0,0,1,.7.2.764.764,0,0,1,.2.5V114a.864.864,0,0,1-.3.6A.735.735,0,0,1,70.2,114.8Zm-.7-3H68.1c-.2,0-.3,0-.3.1a.367.367,0,0,0-.1.3v1.1a.354.354,0,0,0,.4.4h1.4c.1,0,.3,0,.3-.1a.367.367,0,0,0,.1-.3v-1.1a.367.367,0,0,0-.1-.3A.438.438,0,0,0,69.5,111.8Zm3.9-3.8c0-.1.1-.1,0,0l-1.1-.1v1h1.4Z" transform="translate(-31.296 -105.9)" fill="#fff"/>
            <path id="Path_173" data-name="Path 173" d="M91.7,112.2a11.9,11.9,0,0,1-2.2-3.3,10.249,10.249,0,0,1-2.4,3.6c-1,.9-1.6,1.3-2,1.2-.2,0-.3-.1-.4-.3a.9.9,0,0,1-.1-.5c0-.2.1-.3.3-.4a15.258,15.258,0,0,0,1.6-1.1,12.752,12.752,0,0,0-1.7-1,.619.619,0,0,1-.4.2.55.55,0,0,1-.5-.3l-.2.5a2.252,2.252,0,0,0-.1.7,5.134,5.134,0,0,1,1,2.4,2.459,2.459,0,0,1-.4,2.3,2.493,2.493,0,0,1-2.2.3v2.9a.694.694,0,0,1-.6.7.52.52,0,0,1-.4-.2.764.764,0,0,1-.2-.5V107.5a.845.845,0,0,1,.2-.6,1.421,1.421,0,0,1,.6-.2h2.1a.844.844,0,0,1,.7.2c.2.2.3.3.3.5a.9.9,0,0,1-.1.5l-.5,1.6a7.3,7.3,0,0,0,.9-1,8.1,8.1,0,0,0,.6-1.3q.15-.45.9-.6h2.7a.445.445,0,0,1,.6.2l.1.1c.1.1.1.2.2.3a8.931,8.931,0,0,0,1.2,2.6h0a10.32,10.32,0,0,0,1.3-1.7V108H91.3a.52.52,0,0,1-.4-.2c-.1-.1-.1-.2-.1-.4s0-.3.1-.4.2-.1.4-.1h2.1a.6.6,0,0,1,.6.3.854.854,0,0,1,0,.7,9.4,9.4,0,0,1-2,2.7,10.455,10.455,0,0,0,1.9,1.7.536.536,0,0,1,.3.4c0,.2,0,.3-.1.4a.52.52,0,0,1-.4.2c-.3,0-.9-.4-1.7-1.2a.367.367,0,0,1,.1.3.52.52,0,0,1-.2.4.758.758,0,0,1-.4.2H88c-.2,0-.4-.1-.4-.2a.758.758,0,0,1-.2-.4.52.52,0,0,1,.2-.4.758.758,0,0,1,.4-.2h3.5C91.5,112.1,91.6,112.1,91.7,112.2Zm-8.6-4.3h-.7c-.2,0-.3,0-.3.1a.367.367,0,0,0-.1.3v6.9a2.3,2.3,0,0,0,.9.3c.2,0,.3,0,.4-.1h0c.6-.7.4-1.7-.5-3.2-.4-.5-.5-1-.3-1.3l.9-2.6C83.5,108,83.4,107.9,83.1,107.9Zm3.5,8.5c.1-.2.3-.2.4-.3a.6.6,0,0,1,.4.1.52.52,0,0,1,.2.4c0,.2,0,.4-.2.5a6.16,6.16,0,0,1-1.4,1.4q-1.35,1.05-1.8.9-.3-.15-.3-.3a.454.454,0,0,1,0-.5.781.781,0,0,1,.4-.4A5.167,5.167,0,0,0,86.6,116.4Zm2.6-.8H85.8c-.2,0-.4-.1-.4-.2a.5.5,0,0,1,0-.8.758.758,0,0,1,.4-.2h7.6a.52.52,0,0,1,.4.2.758.758,0,0,1,.2.4.52.52,0,0,1-.2.4.758.758,0,0,1-.4.2h-3v3.2a1.309,1.309,0,0,1-.6,1.2,2.307,2.307,0,0,1-1.7.1c-.8-.1-1.2-.3-1.4-.6a.454.454,0,0,1,0-.5q.15-.3.3-.3a.454.454,0,0,1,.5,0,4.91,4.91,0,0,0,1.2.3.367.367,0,0,0,.3-.1c.1-.1.1-.2.1-.4v-2.9Zm-3-5.7c.4.3.8.5,1.1.7.2-.2.3-.4.5-.6a7.447,7.447,0,0,0-1.8-.9c-.1.2-.2.3-.3.5A2.186,2.186,0,0,0,86.2,109.9Zm1.2-1.3a7.255,7.255,0,0,1,.9.5,3.632,3.632,0,0,0,.3-1.1c0-.1-.1-.2-.3-.2H86.9c-.3,0-.4.1-.4.3h0C86.7,108.2,87,108.4,87.4,108.6Zm4.1,8.6c-.1-.2-.2-.3-.2-.5a.52.52,0,0,1,.2-.4.758.758,0,0,1,.4-.2c.2,0,.3.1.5.2a15.444,15.444,0,0,1,1.7,2.2.9.9,0,0,1,.1.5c0,.2-.1.3-.3.4a.756.756,0,0,1-.4.1c-.2,0-.3-.2-.4-.3C92.4,118.3,91.9,117.6,91.5,117.2Z" transform="translate(-31.296 -105.9)" fill="#fff"/>
            <path id="Path_174" data-name="Path 174" d="M97.1,108.8h4.7a.52.52,0,0,1,.4.2.758.758,0,0,1,.2.4.52.52,0,0,1-.2.4.758.758,0,0,1-.4.2H97.1c-.2,0-.4-.1-.4-.2a.5.5,0,0,1,0-.8A.4.4,0,0,1,97.1,108.8Zm3.7,10.9H97.9a.713.713,0,0,1-.6-.3.844.844,0,0,1-.2-.7v-3.5a1.421,1.421,0,0,1,.2-.6.735.735,0,0,1,.6-.2h2.9a1.445,1.445,0,0,1,.7.2c.2.1.2.3.2.6v3.5a.908.908,0,0,1-.3.7Zm-3-9.1h3.4c.2,0,.3,0,.4.1a.6.6,0,0,1-.4,1H97.8a.568.568,0,0,1-.4-1A1.034,1.034,0,0,1,97.8,110.6Zm0,1.9h3.4c.2,0,.3,0,.4.1a.6.6,0,0,1-.4,1H97.8a.568.568,0,0,1-.4-1C97.4,112.5,97.6,112.5,97.8,112.5Zm0-5.7h3.4a.52.52,0,0,1,.4.2.758.758,0,0,1,.2.4.52.52,0,0,1-.2.4.758.758,0,0,1-.4.2H97.8c-.2,0-.4-.1-.4-.2a.6.6,0,0,1,.4-1Zm2.3,8.7H98.7c-.2,0-.3,0-.3.1-.1.1-.1.2-.1.4v2.1c0,.2,0,.3.1.3a.367.367,0,0,0,.3.1h1.4a.438.438,0,0,0,.3-.1.367.367,0,0,0,.1-.3V116a.367.367,0,0,0-.1-.3C100.4,115.5,100.2,115.5,100.1,115.5Zm5.7,2.7a4.129,4.129,0,0,1-1.1.7,9.289,9.289,0,0,1-2.1,1h-.5c-.2-.1-.3-.2-.3-.4V119a1.381,1.381,0,0,1,.4-.3c.9-.4,1.8-.8,2.7-1.3-.2-.2-.3-.4-.5-.5-1.2-1.4-1.7-2.3-1.6-2.7a.536.536,0,0,1,.3-.4.6.6,0,0,1,.4-.1.781.781,0,0,1,.4.4,14.594,14.594,0,0,0,1.8,2.6,7.316,7.316,0,0,0,1.9-2.8v-.2c0-.1-.1-.1-.3-.1h-4.2c-.2,0-.4-.1-.4-.2a.758.758,0,0,1-.2-.4.52.52,0,0,1,.2-.4.758.758,0,0,1,.4-.2h5a.779.779,0,0,1,.7.3.972.972,0,0,1,.1.9,9.412,9.412,0,0,1-2.3,3.9,9.969,9.969,0,0,0,3.1,1.3,2.186,2.186,0,0,1,.5.3.9.9,0,0,1,.1.5,1.38,1.38,0,0,1-.3.4c-.1,0-.2.1-.3.1A14.021,14.021,0,0,1,105.8,118.2ZM105,108c-.3,0-.4.1-.4.4v.3a4.314,4.314,0,0,1-1.4,3.2c-.2.1-.3.2-.5.2s-.3-.1-.4-.3c-.2-.3-.1-.6.2-.9a3.253,3.253,0,0,0,1-2.6V108a1.884,1.884,0,0,1,.2-.8,1.136,1.136,0,0,1,.8-.3h2.6a1.032,1.032,0,0,1,1.1,1.1v2.2a.354.354,0,0,0,.4.4h.1c.1,0,.2-.1.3-.1a.367.367,0,0,0,.1-.3V110a.764.764,0,0,1,.2-.5c.1-.1.2-.1.4-.1a.52.52,0,0,1,.4.2.764.764,0,0,1,.2.5v.3a1.357,1.357,0,0,1-.7,1.3,1.884,1.884,0,0,1-.8.2h-.6a1.1,1.1,0,0,1-1-.6,1.421,1.421,0,0,1-.2-.6v-2.1c0-.1-.1-.2-.1-.3a.367.367,0,0,0-.3-.1H105Z" transform="translate(-31.296 -105.9)" fill="#fff"/>
            <path id="Path_175" data-name="Path 175" d="M113.5,108.6h6a.52.52,0,0,1,.4.2.758.758,0,0,1,.2.4.52.52,0,0,1-.2.4.758.758,0,0,1-.4.2h-6c-.2,0-.4-.1-.4-.2a.5.5,0,0,1,0-.8A.758.758,0,0,1,113.5,108.6Zm5,11h-4a.908.908,0,0,1-.7-.3,1.08,1.08,0,0,1-.3-.7v-3a1.025,1.025,0,0,1,1-1h4a.908.908,0,0,1,.7.3,1.08,1.08,0,0,1,.3.7v3a1.025,1.025,0,0,1-1,1Zm-4.4-12.8h4.6a.52.52,0,0,1,.4.2.758.758,0,0,1,.2.4.52.52,0,0,1-.2.4.758.758,0,0,1-.4.2h-4.6c-.2,0-.4-.1-.4-.2a.5.5,0,0,1,0-.8C113.8,106.8,113.9,106.8,114.1,106.8Zm.1,3.9h4.4a.52.52,0,0,1,.4.2.758.758,0,0,1,.2.4.52.52,0,0,1-.2.4.758.758,0,0,1-.4.2h-4.4c-.2,0-.4-.1-.4-.2a.5.5,0,0,1,0-.8A.758.758,0,0,1,114.2,110.7Zm0,1.9h4.4a.52.52,0,0,1,.4.2.758.758,0,0,1,.2.4.52.52,0,0,1-.2.4.758.758,0,0,1-.4.2h-4.4c-.2,0-.4-.1-.4-.2a.5.5,0,0,1,0-.8A.4.4,0,0,1,114.2,112.6Zm3.6,3.2h-2.6c-.1,0-.3,0-.3.1a.367.367,0,0,0-.1.3v1.7a.354.354,0,0,0,.4.4h2.6a1.007,1.007,0,0,0,.3-.1.367.367,0,0,0,.1-.3v-1.7a.354.354,0,0,0-.4-.4Zm4.9-4.3h-2.4c-.2,0-.3-.1-.5-.2a.764.764,0,0,1-.2-.5.52.52,0,0,1,.2-.4.764.764,0,0,1,.5-.2h2.4v-3.5c0-.2.1-.3.2-.5a.764.764,0,0,1,.5-.2.52.52,0,0,1,.4.2.764.764,0,0,1,.2.5v3.5h2.3a.52.52,0,0,1,.4.2.764.764,0,0,1,.2.5c0,.2-.1.3-.2.5a.758.758,0,0,1-.4.2H124v7.9a.694.694,0,0,1-.6.7.52.52,0,0,1-.4-.2.764.764,0,0,1-.2-.5C122.7,116.8,122.7,114.2,122.7,111.5Z" transform="translate(-31.296 -105.9)" fill="#fff"/>
          </g>
        </g>
      </g>
      <g id="Group_86" data-name="Group 86" transform="translate(13.5)">
        <path id="Path_176" data-name="Path 176" d="M50.5,47.9A2.845,2.845,0,0,0,48.2,49a2.959,2.959,0,0,1,1-.2,3.116,3.116,0,0,1,3.1,3.1,3.456,3.456,0,0,1-.7,2A3.13,3.13,0,0,0,53.7,51,3.2,3.2,0,0,0,50.5,47.9Z" transform="translate(-44.7 -38.442)" fill="#fff"/>
        <path id="Path_177" data-name="Path 177" d="M50.5,55.7a2.462,2.462,0,0,0-2,1,1.7,1.7,0,0,1,.7-.1,2.647,2.647,0,0,1,2.6,2.6v27a3.022,3.022,0,0,1-.5,1.6,2.58,2.58,0,0,0,1.9-2.5v-27A2.734,2.734,0,0,0,50.5,55.7Z" transform="translate(-44.7 -38.442)" fill="#fff"/>
        <g id="Group_74" data-name="Group 74" transform="translate(13 4.43)">
          <path id="Path_178" data-name="Path 178" d="M65.7,45.9l11.7-2.1a2.588,2.588,0,0,1,3,2.1,2.753,2.753,0,0,1-.5,2A2.461,2.461,0,0,0,81.7,45a2.666,2.666,0,0,0-3-2.1L67.1,45A11.841,11.841,0,0,0,62,47.3,14.909,14.909,0,0,1,65.7,45.9Z" transform="translate(-57.7 -42.872)" fill="#fff"/>
          <path id="Path_179" data-name="Path 179" d="M58.9,84.9,70.6,87a4.014,4.014,0,0,0,3.4-.8l.3-.3a4.722,4.722,0,0,1-2.4.2L60.2,84a2.446,2.446,0,0,0-2.5,1A4.869,4.869,0,0,1,58.9,84.9Z" transform="translate(-57.7 -42.872)" fill="#fff"/>
          <path id="Path_180" data-name="Path 180" d="M71.4,65.2H67.7a5.335,5.335,0,0,1-5.3-5.3V56.8a7.014,7.014,0,0,1,2.5-5.2A7.32,7.32,0,0,0,61,57.7v3.1a5.335,5.335,0,0,0,5.3,5.3H70A10.392,10.392,0,0,1,80.4,76.5v6.6a9.309,9.309,0,0,1-3.2,7.1h0c.5-.3.9-.6,1.4-.9a9.309,9.309,0,0,0,3.2-7.1V75.6A10.457,10.457,0,0,0,71.4,65.2Z" transform="translate(-57.7 -42.872)" fill="#fff"/>
        </g>
        <g id="Group_75" data-name="Group 75" transform="translate(41.3)">
          <path id="Path_181" data-name="Path 181" d="M87.2,90l14.9,2.7a4.014,4.014,0,0,0,3.4-.8l.3-.3a4.438,4.438,0,0,1-2.3.2L88.6,89.1a2.446,2.446,0,0,0-2.5,1A3.75,3.75,0,0,1,87.2,90Z" transform="translate(-86 -38.442)" fill="#fff"/>
          <path id="Path_182" data-name="Path 182" d="M110.1,40.5a9.218,9.218,0,0,0-7.6-1.9L87.6,41.3a2.475,2.475,0,0,0-1.6,1c.1,0,.2,0,.2-.1l14.9-2.7a8.957,8.957,0,0,1,10.8,9V88.8a9.309,9.309,0,0,1-3.2,7.1h0c.5-.3.9-.6,1.4-.9a9.309,9.309,0,0,0,3.2-7.1V47.6A9.309,9.309,0,0,0,110.1,40.5Z" transform="translate(-86 -38.442)" fill="#fff"/>
        </g>
        <g id="Group_84" data-name="Group 84" transform="translate(0 1.7)">
          <g id="Group_79" data-name="Group 79" transform="translate(0 9.558)">
            <g id="Group_76" data-name="Group 76">
              <circle id="Ellipse_5" data-name="Ellipse 5" cx="3.1" cy="3.1" r="3.1" fill="#fff"/>
            </g>
            <g id="Group_78" data-name="Group 78" transform="translate(0.5 7.8)">
              <g id="Group_77" data-name="Group 77">
                <path id="Path_183" data-name="Path 183" d="M47.8,89.7a2.647,2.647,0,0,1-2.6-2.6v-27a2.6,2.6,0,0,1,5.2,0v27A2.647,2.647,0,0,1,47.8,89.7Z" transform="translate(-45.2 -57.5)" fill="#fff"/>
              </g>
            </g>
          </g>
          <g id="Group_81" data-name="Group 81" transform="translate(9.772 4.505)">
            <g id="Group_80" data-name="Group 80">
              <path id="Path_184" data-name="Path 184" d="M70.1,93.2a11.019,11.019,0,0,1-1.8-.2L56.6,90.9a2.589,2.589,0,1,1,.9-5.1L69.3,88a4.014,4.014,0,0,0,3.4-.8A3.815,3.815,0,0,0,74,84V77.4a5.335,5.335,0,0,0-5.3-5.3H65A10.392,10.392,0,0,1,54.6,61.7V58.6a12.272,12.272,0,0,1,9.9-11.8l11.7-2.1a2.589,2.589,0,0,1,.9,5.1L65.4,51.9a7.241,7.241,0,0,0-5.6,6.7v3.1A5.335,5.335,0,0,0,65.1,67h3.7A10.392,10.392,0,0,1,79.2,77.4V84A9.309,9.309,0,0,1,76,91.1,9.073,9.073,0,0,1,70.1,93.2Z" transform="translate(-54.472 -44.647)" fill="#fff"/>
            </g>
          </g>
          <g id="Group_83" data-name="Group 83" transform="translate(38.047)">
            <g id="Group_82" data-name="Group 82">
              <path id="Path_185" data-name="Path 185" d="M101.6,98.9a11.019,11.019,0,0,1-1.8-.2L84.9,96a2.589,2.589,0,0,1,.9-5.1l14.9,2.7a4.014,4.014,0,0,0,3.4-.8,3.944,3.944,0,0,0,1.3-3.2V49.4a4.448,4.448,0,0,0-1.3-3.2,4.378,4.378,0,0,0-3.4-.8L85.8,48.1a2.589,2.589,0,1,1-.9-5.1l14.9-2.7a8.957,8.957,0,0,1,10.8,9V89.6a9.309,9.309,0,0,1-3.2,7.1A8.415,8.415,0,0,1,101.6,98.9Z" transform="translate(-82.747 -40.142)" fill="#fff"/>
            </g>
          </g>
        </g>
        <g id="Group_85" data-name="Group 85" transform="translate(0 11.258)">
          <circle id="Ellipse_6" data-name="Ellipse 6" cx="3.1" cy="3.1" r="3.1" fill="#fff"/>
        </g>
      </g>
    </g>
  </g>
</svg>
