<svg id="LOGO_文化部" xmlns="http://www.w3.org/2000/svg" width="160" height="132" viewBox="0 0 160 132">
  <rect id="Rectangle_155" data-name="Rectangle 155" width="160" height="132" fill="none"/>
  <g id="Group_92" data-name="Group 92" transform="translate(3 34)">
    <g id="Group_68" data-name="Group 68" transform="translate(0 30.625)">
      <g id="Group_67" data-name="Group 67">
        <g id="Group_64" data-name="Group 64" transform="translate(0 2.475)">
          <path id="Path_138" data-name="Path 138" d="M-161,110.5c.1.1.1,0,.2,0,0,0,0,.1.1,0h.4a.1.1,0,0,1,.1-.1h.3v.1h.5a.1.1,0,0,0,.1.1h.3a.1.1,0,0,0,.1-.1c.1,0,.1.1.2.1h.2s.1.1.1,0l.1.1c.1,0,.1,0,.2.1h.1a.349.349,0,0,0,.2.1v.1h.7l.1.1c.1,0,.2,0,.2.1h.1c.1,0,0,.2.1.1a.1.1,0,0,0,.1.1.1.1,0,0,0,.1.1c.1,0,.1,0,.1.1h.1l.1.1c.1,0,.1.1.2,0l.1.1h.1l.1.1c0,.1.1.1,0,.2l.1.1c0,.1.1.1,0,.2,0,.1.1.2.1.3h0c0,.2.1.2.1.4.1,0,0,.1,0,.1l.1.1h0c0,.1,0,.1.1.1,0,.1,0,.1.1.2h0a.1.1,0,0,0,.1.1c0,.1.1.1,0,.2h.1a.1.1,0,0,0,.1.1.1.1,0,0,0,.1.1h0l.1.1a.1.1,0,0,0,.1.1h.1c0,.1.1.1.2.1h.1a.1.1,0,0,0,.1.1h0c0,.1.1,0,.1.1h.1c0-.1.1,0,.2-.1h.2a.1.1,0,0,1,.1-.1s.1.1.1,0a.6.6,0,0,0,.4-.1h.1l.1.1c.1,0,.1.1.1,0l.1.1h.3l.1.1h.1c.1,0,.1,0,.2.1.1,0,.2,0,.2.1h.3c.1,0,0,.1.1.1h.2v.1h.2l.1.1h0l.1.1c.1,0,.2.1.3,0,.1,0,.1.1.2.1s.1,0,.1.1h.2l.2.2h.2l.1.1h0l.1.1h.1c0,.1.1.1.2.2a.367.367,0,0,1,.3.1h.1c.1,0,.1.1.2.1s.1,0,.1-.1h.2c.2,0,.2.1.3.2h.1l.1.1c.1,0,.1,0,.1.1h.1l.1.1h.2v.1h.2s.2.1.2-.1h.1l.1.1c.1,0,.1.1.2.1h.2a.1.1,0,0,1,.1.1h.2a.1.1,0,0,0,.1.1h.3v.1h.1a.1.1,0,0,1,.1.1h.1s.1.1.1,0l.1.1c.1,0,.1,0,.2.1.1,0,.1.1.1,0l.1.1h.1a.1.1,0,0,1,.1-.1h.2c.1,0,0,.1.1.1h0l.1.1h.1c0,.1.1.1.1.2h0v.1a.1.1,0,0,0,.1.1c0,.2.1.2.2.3,0,.1,0,.1.1.1v.1a.1.1,0,0,0,.1.1v.2h0v.3s-.1,0,0,.1h-.1c0,.1-.1.1-.2.2h0c0,.1-.1,0-.1,0a.1.1,0,0,1-.1.1h0l-.1.1h-.1c-.1,0,0,.2-.1.1-.1,0-.1.1-.2.1a.349.349,0,0,0-.2.1h-.2l-.1.1-.1.1a.1.1,0,0,0-.1.1h-.3a.367.367,0,0,1-.3-.1c-.1,0-.2,0-.2-.1h-.1c0-.1-.1-.1-.2-.1h-.2a.349.349,0,0,0-.2-.1l-.1-.1c-.1,0-.3,0-.3-.1h0l-.1-.1c-.1,0-.1,0-.2-.1h-.2c-.1,0,0-.2-.1-.1h0l-.1-.1h0v-.1h-.1a.1.1,0,0,0-.1-.1c-.1,0-.1.1-.2,0h-.2l-.1-.1c-.1,0,0-.1-.1-.1h-.4c-.1,0-.3,0-.3-.1h0s-.1-.1-.1,0c-.1,0-.1,0-.2-.1-.1,0-.1,0-.2-.1h0l-.2-.2h-.4a.349.349,0,0,0-.2-.1h-.8l-.1.1h0a.1.1,0,0,0-.1.1h-.1a.1.1,0,0,0-.1.1h0l-.2.2h0c0,.1-.1.1-.1.2s0,.1-.1.2l-.1.1-.1.1v.1h0v.2h-.1v.1a.1.1,0,0,0-.1.1l-.1.1c0,.1,0,.1-.1.1l-.1.1a.1.1,0,0,1-.1.1h-.1a.1.1,0,0,0-.1.1c-.1,0-.1.1-.2.1,0,.1-.1.1-.1.2h-.1l-.1.1v.1h-.1l-.1.1h0l-.3.3a.1.1,0,0,0-.1.1h0l-.1.1v.2c0,.1,0,.1.1.2a.1.1,0,0,0-.1.1h0c-.1,0-.1.1-.2.1v.4h0v.2l-.1.1-.1.1c0,.1-.1.1,0,.1l-.1.1h0l-.1.1c0,.1-.1.2,0,.3l-.1.1v.4h0v.1s.1,0,0,.1v.2h0v.1a.1.1,0,0,0,.1.1h0l.2.2c0,.1,0,.1.1.1h0a.1.1,0,0,0,.1.1c0,.1,0,.1.1.1v.1c.1,0,.2.1.3,0,.1,0,.1.2.2.2l.1.1h0l.1.1h0l.1.1c.1,0,.1.2.2.1,0,.1,0,.1.1.1,0,.1.1.1.2.2,0,.1,0,.1.1.1h0c0,.1.1.1.2.1,0,.1,0,.1.1.1a.215.215,0,0,0,.2.2.1.1,0,0,0,.1.1v.1h.1c0,.1.1.1.2.2.1,0,.1,0,.1.1h.1c0,.1.1.1.2.1v.1c.1,0,.1.1.2.1s.1,0,.2.1c.1-.1.2.1.2.1h.1l.1.1c.1,0,.1.1.1,0l.1.1h.3l.2.2h.2a.1.1,0,0,1,.1.1h.4v.1c.1,0,.1.1.2.1l.1.1h0l.1.1a.1.1,0,0,1,.1.1c.1,0,.1.1.2.1s.1.1.2.1c.1-.1.2.2.3.2h1.2c.1,0,.1,0,.2-.1h.3c.1,0,.2,0,.2.1h0c0,.1.1,0,.1.1h.1s.1.1.1,0h.3l.1.1h0l.1.1h0a.1.1,0,0,0,.1.1l.2.2s.1.2.2.2l.1-.1a.1.1,0,0,0,.1.1h.1a.1.1,0,0,1,.1.1v.1h.2l.1-.1h.2a.1.1,0,0,1,.1.1h.2s0,.1.1,0,0,.1.1.1l.1.1c.1-.1.2.1.2,0l.1.1c.1,0,.1,0,.2.1h.1s.1.1.1,0c0,.1,0,.1.1.1h.3a.1.1,0,0,1,.1.1h0l.1.1h.3s0,.1.1,0h.4s.1.1.1,0l.1.1a.1.1,0,0,1,.1-.1h.1a.1.1,0,0,0,.1-.1h.8s0,.1.1,0c0,.1.1.1.2.1l.1.1h.2a.1.1,0,0,0,.1.1h0l.1.1c.1,0,.1.1.2,0h.4s.1.1.1,0a.349.349,0,0,0,.2.1h.2a.1.1,0,0,1,.1.1h.1a.1.1,0,0,0,.1.1h.3l.1.1h.1s0,.1.1,0l.1.1h.1a.1.1,0,0,0,.1-.1h.9a.1.1,0,0,0,.1-.1h.2a.1.1,0,0,0,.1.1l.1-.1h.1a.1.1,0,0,1,.1-.1c.1,0,.2,0,.2-.1.1,0,.1,0,.1-.1l.1-.1h.1l.1.1h.1a.1.1,0,0,0,.1-.1h.1c.1.1.2,0,.4,0,0,.1.1.1.2,0h1.1s.1.1.1,0h.1a.367.367,0,0,1,.3.1h.3a.1.1,0,0,1,.1.1h.1a.1.1,0,0,0,.1.1h0c0,.1.1.1.2.2v.1h.1c.1,0,0,.1.1.1,0,.1.1.1.1.2l.1.1v.4h-.1l-.1.1h0a.1.1,0,0,0-.1.1c0,.1-.1.1-.1.2h0l-.1.1c0,.1,0,.1-.1.1l-.3.3h0c-.1,0-.1.1-.2.1v.1c-.1,0-.1,0-.1.1h0c-.1,0-.1.1-.2.1l-.1.1c-.1,0-.2,0-.2.1l-.1.1c-.1,0-.1.1-.2,0a.1.1,0,0,0-.1.1h-.3a.1.1,0,0,0-.1.1c-.1,0-.1.1-.2,0,0,.1-.1.1-.1.2a.1.1,0,0,0-.1.1c-.1,0-.1,0-.1.1a.1.1,0,0,0-.1.1h0l-.1.1v.1c-.1,0-.2,0-.2.1l-.1.1v.1c-.1,0-.1.1-.2.2h-.1v.1a.1.1,0,0,0-.1.1.1.1,0,0,0-.1.1h0l-.3.3c-.1,0-.1,0-.1.1s-.2,0-.2.1a.1.1,0,0,0-.1.1c-.1,0-.1,0-.2.1h-.1c-.1,0-.1.2-.2.2s0,.1-.1.1c-.1.1-.2.1-.2.2h-.1v.1a.1.1,0,0,0-.1.1h0l-.1.1v.1h-.1c0,.1-.1.1-.2.1h0a.1.1,0,0,1-.1.1h0a.1.1,0,0,0-.1.1c-.1,0-.1,0-.1.1-.1,0-.1,0-.2.1h-.1v.1h-.1a.1.1,0,0,1-.1.1h-.3a.1.1,0,0,1-.1.1c-.1,0-.2-.1-.2.1-.2,0-.3,0-.4.1-.2,0-.2.1-.3.1a.1.1,0,0,0-.1.1h0c-.1,0-.1.1-.2.1a.1.1,0,0,0-.1.1c-.1,0-.1,0-.1.1h0c-.1.1-.2,0-.3.1h-.5v-.1h-.1a.1.1,0,0,0-.1-.1v-.1h-.1a.1.1,0,0,0-.1-.1h-.2a.1.1,0,0,0-.1-.1c0-.1,0-.1-.1-.1h-.1c-.1-.1-.1-.1-.2-.1l-.2-.2h-.2l-.1-.1c-.1,0-.1-.1-.2-.1h-.1l-.1-.1h0l-.3-.3h-.1a.349.349,0,0,0-.1-.2v-.1c0-.1-.1-.1-.2-.2,0-.1-.1-.1-.1-.2h0a.1.1,0,0,0-.1-.1.1.1,0,0,0-.1-.1h-.2a.1.1,0,0,0-.1-.1.1.1,0,0,0-.1-.1h0a.1.1,0,0,0-.1-.1l-.2-.2c0-.1,0-.1-.1-.1v-.1h-.1a.1.1,0,0,1-.1-.1l-.1-.1h0c-.1,0-.1-.2-.2-.2v-.1h0V135l-.1-.1h-.1l-.1-.1c0-.1,0-.1-.1-.1l-.1-.1h-.1l-.1-.1c-.1,0-.1-.1-.2-.1a.1.1,0,0,0-.1-.1l-.1-.1h-.1a.1.1,0,0,0-.1-.1c0-.2-.1-.2-.3-.2a.1.1,0,0,0-.1-.1.1.1,0,0,0-.1-.1.1.1,0,0,0-.1-.1v-.1h-.1a.1.1,0,0,1-.1-.1h0l-.1-.1a.1.1,0,0,0-.1-.1c0-.1-.1-.1-.1-.2h0l-.1-.1c0-.1,0-.1-.1-.1a.1.1,0,0,0-.1-.1h0l-.3-.3h0l-.3-.3V132c0-.1-.1,0-.1-.1s-.1-.1-.1-.2h-.1c0-.1-.1-.1-.1-.2h0a.1.1,0,0,0-.1-.1v-.1c0-.1-.1-.1-.1-.2h0a.1.1,0,0,0-.1-.1.1.1,0,0,0-.1-.1v-.1h-.1c0-.1,0-.3-.2-.2,0-.1,0-.2-.2-.1,0-.1,0-.1-.1-.1,0-.1,0-.2-.1-.1a.1.1,0,0,1-.1-.1h-.1c0-.1,0-.1-.1-.2-.1,0-.1,0-.2-.1-.1,0-.1,0-.2-.1h-.3c0-.1-.1-.1-.2,0h-.2c-.1,0-.4.1-.5,0h-.2s0-.1-.1,0c-.1,0-.1-.1-.2-.1h-.1a.215.215,0,0,0-.2-.2h0l-.1-.1a.349.349,0,0,0-.2-.1c0-.1-.1-.1-.2-.1a.1.1,0,0,0-.1-.1h-.1c0-.1-.1-.1-.2-.1l-.1-.1h0l-.1-.1v-.1c0-.1-.1-.1-.2-.1-.1-.1-.1-.2-.3-.2l-.1-.1c-.1,0-.1-.1-.2,0l-.1-.1h-.4c-.1-.1-.4,0-.5-.1h-.2l-.1-.1h-.1v-.1h-.1c0-.1,0-.1-.1-.1s0-.1-.1-.1-.1-.1-.2,0v-.1l-.1-.1-.1-.1c0-.1-.1-.1-.2-.2h0a.1.1,0,0,1-.1-.1V127h0l-.1-.1c-.1,0-.1-.1-.2,0l-.1-.1h0c0-.1-.1-.1-.2-.1h0c-.1,0-.1-.1-.2-.2v-.1h-.3a.1.1,0,0,0-.1-.1c-.1.1-.1-.1-.2-.1h-.3c-.1,0-.1-.1-.1-.2h-.8c-.1,0-.2,0-.2.1h-.1l-.3.3c-.1,0-.1,0-.1.1l-.2.2h0a.139.139,0,0,0-.2,0,.349.349,0,0,0-.2.1h-.3a.367.367,0,0,0-.3.1h0a.1.1,0,0,0-.1.1.1.1,0,0,0-.1.1c-.1,0-.1,0-.1.1h-.4c-.1,0,0,0-.1.1h-.1a.1.1,0,0,1-.1.1.1.1,0,0,0-.1.1.1.1,0,0,0-.1.1c-.1,0-.1,0-.1.1h-.1c-.1,0-.1.2-.2.2l-.1.1c-.1,0-.2,0-.2.1v.1c-.1,0-.1,0-.1.1h0a.1.1,0,0,0-.1.1h-.2c-.1,0-.1.1-.2.1s-.2,0-.2.1h-.2a.1.1,0,0,1-.1.1h-.1l-.1.1a.1.1,0,0,0-.1.1h-.1l-.1.1v.1h-.1l-.1.1c-.1,0-.1,0-.1.1a.1.1,0,0,0-.1.1l-.2.2c-.2,0-.2.2-.4.2h0a.1.1,0,0,0-.1.1.1.1,0,0,0-.1.1.1.1,0,0,0-.1.1h0l-.1.1h-.1a.1.1,0,0,0-.1.1h-.2l-.1.1h-.3s0-.1-.1,0h-.1a.1.1,0,0,0-.1.1h-.4l-.1.1c-.1,0-.1-.1-.2,0h-.1a.1.1,0,0,0-.1.1c-.1,0-.2,0-.2.1h-.5a.1.1,0,0,1-.1-.1h-.2c-.1,0-.2,0-.2.1h-.2v.1c-.1,0-.1.1-.2,0h-.1c-.1,0-.1.1-.2.2-.1,0-.2,0-.2.1s-.1.1-.2.2h-.1l-.1.1h0c-.1,0-.1.1-.2.1v.1c-.1-.1-.1,0-.1.1h0s-.2,0-.2.1h0l-.1.1c0,.1-.1.1-.1.2-.1,0-.1,0-.1.1-.2,0-.5-.1-.6.1h0l-.2.2h-.1a.1.1,0,0,0-.1.1h0c-.1,0-.1.1-.2.1a.1.1,0,0,0-.1.1h0l-.1.1a.1.1,0,0,0-.1.1h-.1a.1.1,0,0,0-.1.1.1.1,0,0,0-.1.1h-.1l-.1.1h-.1c-.1,0-.1.1-.2.1s-.2,0-.2.1h-.1l-.1.1c-.1,0-.2,0-.2.1h0l-.1.1h-.3a.1.1,0,0,0-.1.1h-.2c-.1,0-.2.1-.3.2h-.1l-.1.1h-.1c-.2-.1-.3.1-.4.2h-.2l-.1.1c0-.1-.1,0-.1,0h-.4l-.1.1c-.1,0-.2,0-.2.1h0l-.1.1h0l-.1.1c-.1,0-.1.1-.1.2h-.1a.1.1,0,0,0-.1.1c0,.1,0,.2-.1.2v.1h-.1l-.2.2h-.3a.1.1,0,0,0-.1.1c-.1,0-.2,0-.2.1h-.2l-.1.1h0a.1.1,0,0,0-.1.1h-.5c0-.1-.1.1-.1.1s0-.1-.1,0h-.2c-.1,0-.1-.1-.1,0h0l-.1-.1h-.4l-.1-.1h0l-.1-.1c-.1,0-.1-.1-.2-.1h-.1l-.1-.1h-.1l-.4-.4h0c0-.1-.1-.1-.1-.2V135c0-.1-.1-.1-.1-.2v-.1h0s-.1-.1,0-.1v-.4h0v-.1h0v-.5c-.1,0,0-.1,0-.2l-.1-.1c.1-.1-.1-.1,0-.2h-.1c-.1-.1,0-.2-.1-.3v-.1c-.1-.1,0-.1,0-.2v-.1h0s.1-.1,0-.1h0v-.1h0V132h0v-1.8l-.1-.1V130h-.1c0-.1-.1-.1-.2-.2,0-.1,0-.2-.1-.2,0-.1,0-.1-.1-.1.1-.1,0-.1-.1-.2h0a.1.1,0,0,1-.1-.1l-.1-.1.1-.1h0v-.3l-.1-.1s.1-.1,0-.1h0v-.1h0c.1-.1.2-.3.3-.3s0,0,.1-.1h.2s.1-.1.1,0h.1a.1.1,0,0,1,.1-.1c.1,0,.1,0,.1.1.1,0,.2,0,.2.1h.2a.1.1,0,0,1,.1.1v.1c.1,0,.1,0,.1.1h.1c0,.1.1.1.1,0l.1.1h0a.1.1,0,0,0,.1.1.1.1,0,0,1,.1.1v.1h.1v.1c.1,0,.1.1.2,0,0,.1.1.3.2.2,0,.1,0,.2.1.1,0,0,.1.1.1,0l.1.1h0a.1.1,0,0,0,.1.1c.1,0,.1.1.2.1v.1h.1v.1h.1a.1.1,0,0,1,.1.1.1.1,0,0,0,.1.1c.1,0,.1,0,.1.1.1,0,.1.1.2.2h0c0,.1.1.1.1.2h.1c0,.1,0,.1.1.1s.1.1.2.1h.1a.1.1,0,0,0,.1.1h.3c0,.1.1,0,.1.1.1,0,.1,0,.2.1h.2l.1-.1h.6l.1.1h.1s.1,0,0-.1h.1c.1,0,.2,0,.2-.1s.2,0,.2-.1a.1.1,0,0,0,.1-.1h0a.1.1,0,0,0,.1-.1h.5v-.1h.2c.1,0,.1-.2.2-.2s.1,0,.2-.1c.1,0,.2-.1.2,0h.1c0,.1.1.1.2,0,.1,0,.1,0,.1-.1h.3l.1-.1h.1c.1,0,.1-.1.2-.1a.1.1,0,0,0,.1-.1c.1,0,.2,0,.2-.1,0,0,.1.1.1,0a.1.1,0,0,0,.1-.1h0l.1-.1h.3v-.1h.3a.1.1,0,0,0,.1-.1h.3l.1-.1c.1,0,.1-.1.2,0l.1-.1h0v-.1a.1.1,0,0,0,.1-.1.1.1,0,0,0,.1-.1v-.1c.1,0,.2,0,.2-.1,0,.1.1,0,.2,0h.1l.1-.1h.5v-.1s.1.1.1,0c.1,0,.1,0,.1-.1h0a.1.1,0,0,0,.1-.1h.2c.1,0,.1-.1.2-.1l.1-.1h.2v.1h.4a.1.1,0,0,1,.1-.1c.1,0,.2.1.3,0h.3l.1-.1v-.1h.2l.1-.1h0a.1.1,0,0,0,.1-.1h.2l.1-.1h0l.1-.1h0l.2-.2h0c.1-.1.1-.1.2-.1v-.2h.1l.2-.2c.1,0,.1,0,.1-.1h.1a.1.1,0,0,1,.1-.1c.1,0,.2,0,.2-.1h.1l.1-.1h.1l.1-.1c.1,0,.1,0,.1-.1h.1c.1,0,.1-.1.2-.1h.1a.1.1,0,0,1,.1-.1h.1a.1.1,0,0,1,.1-.1c.1,0,.2.1.3-.1h.1l.1-.1a.1.1,0,0,0,.1-.1c.1,0,.1-.1.2-.2V125c.1,0,.1,0,.1-.1a.1.1,0,0,0,.1-.1v-.2l.1-.1c0-.1,0-.1-.1-.2v-.1c-.1-.1,0-.2,0-.3l-.2-.2h0v-.1c-.1,0-.1,0-.1-.1h-.1l-.1-.1c-.1,0-.1-.2-.2-.1v-.1h-.1l-.1-.1h-.2l-.1-.1c0-.1,0-.1-.1-.1h-.1l-.1-.1a.349.349,0,0,0-.2-.1l-.1-.1h-.1c-.1-.1,0-.3-.2-.3a.1.1,0,0,0-.1-.1h0c0-.1-.1-.1-.1-.2a.1.1,0,0,0-.1-.1.1.1,0,0,0-.1-.1c0-.1,0-.1-.1-.2,0-.1-.1-.1,0-.2h-.1c0-.1-.1-.1-.1-.2v-.1a.1.1,0,0,0-.1-.1.349.349,0,0,0-.1-.2h0c0-.1,0-.1-.1-.2l-.3-.3c0-.1-.1-.1-.1-.2-.1,0-.2-.1-.3,0,0,0-.1-.1-.1,0h-.2l-.1.1c-.1-.1-.1,0-.2,0s-.1,0-.1.1c-.1,0-.2,0-.2.1-.1,0-.1.1-.1,0l-.1.1h0l-.1.1h-.1c-.1,0-.1.1-.2.2h-.4a.1.1,0,0,0-.1-.1h-.1s0-.1-.1,0h-.1s-.1-.1-.1,0c0-.1-.1,0-.1,0h-.7a.1.1,0,0,0-.1.1.6.6,0,0,0-.4.1v.1c-.1,0-.1,0-.1.1-.1,0-.1,0-.1.1h-.3a.1.1,0,0,0-.1-.1h-.1a.1.1,0,0,0-.1.1h-1.1c0-.1,0-.1-.1-.1h-.1c0-.1,0-.1-.1-.1l-.1-.1h0a.1.1,0,0,0-.1-.1.1.1,0,0,0-.1-.1h0c-.1,0,0-.2-.1-.1v-.1l-.1-.1a.1.1,0,0,0-.1-.1.1.1,0,0,0-.1-.1v-.1h-.1a.1.1,0,0,0-.1-.1v-.1c0-.1-.1-.1-.1-.2l-.1-.1c0-.1-.1-.1-.1-.2h0l-.1-.1v-.1h0c0-.1,0-.1-.1-.2v-.2l.1-.1v-.1s.1,0,0-.1c0-.1.1-.1.1-.2a.1.1,0,0,0,.1-.1h.1a.1.1,0,0,0,.1-.1c.1,0,.1-.1.2,0h.2l.1-.1h0c0-.1.1-.1.1-.2.1,0,.2,0,.2-.1h.1c.1,0,.1,0,.2-.1h.4a.1.1,0,0,1,.1.1h.3l.1.1a.367.367,0,0,0,.3-.1h0l.1-.1h.2c0-.1.2.1.2-.1.1,0,.2,0,.2-.1h.2c.1,0,.1-.1.2-.1h.5c.1,0,.1-.1.2-.2.1.1.1,0,.2-.1h.2a.1.1,0,0,0,.1-.1c.1,0,.3.1.4-.1a.1.1,0,0,0,.1-.1h.1a.1.1,0,0,0,.1-.1h0a.1.1,0,0,1,.1-.1l.1-.1c.1,0,.1,0,.2-.1.1,0,.1-.1.2,0a.1.1,0,0,1,.1-.1c.1,0,.2,0,.2-.1h.2l.1-.1h.3c.1.1.1,0,.1,0h.2c.1.1.2-.1.2-.1a.1.1,0,0,1,.1-.1h.2a.1.1,0,0,0,.1-.1h.9c0,.1.1,0,.1,0h.8l.1-.1h.2a.1.1,0,0,0,.1-.1h.5l.1-.1h.2v-.1c.1,0,.1-.1.2,0l.1-.1h.2l.1-.1h.1l.1-.1h0v-.1c.1-.1.2-.2.2-.3h0v-.1c.1,0,.1-.1.2-.2,0-.1,0-.1.1-.2V114h.1c0-.1.1-.2.1-.3v-.4a.1.1,0,0,1-.1-.1v-.1l-.1-.1v-.3h-.1c-.1,0,0-.2-.1-.1-.1,0,0-.2-.1-.1-.1-.1-.1-.1-.2-.1v-.1h-.1a.1.1,0,0,1-.1-.1c0-.1-.1-.1-.2-.2-.1,0-.1,0-.2-.1h-.1c0-.1-.1-.1-.1-.2h-.1l-.1-.1h0v-.1l-.1-.1c0-.1,0-.2-.1-.2h0l-.1-.1v-.2a.349.349,0,0,0,.1-.2c.1,0,0-.1.1-.2h0l.1-.1h0c.1-.1.2-.1.2-.2h0a.1.1,0,0,0,.1-.1.1.1,0,0,0,.1-.1h0a.1.1,0,0,0,.1-.1h0l.1-.1h.6c0,.1.1,0,.1,0,1.1.8,1.2.7,1.3.7Zm1.2,8.7h0c-.1-.1-.2,0-.2-.1a.1.1,0,0,0-.1-.1s-.1.1-.1,0a.1.1,0,0,0-.1.1h-.4l-.1.1c-.1,0-.1,0-.1.1h-.4a.1.1,0,0,0-.1-.1h-.2l-.1.1h-.3c-.1,0-.1.1-.2.1h-.2l-.1.1c-.1,0-.1.1-.2,0-.1,0-.1.1-.2.1h-.1a.349.349,0,0,0-.1.2.1.1,0,0,0-.1.1h0l-.1.1c0,.1-.1.1-.2.1h0v.4l-.1.1a.1.1,0,0,0,.1.1v.2h.1v.1a.1.1,0,0,1,.1.1.1.1,0,0,0,.1.1c.1,0,.1.1.2.1s.1,0,.1.1h0l.1.1h.1l.3.3h.1v.1h.1c0,.1,0,.1.1.1a.1.1,0,0,0,.1.1h.1v.1h.2a.1.1,0,0,1,.1.1h.2c0,.1.1.1.2.1l.1.1h.2l.1.1h0l.1.1c.1,0,.1.1.2,0v.1l.1.1h.1a.1.1,0,0,0,.1.1h.1a.1.1,0,0,0,.1.1h.5l.1-.1h.3c.1,0,.1-.1.2-.1h.2c0-.1.1,0,.2,0h0s0,.1.1,0,.1-.1.2-.1l.2-.2h0l.1-.1h.1v-.1l.1-.1c0-.1.1-.1.1-.2s0-.1.1-.1v-.2c-.1,0,0-.1-.1-.2h0v-.3l.1-.1v-.1l.1-.1c0-.1-.1-.1-.1-.2h0c0-.1,0-.1-.1-.1v-.3a.138.138,0,0,0,0-.2c-.1-.1,0-.2,0-.3.1-.1,0-.1-.1-.2h0c-.1,0-.1-.1-.2-.2-.1,0-.1-.1-.2-.2h-.1a.1.1,0,0,0-.1-.1h-.1v-.1c-.1,0-.1,0-.2-.1h-.4v-.1h-.1c0-.1-.1-.1-.2-.1h-.1c0-.1-.1-.1-.3-.1v-.1C-159.7,119.2-159.7,119.2-159.8,119.2Z" transform="translate(182.6 -109.8)" fill="#fff"/>
        </g>
        <g id="Group_65" data-name="Group 65" transform="translate(103.856)">
          <path id="Path_139" data-name="Path 139" d="M-59,108.1s.3.1.2.1h0c-.1.1.4.1.3,0,.2-.2,0,.1.2,0h0c.1-.1.3.1.2.2a1.439,1.439,0,0,0,.3.2h.1c.1-.1.1-.1.1,0h0c.1-.1.1-.1.1,0h0s.3.4.3.2c.2.1.3.1.2.1h.1l.1.1v.1s.2.1.2.2h.2c.1.1.1.1.1,0h0c-.1-.1,0,.1,0,.1h0v.1h0v.1c0,.1.1.2.1.1l.2.1h.1c.2,0,.3,0,.3.1.1,0,.2.1.1.1h0a1.007,1.007,0,0,1,.3.1h0c.2.2.3.2.2.2v.1h0v.1h0l.1.1h.1v.1c-.3,0,.3.2,0,.2h-.1s.3,0,.2.1h0c-.1.2-.1.3-.1.2v.1h0a.139.139,0,0,0,0,.2h0c-.1.1-.1.1-.1,0h0l-.1.1h0c-.1.1-.1.1,0,.1v.1h0c-.1.1-.1.1,0,.1h-.2c0,.1-.1.1-.1,0l-.1.1h0c-.2.1-.2.1-.1.1,0,.1-.1,0,0,0h0l-.1.1h0c0,.1-.1.1-.1.2v.1h0v.1h0c-.1.1-.1.1-.1,0-.1.1,0,.1,0,.1h-.4c-.1,0-.1-.1-.1,0h0c0-.1-.2,0-.2,0h-.3c.1.1-.2-.1-.1-.1h-.2c-.2,0-.3.1-.2,0v.1h0c-.2-.1-.3-.1-.2-.2h-.1c0-.1-.1-.1-.1,0h0s-.6-.4-.5-.4h-.2s-.1-.1-.1,0c-.1,0-.1,0-.1.1h0c-.1.1-.1.1-.1,0h0c-.1.1-.2.1-.1.1h0c-.1-.2-.4.1-.4.1h-.1c.1,0-.3,0-.2-.1,0-.1-.4.4-.4.2h0c-.2-.2-.3-.2-.2-.2-.1.1-.2.1-.1.1h0c0,.1,0,.1-.1.1h-.5c-.1,0-.3.1-.3,0h-.1c-.1-.1-.2.1-.1.1a.349.349,0,0,0-.2.1h-.2l-.4.1c-.1,0-.1,0-.1.1,0,0-.3-.1-.2-.1h-.1a.188.188,0,0,1-.3,0H-63c-.1-.1-.1-.1-.1,0h0c0-.1-.1,0-.1.1h0s-.1-.2-.1,0h0c0-.1-.2-.1-.2-.1h0l-.1.1h0v.1h-.1c0-.1-.3.1-.2.1h0c0,.2-.1.2-.1.1h0v.1h-.2l-.2.1c0-.1-.2,0-.2,0-.1-.1-.2-.1-.1-.1h0c.1,0,0,.2,0,.1h-.1c0-.1-.2.1-.2,0h0l-.1-.1h0c0-.1-.3.2-.2,0h-.1c.1-.1-.1.2-.1.1h0c-.1,0-.1-.1-.1,0l-.1-.1c.2.5-.4.1-.3,0-.1.1-.3,0-.3.2,0,0-.3.1-.2,0h-.2c-.1,0-.1.1-.2.1h0c-.1.1-.1.1-.1,0h0l-.1.1h-.1v-.1h0c-.2,0-.2-.1-.2-.1h-.1c0,.1-.2.1-.2,0h0s-.3-.3-.1-.2h-.1v-.1h0l-.1-.1h-.2c0-.1,0-.1-.1-.1h-.1v-.1h0c-.1-.1,0-.2-.1-.2-.1-.1,0-.2-.1-.2,0-.1.1-.4,0-.2h0c0-.1-.1,0,0,0-.1-.2-.1-.2,0-.1l.1-.1h0v-.3l-.1.1h0c-.1.2-.1,0-.1.1v-.1h0c0-.2,0-.2-.1-.2v-.1h0v-.1h0c.1-.1,0-.1.1-.1h0l.1-.1h0v-.1h0v-.1h0V111c-.2,0,.2-.3.1-.2h.1c.1-.1.1-.1.1,0l.1-.1c0-.1.1-.2.1-.3v-.1h0v-.1h0s.1,0,0-.1c-.1.1-.1,0,0,0h0c.1,0,.1,0,.2-.1h0c0-.1,0-.2.1-.1h0c.1-.2.2-.3.1-.2.1,0,0-.2,0-.1v-.2s0-.1.1,0h0v-.1h0c0-.1.1-.1.2-.1h0q.15.3.3,0h-.1c.1,0,.1-.2.1-.1h0s.3.2.2-.1h0c0,.1.1-.1.1,0l.1-.1h0c.1,0,.2-.1.1-.1.2-.1,0,.1.1,0h0c.2-.1.3-.1.2,0h.1c.1,0,.1.1.1,0h.3c.1,0,.1,0,.1-.1v.1s.1-.1.1,0h0c.2-.1.3,0,.2,0,.1,0,.1-.1.1,0h0v-.1h0l.1-.1h0s.3-.1.2-.1h0s.1,0,0,.1l.1.1h0c.1,0,.2,0,.1-.1h.1c.1-.1.1-.1.1,0h.2a.349.349,0,0,0,.2.1h0c.1,0-.1-.1.1-.1h0c.1-.1.1-.2.1-.1h.1s.2.1.1.1h0s.3-.3.3,0h0c.1-.1.1,0,0,0h.3a.31.31,0,0,1,.2-.1h.1c.1-.1.1-.1,0-.1h.1c.1,0,.1,0,.1.1h.1a.1.1,0,0,1,.1.1c.2.1.3,0,.2,0v-.1h.3c-.1-.4.1-.1.2-.1h0v.1h.3l.1-.1h.1c.1-.1.2-.1.1,0,0,0,.2,0,.2.1h0c.3-.1.4-.1.2,0l.1-.1h.1a.1.1,0,0,1,.1-.1h0v.1h.5c.1-.1.1-.1.1,0,.1,0,0-.1.1-.1h0l.1-.1h0a.1.1,0,0,0,.1-.1h0a.1.1,0,0,1,.1-.1h.2c.1.3.3-.2.2-.1h0l.1.1v-.1c.1,0,0,.1,0,.1h.1l.1-.1c.1-.1.2-.1.1,0h.2c.1-.1.1-.1,0-.1l.1-.1s-.1,0,0-.1h0l.1-.1h.2l.1-.1h0c-1.1.8-1.1.8-1,.7Z" transform="translate(78.744 -107.325)" fill="#fff"/>
          <path id="Path_140" data-name="Path 140" d="M-37.3,113.6h.2c.1-.1.2-.1.1,0h.1s.3.2.1.2a.1.1,0,0,0,.1.1h0c.2-.1.1.1.2.1h0s0-.2.1-.2h.2c.2,0,.2,0,.2.1h0c0-.1.2,0,.2,0v-.1h0l.1-.1h.1c0,.1.3,0,.3.1h.1l.1.1h0c.1,0,.1.1.2.1h0s.3.1.2.1c.1,0,.1,0,.1.1h.1c-.1,0-.1,0,0-.1h0c.2-.1.5.2.4.1.1.1.1.1.2.1-.1.1,0,.2.1.1h.1l.2-.1h.2c0,.1.2.2.2.2.3-.3.2-.1.5,0h0c.3,0,.3.1.3.2h.3l.1.1h0c.1.1.1.1,0,.1v.1h0v.1h0c.1,0,.1-.1.1-.2h0c.1-.1,0,0,.1,0,.2.4.3,0,.2,0,.1-.1,0-.1.2-.1h.1c.1,0,.1,0,.1.1h.1c.1.1.3,0,.5.1h0c.1,0,.2,0,.1.1h.2a.1.1,0,0,0,.1-.1h.1c.1.1.1.1,0,.1h.2c.2-.1.2-.1.2,0h.1a.1.1,0,0,1,.1.1h-.1c-.1,0,.1.1.1.1h0c.1,0,.1.1,0,0,0,.1,0,0,.1,0h.2c-.4.1.1.1,0,.2h0v.3h0c0,.1.1,0,.1,0h0c.1.1.1.1,0,.1h0v.2h0v.1c-.4.3.2.1.1.2.1.2.1.1.1.2h0v.1l-.1.1v.1h0v.1c-.1-.1-.1,0,0,0h0v.1H-29s-.1.6-.2.5c-.1.1-.1.1-.1,0v.1h0c.1,0,0,.1,0,.2,0-.1-.2.1-.2.1h-.2l-.2.1c-.2.1-.2.1-.1.1l-.1.1h0s0,.1-.1,0h0s-.3-.2-.2-.1h0s-.1.1,0,.1h0s-.1.3-.1.1h0l-.1-.1h0c-.3.2-.4.2-.3.1,0,0-.1.1-.1,0h-.1a.1.1,0,0,1-.1-.1h0c-.1-.1-.2-.1-.1-.1-.2,0-.2-.1-.1,0h-.1c.1.1-.2,0-.1,0l-.1-.1h-.1c0-.1-.1,0-.1,0,0,.1-.2-.1-.1-.1h-.2c-.3.1-.3.1-.2.1h0c-.2,0-.3.1-.2.1h0c-.1-.1-.2.1-.1,0h-.1s-.4.2-.2.2h-.3l-.1.1h0l-.2.1-.1.1h0v-.1h0a.494.494,0,0,0-.3-.1h0l-.1.1h0s-.2.2-.1,0h0a.349.349,0,0,1-.2-.1l-.1.1h-.2c-.2.2-.3.2-.2.1l-.1.1-.2.2.1-.1c-.1.1-.2.1-.2,0h0c-.1,0-.1,0-.1.1h0v.1h0a.1.1,0,0,1-.1.1h0c0-.1.3.4,0,.3h0v.1h0v.2h0v.2h0a.1.1,0,0,0,.1.1h0c.1,0,.1,0,0,.1h.1c.2.1.3.1.2.1.1.1.1.1.2.1h.1c-.4-.1.2.4.2.2h.1c0,.1,0,.1.1.1h0c.2.1.2.1.1.1.2.3.2.3.1.2-.3-.2.2.3.2.2h0l.1.1c0,.1.1.3.2.2v.1l.1.1h0v.1h.1c.1.1.1.1.2,0v.1l.2.2h0c.1.1.2.1.1,0h0s.3.3.3.4v.2c-.2.1.1.1.1.1,0,.1.1.1.1.2h0a.1.1,0,0,1,.1.1c0,.1.3.2.1.2h.1v.2h0v.1h0v.1c.1-.1.1.1.1.1h-.2l-.1.1h0v.1a.31.31,0,0,1,.2.1h0c-.1.1-.1.1,0,.1h0v.1h0v.1h0v.4h0c0,.1-.1.1,0,0h0v.2h0s.1.4.1.3v.1l.1.2v.1h0v.1h0v.1h0v.1h0v.2h0c0,.1-.1.1-.1.2h0c-.1.1-.1.1,0,.1v.2h0c0,.1-.1,0,0,.1h0c.1.1-.1.3-.1.3l-.1.1c-.1.1-.1.2,0,.1-.1.1-.1.1,0,.1h0c0,.1-.2.1-.2.1h0c-.1.1-.1,0-.1,0h-.1c-.2,0-.3.1-.2.1-.1,0-.1.1-.2.2h0v.1h-.1v.1h0c-.1.1,0,.1-.1.1.1,0,.1,0,0,.1h0l-.1.2h-.4v.1h.1s0,.1-.1,0h-.1c-.3.2.1.1-.1.2h0l-.1.2c0,.1-.2.1-.2.1h-.1l-.1.1.1-.1-.1.1h0V129l-.1.1h0v.1h0c-.1,0-.1,0-.1.1h-.2c-.2.2-.3.2-.3.1h-.1l-.1.1-.1.1h-.2a.1.1,0,0,0-.1-.1h-.5c-.2.1-.2,0-.1,0h-.2s-.1,0,0-.1h0a.1.1,0,0,0-.1-.1v-.1c-.1.1-.2.1-.1,0h-.4c-.1,0,0-.1-.1-.1h-.1c0,.1-.3,0-.2,0h0c-.1.1-.1.2-.1.1-.1.1-.1.1-.1,0h-.4l-.1.1h-.1c-.1.1-.2.1-.1.1v.1h0v.1a.1.1,0,0,1,.1.1h0l-.1.1a.1.1,0,0,0-.1-.1h0c.5.6-.5-.1-.3,0h-.7s-.3.3-.2.1h0c0-.1-.1.1-.1,0,0,.1,0,.1-.1.1h-.1c-.1.1-.5.2-.4.2v.1h0c-.1.1-.1.2-.3.2a.139.139,0,0,0,0,.2h0s-.1.3,0,.2c0,.1.1,0,0,0h0l-.1.1h0c0-.1-.1,0-.1.1h0a.494.494,0,0,0,.1.3h0a.1.1,0,0,1,.1.1h0c-.1,0,0,0-.1.1h0c.1,0,.1,0,0,.1h0v.2h0v.2c-.1.1-.1.2-.1.1h-.1l-.1.1h0v.2c-.1.1-.1.2-.1.1-.1.1,0,0,0,.1h0v.6h0c.1.1.1.2.1.1h0v.1h0c.1.2.1.3,0,.2h0c-.1,0,0,.2,0,.2h0s-.1.2-.1.1c-.1,0,.1.1,0,.1l-.1.2h0v.1h0v.1h0v.1h0c-.1.1,0,.1-.1.1h0v.1h0c.1-.1.1.1,0,.1v.1s-.1.1,0,.1h0v.1c.1,0,0,.1.1.1-.1,0,0,.1-.1.1h0v.1h0v.1h0c-.1.1-.1.2,0,.1h0v.1h0c0,.2.2.1.3.1h0v.1h0c.1.1.1.1,0,.1h0c-.1.3,0,.3,0,.3.1.2.1.3,0,.2v.1h0v.3h0l-.1.2h0v.1c-.1.1-.1.1,0,.1h.1v.1h0c0,.1.1,0,0,0v.1c.1.1-.1.1-.1.1h.1a.1.1,0,0,0-.1.1.1.1,0,0,1-.1.1h0c0,.1,0,.1-.1.1-.1.1.2.1.1.1,0,0,.1,0,0,.1h-.1a.215.215,0,0,1,.2.2v.1c.1,0,0,.2,0,.2h0a.1.1,0,0,0-.1.1h0c-.1,0,0,.1,0,.1h.1c.1.2.1-.1,0,.1h0v.1c-.1.1-.1.2-.1.1l-.1.1s0-.1.1,0c0,.1-.1.2-.1.1,0,0,0,.2-.1.1h0c0,.2,0,.3-.1.2h0c-.1.1-.1.1,0,.1,0,.1-.1.2-.1.1h0c-.1,0-.1.2-.1.2h0a.1.1,0,0,0-.1.1h0c-.1,0,.1,0,0,.1v.1h-.3s-.1.1-.1,0c-.1.1-.1.1,0,.1v.1a.747.747,0,0,1-.3.3c-.1.2-.2.2-.1.1h-.3c-.1,0-.2,0-.1-.1a.1.1,0,0,0-.1-.1c.1,0,.1-.1,0-.1h-.2c-.1,0-.2-.1-.1-.1h-.1c-.2-.1-.3-.1-.1-.1h0s-.1-.1-.1,0h0v-.1h0s-.1-.2,0-.1h0a.6.6,0,0,0-.4-.1c.1,0-.1,0-.1-.1h0v-.1c.1.1-.6-.1-.4-.1h0c-.1-.1-.1-.2,0-.2-.1,0-.1-.1-.2-.1v-.1c.1.1-.2.1-.1,0h-.1c-.1-.1-.1-.1-.1,0-.1-.1-.2-.1-.2-.2h0v-.1h0V139h0a.1.1,0,0,0,.1-.1h0c.2-.1-.2,0-.1-.1a.1.1,0,0,0-.1-.1h0c-.1.1-.2-.5,0-.2h0c0-.1.1-.1.2-.1h0l-.2-.1h0c0-.1-.1-.1,0-.1h0v-.1h0s.1,0,0-.1v-.2h0v-.2s-.1-.1,0-.1v-.1h0c-.1,0-.1-.1,0-.1h0s.1-.1,0-.1c.6-.5-.1-.1,0-.2h0v-.2c.1,0,0,0,.1-.1h0v-.1h0c0-.1,0-.1-.1-.1h0c-.1-.1-.1-.2,0-.1,0-.1,0-.1-.1-.1,0,0-.1-.2,0-.2h0V136h0v-.1l-.1-.1h0c-.1.1-.1,0,0-.1h0v-.1c-.1,0-.1,0-.1-.1h0c-.1-.1,0-.2-.1-.2h0a.31.31,0,0,1-.1-.2h0c.1,0,0,0,.1-.1h0s.1-.1.1,0v-.1h0v-.1h0c.1-.2,0-.2-.2-.2h.2a.139.139,0,0,0,0-.2s.1,0,0-.1h0c-.1,0,.1-.1,0-.1a.1.1,0,0,0,.1-.1h0c.1-.4.3,0,.1-.1h0v-.1h0v-.1h0v-.2h0v-.1h0c0-.1-.1-.2-.1-.3h0s-.3-.3-.2-.4h0v-.1h0c-.1-.1.2-.1.2-.1h.1c0-.1,0-.1-.1-.1h0v-.2h0c.1-.1.1-.1.1-.2V132h0v.1h0l-.1.1v-.1h0V132h0c.1-.2.2-.3,0-.3h0c.1-.1-.1-.2,0-.2h0s.1.1.1,0c.1-.1-.1-.3,0-.3h0c.1-.1,0-.1.1-.2h0v-.1h0c0-.1.1-.1,0-.1a.1.1,0,0,1,.1-.1h0v-.1h0a.349.349,0,0,0-.1-.2h0c.1,0,.1,0,.1-.1h0c0,.1.1-.2-.1-.1a.1.1,0,0,0,.1-.1h0V130h0v-.1h0v-.1h0v-.1h0l.1-.2h0c.1,0,.1-.3,0-.3h0c0,.1-.1-.1-.1-.1h0c.1-.1.2-.3.1-.3v-.1h0c-.1,0-.1-.3-.1-.2-.1-.1-.1-.2,0-.2v-.1h0v-.1h0a.1.1,0,0,0,.1-.1h0c.1,0-.2-.3-.2-.3h0v-.1c.1-.2.1-.3.1-.2a.1.1,0,0,1,.1-.1h0c-.1,0,.1-.1.1-.1h0c.1,0,.1-.1,0,0h0c.1-.1.2-.1.1-.1h0V127h0v-.2s.1,0,0-.1h0c.1,0-.1-.3,0-.3h0s.1-.1,0-.1h0l-.2-.4h0v-.1h0v-.1c.1-.1-.1-.2-.1-.1h0v-.4h.1c.1,0,0-.2-.1-.2h0s.1,0,0-.1h0a.1.1,0,0,0-.1-.1h0c0-.2.1-.2,0-.1v-.1h0c.2,0,.1-.2,0-.2v-.1h0c.1-.2.1-.2.1-.1,0,0,.1-.1,0-.1h0l-.1-.1h0c.1,0,.2-.3.1-.3h0v.1h0v-.1h-.1v-.1h0v-.1h0c-.1-.1,0,0-.1,0,0,.1-.1-.3-.1-.2-.1.1-.1,0-.1-.1h0c0-.1-.1-.2-.1-.1h0c0-.2,0-.2-.1-.2h0a.1.1,0,0,0-.1-.1v-.1c0-.1,0-.1-.1-.1v-.1h0c.2-.2.2-.2.2-.1.1-.1.1-.1,0-.1h0c-.1,0-.1,0,0-.1h0c0-.1,0,0-.1-.2h0l.1-.1c0-.1,0-.1-.1-.1h0v-.1s.2-.3.2-.2c.1,0,.2,0,.1-.1h0c.2-.2.2-.2.1-.2,0-.1,0-.1.1-.1,0-.2,0-.3.1-.2.1-.3.1-.4,0-.4v-.1h0s-.1-.6-.1-.3c0,0,.1,0,0-.1h0v-.4h0c.1,0,.1,0,.1-.1h-.1s-.1-.1-.1,0h0c-.1.2-.1,0-.1,0h0a.1.1,0,0,1-.1.1c-.1-.1,0-.3.1-.2.1,0,0,0,.1-.1h0v-.1h0v-.1h0V119h0v-.1h0v-.1h0v-.1h0s-.1-.2-.1-.1h0c0-.2,0-.2-.1-.1h-.1c0-.1-.1.1-.1-.1h0s.1-.1,0-.1c.1-.1.1-.1,0-.1.1.1.1.1.1,0h0c0-.1-.1,0-.1-.1h-.1c-.1,0-.1-.1-.1,0,0,0-.3,0-.2-.1l-.1-.1c0,.1-.1-.1-.1,0h0c-.1-.1-.1-.2-.1-.1h0c0-.1-.1,0,0,0,0-.1-.2.1-.2.2v-.1h-.1c-.2.1-.3.1-.2,0h-.1c-.1-.1-.1-.2-.3-.1l-.4.1h0a2.269,2.269,0,0,0-.4.1h0c-.1-.1,0-.1-.1-.1h0s.2.1-.1.1h0s0,.1-.1,0h0c-.3,0-.4,0-.3.1,0-.1,0,0-.1,0h0c0-.1-.1,0-.1,0h-.1c-.1,0-.1-.1-.1,0H-50l-.1-.1-.1-.1c0-.1,0-.1-.1-.1v-.1h-.1c-.1.2,0-.3-.1-.2a.1.1,0,0,0-.1-.1h0v-.1a.1.1,0,0,0,.1-.1h0v-.1h0c-.1-.2-.1-.2,0-.2v-.1h0v-.1h0c.1,0,.1-.2.1-.2h0l.1-.1.1-.3h.2c0,.1.1,0,.1,0h0V116h0c.1.1.1,0,.1,0h.1l.1-.1h0l.2-.2h.2c.2-.1.2-.2.2-.1l.1-.1h0s0-.1.1,0h0c.1-.1.2-.1.1,0,.1,0,0-.1.1,0h0l.1-.1c0,.1.3,0,.2.1h0c.2-.1.2-.1.1,0h0c.2-.1.3-.2.3-.1h.1c.1-.1.2-.1.1,0h.1c0,.1,0,0-.1,0h.1c.1-.2.1-.3,0-.2l.1-.1h.2c.1,0,.1,0,.1.1h0s.2-.3.1-.1l.1-.1h0c.2,0,.2,0,.2-.1h0c-.1.2.4-.1.3,0l.1-.1h0l.1-.1.1-.1s.1.1.1,0c0,.1.1,0,.1.1h.1v-.1c0-.1.2-.1.2,0h0c0-.1,0-.1.1-.1h.1c0,.1.1,0,.1.1.1-.1.1,0,.1-.1h.1v-.1c0-.1.2.1.1.2,0,0,0-.1.1,0l-.1.1a.1.1,0,0,1,.1.1h-.1c0,.1.1.1.1,0h0c.1-.1.1-.1,0-.1.1,0,.1,0,.1-.1h.1l.1-.1h.2c0,.1.1,0,.1,0h0c0,.1.2-.2.2,0h.2s0-.1.1,0h.1c-.2.2.4-.1.3-.1.2,0,.2,0,.2.1,0,0,.1.1.1,0h.1c.1-.1.2-.1.1-.1h.1c-.1,0,.1.1.1.1h.1c.1.3.3-.2.3-.1h.1c.1-.1.1.2.2.1h0c.1-.1,0,0,.1,0h0s.2-.1.1,0h.1q.45-.15.3,0c.1.1.3.1.3,0h0c.2,0,.2,0,.2-.1h.3c.1,0,.1.1.1,0h.1a.1.1,0,0,0,.1-.1c.1-.1.1-.1.1,0h.1s.2.1.1.1c.1-.1.2-.1.1,0,.1-.1.2-.1.1,0h.3c.2.1.3.1.2.1,0,0,.2-.1.1,0h.2v.1h0s.1-.1.1,0h.3c.1,0,.1-.1.1,0,.2-.2,0,0,.1,0h.1v-.1h0c1.1-.8,1.2-.9,1.1-.9h0c0,.1.1,0,0,0Zm-7.6,12.6h0C-45,126.3-44.9,126.3-44.9,126.2Zm.7-11.9Zm3.6,3h0c-.1-.1-.1-.1-.2-.1h0l-.1-.1h0c-.1-.1-.1,0-.1.1h0v-.1h-.1a.1.1,0,0,0-.1.1h0c-.1.1,0,.1,0,.1-.1.2.1,0,0,0,0-.4-1.3,0-1,.1-.9.5.5,2.2.4,2.3h0l.1-.1c.1-.2,1-.2,1.2-.2,0,0,1.1-.5,1.2-.5a.1.1,0,0,0,.1-.1h0c.1-.1,1.8-.8,1.1-1a1.547,1.547,0,0,0-1.7-.9h0m.2,5.3h0c-.1,0-.2.3-.3.2h-.2s-.2.1-.1,0h0c-.1.1-.1.1,0,.1-.1,0-.1.1,0,.1h0c-.1,0-.1,0-.1-.1-.6-.1-2.1.4-1.4,1.4v.1h0v.1h0v.1h0v.1h0v.2h0v.1h0s-.1.1,0,.1h0c.1.5.1.6-.1.4.1,0,0,.1.1.1h.1v.1l.1.1v.1h0c.2.1.2.1.1.1h.1c0,.1.1.2.1.1v.1h0l.1.1.1.1a.1.1,0,0,0,.1.1h0l.1.1h.1c.1,0,.1,0,.1.1h0c.2-.1.3-.1.2-.1.1,0,.1,0,.1.1h.2c.1,0,.1,0,.1-.1.1-.2,0,.1.1,0h0c0,.1,0,.1.1,0h0c.1,0,.2-.1.1-.1h0c.1,0,0-.2,0-.2h0v-.1h.1s.1-.1.1,0h.1a.1.1,0,0,1,.1.1h.1l.1-.1s-.1,0,0,.1l.1-.1a.1.1,0,0,1,.1-.1h.3a.1.1,0,0,1,.1.1c.1,0,.2-.2.2-.2.1-.1.1-.1.1,0l.1-.1a.1.1,0,0,0,.1-.1h0c.1-.2.1-.2.1-.1h0c.1-.1.1-.1.1,0h.1s.2-.2.2-.1h0v.1h.1l.3-.1h0a.1.1,0,0,0,.1-.1h0c.2,0,.2,0,.1-.1.2.1.1,0,.2.2h0c-.1.1-.1.1,0,.1h0l.2-.1c.1,0,0,0,.1-.1h0c.2-.1.3,0,.2,0h0c.1-.1.1-.1,0-.1h.1c.2-.1.2,0,.2-.1.1-.1.1-.2,0-.1h0s.1-.1,0-.1h0v-.1H-36l.1-.1h0c.2-.2,0-.2,0-.2s.1-.1,0-.1h0v-.1h0V124h0c-.1,0,0-.1,0-.1.1-.4.1-.5,0-.4a.1.1,0,0,0-.1-.1c-.1,0-.1-.1,0-.1h0l-.2-.1h0l-.1-.1h-.2l-.1-.1-.1-.1h0c-.2-.1-.3-.1-.2,0H-37c-.1,0-.1-.1-.1,0a.1.1,0,0,1-.1-.1h0c.1,0-.2.1-.1.1h-.2v-.1h-.3c-.1.1-.1.1-.1,0H-38a.1.1,0,0,1-.1-.1.1.1,0,0,0,.1.1s-.1-.3-.1-.2h-.3c-.1,0-.1-.1-.1,0l-.1-.2h0s-.3.3-.2.1a7.206,7.206,0,0,1-.8-.3Z" transform="translate(78.744 -107.325)" fill="#fff"/>
          <path id="Path_141" data-name="Path 141" d="M-60.9,113.7h0c.1.1.1,0,0,0,.1.1.1,0,0,0h0c.2,0,.2,0,.2.1l.2.1c.1,0,.1,0,.1.1,0,0,.1.1.1,0h.2c.1,0,0,.1.1.1h0c.1.2.2-.1.1-.1h.5c.1-.1.1-.1,0-.1h.4c.2,0,.3.1.2.1h0l.1.1V114h.1c.2-.1.2-.1.2,0,.1-.1.1,0,.1,0h0c.1-.1.1.1.1,0h0c0,.2.1-.1.1,0a1.007,1.007,0,0,1,.3.1h0s.1.1,0,.1h0c0,.1.1.1.1,0h0c.1-.1.1.2.1.1h0c.3-.2,0,.3.2,0h0c0-.1,0,0,.1,0h0c.1-.1.1,0,.1-.1h0c.2-.2,0,.3.2.1h.4c.1.1,0,0,.1,0h.1a.31.31,0,0,1,.2-.1c0-.1,0-.1.1-.1h.1c-.1.1-.1.1,0,.1-.2.2.1,0,0,.1h.1s0,.1.1,0h0c.1-.1.1-.1.1,0,.2-.1.3-.1.2,0,0,0,.2-.1.2,0h.1s.3.1.1.1h.2c0-.1,0-.1.1-.1h0s.3,0,.2.1h.4c.1,0,0,0,0-.1h0c0,.1.1.1,0,0h0c.1,0,.3.3.4.3.2.2.2.2.1.2,0,0,.2.3.2.2s.1,0,.1,0h-.1c.1.1.2.1.1,0h0c0,.1,0,.1-.1.1v.1h0c.1.1.1.1,0,.1h0c-.1,0-.1.1-.1.2h0l.1.1v.1h0c-.1,0,0,.1,0,.1h0v.1h0v.1c0,.1,0,.1-.1.1h0a.1.1,0,0,1-.1.1h0v.1c0,.1-.2.2-.3.2h0c-.1,0-.1,0-.1.1l-.1.1c0-.1,0-.1-.1-.1l-.1.1h-.1c-.1,0-.4.2-.3.3-.1.1,0,.1-.1.1H-55c-.2-.1-.3-.1-.2,0-.1.1-.2.1-.1,0h0v.1h0v.1s-.1.2-.1.1h-.1v-.1h0c.1-.2-.1,0-.1,0h-.1c0,.1-.2.1-.1,0h-.3c0-.1-.1,0-.1,0h0c-.1.2-.2.2-.1.2h-.2s-.1.1-.1,0a.1.1,0,0,1-.1.1c-.1.1,0,.1-.1.2h0v.1h0s.1.1,0,.1h0c0,.1-.1.1,0,0h0c-.1,0,.1.1,0,.1h0v.1c0-.1-.1.1,0,.1h0c-.1.1-.1.2,0,.1h0c-.1.1-.1.1,0,.1v.1h0v.3h0v.1h0c-.1.1-.1.1-.1,0H-57c.1-.1.1.1.1.1h0v.1h0v.1h0c-.1,0-.1.2-.1.2h0c0,.1,0,.2.1.2h0v.2a.1.1,0,0,1,.1.1h0l.1.1c.1,0,.3.2.2.2h.2c.1,0,.4-.1.3,0h.1v-.1h0a.215.215,0,0,1,.2.2h0c.2,0,.2.1.2.1h0a.1.1,0,0,0,.1-.1h0c.1.1.1-.1.1,0,.1,0,.1.1.1,0,0,0,.2,0,.1.1h.2c0,.1.4-.3.4-.2h0l.1-.1a.1.1,0,0,1-.1.1l.1-.1h0c.1-.1.1-.1.1,0h.1c.1,0,.2,0,.1.1h.4c.1,0,.1.1.1,0,.1,0,.1-.1,0,0,.1,0,0-.1,0-.1h.2s.2.1.1.1h.1c.1,0,.2-.1.1-.1h0c-.1-.1.3,0,.2.1h.3c0,.1.1,0,.1,0,0,.1.3.4.2.4h0c.3.2.1.3.1.5h0v.1h0v.3h0v.1h0c.2.1-.2.3,0,.4v.2h0v.1c-.1,0-.2.2-.1.2v.1c-.1,0,0,.1,0,.1-.1.1-.1.1,0,.1h0s-.2.1-.1,0h-.1l-.1.1h0c-.1.1-.1.2-.1.1h-.2V123h0l-.1.1h0c-.1,0-.1.1-.1,0h-.2s-.1.1-.1,0h-.1l-.1-.1h-.3c0-.1-.1,0-.1,0h-.3v-.1h-.4c-.1.1-.1.1-.1,0h0c-.2.1-.1,0-.1,0,0,.1-.5-.6-.1-.4h0l-.1.1h-.1c0-.1-.1,0-.1,0s0,.1-.1,0h0c-.2.1-.3.1-.2.1h0c-.1,0-.1,0-.1-.1h0c-.1-.1-.1-.1,0-.1-.1,0-.1-.1-.1-.2h0c-.2-.1-.3-.1-.2-.1,0-.1-.2.1-.2.1h0c-.1.1-.1.1-.1,0h-.2l-.2.1h-.2v.1h0c-.1,0-.1,0,0,.1,0,0-.3,0-.3-.1h-.3l-.1.1h-.1c-.1.1-.2.1-.1,0h0c-.1.1-.2.1-.2,0-.1.1-.2,0-.1,0-.1,0-.1,0-.1-.1h-.3c.1,0-.2.3-.1.1h0c-.2,0-.3-.1-.2-.1h-.4c-.1.1-.1,0-.2,0h0c.1.1-.1.1-.1.1h0c-.1,0-.2,0-.1.1h0c0,.1-.1.1-.1,0h0c0-.2-.3.1-.2,0h0s-.2,0-.1.2v.1h-.2l-.1.1v.1h0c-.2.1,0,.1-.1,0h0s-.1.1-.1,0c0,.1,0,.1-.1.1,0,0-.3.1-.2.1-.1-.1-.1-.1-.1,0H-61c0-.1,0-.1-.1-.1h-.1c.1.1,0,.1-.1.1h0c-.2,0-.3.3-.3.4-.1.1-.1.1-.1,0-.1,0-.1,0-.1.1H-62l-.1-.1s-.2-.1-.1,0h-.2c-.1,0,0,.1-.1.1h-.1c0-.1-.2.1-.1.1h0c-.2,0-.2.1-.2.1h0c-.1.1-.3.1-.2,0h-.1c-.1.1-.3,0-.2,0,.2-.2-.2.2-.2.1v.1h0c.1.1-.2.2-.2.2h0s-.2.1-.1,0c-.1,0-.1,0-.1.1h-.1c.1.1-.5.2-.5.3-.1,0-.2.1-.3.1h0c-.1,0-.1,0-.1.1h0l-.1.1h0c0,.1-.2.1-.2.1l-.1.1h-.2c.1-.1-.3.1-.2,0h-.5a.1.1,0,0,1-.1-.1.1.1,0,0,0-.1.1h-.3a.1.1,0,0,1-.1.1h0l-.1-.1h0c.1.1-.2.1-.1,0h-.1q-.45.15-.3.3h-.1c-.1,0-.1-.1,0,0-.2-.1-.2.1-.4.2h-.1s-.1.1-.1,0h-.1c-.5-.1-.7-.1-.5,0-.1-.2-.1-.2-.1-.1l-.1-.1a.139.139,0,0,0-.2,0h0c-.1-.1-.1,0-.1,0-.1,0-.2.1-.1.1h0v.1h0c-.1.1-.3.3-.4.2,0-.1-.1,0-.1,0-.1.1.2,0,0,.1h0l-.1.1c0,.1,0,.1-.1,0h-.2c.1-.1-.2,0-.1-.1h-.1s0,.1-.1,0h0c-.1.1-.1.1-.1,0h0c-.1.1-.4,0-.4,0h-.1q-.3.15-.3,0c-.1.1-.1.1-.1,0h-.3c-.1.1-.1.1,0,.1-.2.1-.2.2-.2.1h-.1l-.1.1h-.1c0,.1-.3.1-.1.2h0c-.2.2-.2.3-.1.2l-.1.2c-.1.1-.1,0-.1,0h0l-.1.1c0,.1-.3,0-.3,0h0c.1,0,.1,0,.1-.1h0l-.1.1h-.2c-.1,0-.1,0-.1.1h0s0,.1-.1,0c0-.1-.3,0-.3-.1H-74c-.1.1-.1.1-.1,0h0l-.1.1.1-.1-.1.1h0c0-.1-.1,0-.1,0l-.1.1h0c-.1.1-.2.1-.1.1h0s-.1.3-.2.2h-.1c.1-.1-.1,0-.1,0H-75l-.1.1c-.1.1.1.2,0,.2h0s0,.1-.1,0h0l-.2.1h0c-.1.1-.1.1-.1,0h-.1c.1-.1-.1,0-.1,0,0-.1-.1,0-.1,0H-76s-.4,0-.2-.1c-.1,0-.2-.1-.1-.1h0c-.1.1-.2.1-.1,0-.2,0,0-.1-.1-.1h-.2c-.1,0-.1-.1,0-.1h0a.1.1,0,0,0-.1-.1h-.1s-.1.1-.1,0h0l-.1.1h0l-.1.1h0c-.1.1-.2,0-.1-.1v-.2c0,.1-.3,0-.2,0l-.3-.3h0v-.1s-.1-.4-.2-.4h-.1v-.1h0a.1.1,0,0,0-.1-.1v-.1h0v-.2h0V126h-.1c0-.1-.1,0-.1,0,0-.1,0-.1-.1,0v-.2c-.1.1-.1-.2-.1-.2h0v-.1h0c0-.2,0-.3-.1-.2v-.1h0s-.1-.4,0-.2c0,0,.1,0,0-.1h0c0-.1,0-.1.1,0l.1-.2h0s.1-.2,0-.2c.1-.1.1-.2.1-.1h0l.2-.1h0c.1-.1.1-.1.1,0h0c.1-.1.1-.2.1-.1h.1c.1-.1.1.4.2,0,.2-.1.3-.1.2-.1h0c.1-.1.1-.2.1-.1h0c.1-.1.1-.1,0-.1h.3c.1.1.1-.1.1,0h.2c-.1-.1,0,0,0-.1h0l.1-.1h0c0,.1.1,0,.1,0l-.1.1a.139.139,0,0,1,.2,0h.1c.1,0,.3.1.2,0h0c.1,0,.1-.1.1,0-.1-.2.3-.1.3-.1h0l.1-.1h0v-.1h0c.2.1.4-.2.4-.2h0c0-.1.1-.1.1,0,0,0,.2-.1.1-.1h0s0-.2.1-.2h.3a.1.1,0,0,0,.1-.1h.2c0,.1.1,0,.1.2,0,0,.1-.1.1,0,.5-.2-.1,0,.2-.1h.2c0,.1,0,.1.1,0h.1c0,.1.3-.1.3-.1h0c.1,0,.1,0,.1-.1h0l.1-.1c0,.1.1-.1.2,0h.1c-.1,0,0-.3,0-.3l.1-.1h.2c0-.1,0-.2.1-.2V122h0s.2-.2.2-.1h0v-.1h0c.2-.3.3.3.2.1a.451.451,0,0,1,.3.3c0,.1,0,.1.1.1l.1.1s.2.1.1.1h0a.1.1,0,0,0,.1-.1h0v-.1c-.1-.1.2-.1.1-.1,0,.1.1-.1.1,0h0l.4.1h0c.1,0,.2-.2.1-.1.1,0,.2-.3.2-.3h0v-.1h.2c0,.1.1.1.1,0h0v-.1h0c.1,0,.2,0,.1-.1h.3c.1,0,.1,0,.1-.1h.2s.1.1.1,0h0l.1-.1h0c-.2,0,.2-.2.1,0h.1c.1,0,.1,0,.1-.1h.1s.1,0,0-.1h0c0,.1.2-.2.1-.1h.1c.1-.1,0-.1.1-.1,0,0,.1-.3,0-.2h.1c.1.1.1,0,0-.1h0v-.1h0s.1,0,0-.1h0v-.1h0c.1-.1.2-.1.1,0h.1c.1-.1.1-.1.1,0,0,0,0-.1.1,0v-.1h0c.1-.1.1-.2,0-.1v-.1h-.1c0,.1-.1-.2-.1-.1,0,0,.2-.3.1-.2.1-.1,0,0,0-.1h0v-.2h0v-.1h0v-.1h0l-.1-.2c0-.1-.1,0-.1-.1h0c0-.1-.1-.1-.1-.2,0,0-.3,0-.2-.1,0-.1-.1.1-.1,0h-.4c-.1.1-.1.1,0,.1h-.2l-.1-.1c0,.1-.1.1-.1,0h0c0-.1-.2,0-.3,0,0,.2-.1,0-.2.1-.8,0,0,0-.3-.1-.1-.1-.1-.1-.1,0s-.2-.2-.2-.2h0c-.2-.1-.2-.2-.1-.2l-.1-.1h-.3c0-.1-.1-.1,0-.1-.1-.1,0-.2-.1-.2h0v-.1c-.1,0,0-.1,0-.1h0c.2,0,0,0,.1-.1h0v-.1h-.1c.1,0,.1,0,0-.1h0c.1,0,.1-.1.1,0v-.1c.1-.2,0-.3,0-.2h0V117c.1,0,0-.1.1-.1h0v-.1h0s0-.1.1,0h0c.1,0,0-.2.1-.2.1-.1.1-.1.1,0,.1,0,.2,0,.1-.1l.1-.1c.2,0,.3.2.4,0a.1.1,0,0,0,.1-.1h0v-.1h.4c.3-.1.3-.1.2-.1h.1l.1-.1c0,.1.1-.1.1,0h0c.3-.1.3-.1.2-.1h0c0-.1.1,0,.1,0h-.1a.1.1,0,0,0,.1.1h.4c.1-.1.1-.1.1,0,.1-.1.2-.1.1-.1h0c.2.1.2,0,.2,0h.1l.1-.2c.1-.1.1-.1.1,0,.1-.1.1-.1.1,0,.2-.1.3-.1.2,0,0-.1,0-.1.1-.1h.1s.1,0,0-.1h0c.1-.1.2-.1.1-.1.1,0,.2-.1.1-.1h.1c0,.1.1-.1.1,0h.1v-.1h.3c-.1.2.2-.1.2-.1h0c.2,0,.2,0,.1.1a.1.1,0,0,1,.1-.1h0c.1-.1.1-.1.1,0,.1,0,.2,0,.1-.1h0s0-.1.1,0h0l.1-.1h0s0-.1.1,0h0c0,.1.3-.1.2-.2h0c.1,0,.1-.1,0,0h.1l.1-.1h0c.1-.1.1-.1.1,0,.1,0,.1,0,.1-.1h.1c.1-.1.1-.1.1,0a.1.1,0,0,0,.1-.1h0c.1-.1.1-.1.1,0,.1.1.1.1.2,0h0c.1.1.2.1.1,0h0c.2-.1.3-.1.2,0h.4a.1.1,0,0,1,.1.1h.4s.2-.1.1-.1c.1-.1.2-.1.1-.1.2,0,.2-.1.2-.2h0c.2,0,.2-.1.1-.1h.3c0,.1.1,0,.1,0h0c.1-.1.1-.1.1,0h.2c.1-.1.1-.1.1,0l.1-.1s0,.1.1,0c.6.1.9-.1.7-.2Zm3.1.7Zm-10.6,11.1Zm6.9-7.9h-.3c-.1.1-.2.1-.1.1,0,0,0,.1-.1,0h0l-.1.1h0a.1.1,0,0,0-.1.1h-.2v-.1a.1.1,0,0,1-.1-.1h-.1a.1.1,0,0,1-.1.1h0c-.1.1-.1.1-.1,0h-.1c-.1.1-.1.1-.1,0h0c0,.1-.2.2-.2.3h0s-.5.3-.3.2c0,.1,0,.2-.1.1h0c-.1,0-.1,0,0,.1h0v.1h0v.2h0c-.1,0,0,0-.1.1h0l-.1.1h0c0,.1-.1.2-.1.1-.1,0,0,0,0,.1h.1v.1s.1.1,0,.1v.1h0v.1h0v.1c0-.1,0,0,.1,0h0c-.1.2,0,.2,0,.1h0c0,.1.1.1,0,.1h.1c0,.1.1,0,.1.1h.6l.1-.1h0c.7-.5,1-.5,1-.2.1-.1,1.5-1.7.6-1.3h.1c.2.3,0-.3,0-.1.1,0,0-.1,0-.1h0v-.1c-.1.1-.2-1.6-.4-.6.1.1,0,.1,0,.1Zm-.7.2Z" transform="translate(78.744 -107.325)" fill="#fff"/>
          <path id="Path_142" data-name="Path 142" d="M-57,124.4c.2,0,.3,0,.2.1.1,0,.1.1,0,0,.2-.1.3-.1.2,0h.1l.2.1c.1,0,.4.3.3.4h.1a.1.1,0,0,0,.1.1c-.1,0,.3.1.2.1h.1c.1.2.2.2.2.1h0v.1h0l.1.2c0,.2,0,.2-.1.2v.3h0v.1h0c.1.1,0,.1,0,.1h-.1l.1.1v.1h0v.4c-.1.1.1.1.1.1h0l-.1.1h-.1v.1h0s.1,0,0,.1h0a1.007,1.007,0,0,0,.1.3h0v.1c.1.2.1.2,0,.2.1.1.1.2,0,.2h0v.1c-.1.1-.1.1,0,.1h0c0,.1-.1.2-.1.1h0v.1h0v.1h0v.1h0c-.1,0-.1,0-.1.1h0v.1h0s-.1.1,0,.1c0,.1.1,0,.1,0h0v.1h0v.3s-.2.1-.1.1c-.1.3.1.1.1.1v.1h0c.1-.1,0,.1,0,.1h0l.1.1c-.1.2-.1.2,0,.2v.1h0c.3.1-.1.2,0,.2h0a.31.31,0,0,1,.1.2h0c.1-.1.1,0,.1.1h0c.1,0,0,0,.1.1h0c.2,0,.2.1.1.2h0c-.1.1-.1.1,0,.1a.1.1,0,0,0-.1.1c.1-.1,0,0,.1,0h0c.1-.1,0,.1,0,.1.1-.1.1.2,0,.2v.1h0c-.1.1-.1.1,0,.1v.1h0v.1h0c-.1,0-.1,0-.1.1h.1a.1.1,0,0,1-.1.1h-.1c-.1,0-.1.1,0,.1h0c-.1.1-.1.1,0,.1h0v.1l-.1.1h0c-.1.1-.1.1,0,.1.2,0-.3.1-.1,0-.2-.1-.2-.1-.1-.1v-.1h-.1a.1.1,0,0,0-.1.1l-.2.2a.1.1,0,0,1-.1.1h-.4s-.2-.1-.2,0h-.2l-.1.1.1-.1-.1.1h0l-.1.1h-.2s-.2-.3,0-.2l-.1-.1h0s-.3-.1-.2-.1c0-.1-.2-.1-.2-.1l-.1.1h0c-.1.1-.1.1-.1,0h-.3v.1h0l-.1.1h0l-.2.1h-.1l-.1.1v.1h0l-.1.1h0c-.1.1-.1.2-.1.1h0c0-.1-.2,0-.1,0h.1v-.1h0v-.1h0c0-.1-.1,0-.1,0h0s-.1,0,0,.1h0c0,.1-.1.1,0,.1h0c-.1,0,0-.1,0-.1h0c.1-.4-.1.1-.1-.1h0c.1-.1-.2.3-.1.1h-.1c-.1,0-.1,0-.1-.1h0c-.3,0-.3.1-.2.1,0,0-.1.1,0,.1h-.1c0,.1-.1,0-.1,0v-.1s0-.1-.1,0h-.1c0-.1,0,0-.1,0h-.3c-.1,0-.1-.1-.1,0h-.3c-.2,0-.3,0-.2.1s-.6,0-.5,0h-.4c-.1.2-.2,0-.2.1h0l-.1-.1h0c-.2.1-.2.1-.1.1,0,.1.1.1,0,.1h0c-.4,0-.5,0-.3.1h-.1c0-.1-.1.1-.1,0h0c-.1,0-.1,0-.1-.1-.1.1-.1.1-.1,0,0,0-.1.2-.1.1h0v.1h-.2v.1h0v.1c-.1,0-.2,0-.1.1h0c0-.1-.4,0-.3-.2h-.1c-.1.1-.1.1-.1,0l-.1.1h-.2c-.1,0-.1,0-.1.1h0c-.2,0-.3-.1-.2-.2,0,0,0,.1-.1,0h-.1c0-.1-.5.1-.6.1,0,0-.1,0,0-.1h-.2l-.1.1h0c-.1.1-.1.2,0,.2-.1.1-.1.1-.1,0h0c-.2.2-.3.3-.1.3,0,0-.1.2-.1.1h0c0,.1-.1.1-.1,0v.1h0c-.1.2,0,.1-.1.1h0v.1h0c0-.1,0-.1.1,0h0v.2c-.3.2-.4.3-.2.2-.1.1.1.3,0,.4h0c0,.1-.1.2,0,.1h-.1l-.2.1h0c-.1,0-.1.1,0,0-.1.2-.2.3-.1.2-.1.1-.1.1-.1,0-.1.1-.1.1-.1,0a.1.1,0,0,0-.1.1v.1c0-.2-.2.2-.2.2h-.1c-.1.2-.2.3-.1.2-.1.1-.1.1-.1,0h0c-.1.1-.3.1-.3,0-.1.1-.1.2-.1.1h0l-.1.1h0a.1.1,0,0,1-.1-.1c-.2,0-.3,0-.2-.1h0s-.3-.1-.2-.1c-.1-.1-.2-.1-.1-.1l-.2-.1h-.2c.1.1-.1.1-.1.1h0c0-.1,0-.3-.1-.3h0c-.2-.2-.2-.3-.1-.3h0c-.1.1,0-.1-.1-.1v-.1h0v-.1h0v-.1h0c.1-.1.1-.2,0-.1v-.2h0V135h0v-.2c.1-.1.1-.1,0-.1h0v-.1h0v-.1s-.2-.1,0-.1h0c-.1-.1.2-.1.1-.1h0v-.1h0V134h0v-.1h0c0-.1,0-.2.1-.1v-.1h0s-.1,0,0-.1h0v-.1h0v-.1h0c-.2.3,0-.5,0-.2,0-.1,0-.1.1-.1h0s-.1-.5-.1-.3v-.1h0c.1-.2.1-.2,0-.1h0c.1-.1,0-.2,0-.1h0v-.1h0c-.1,0-.1-.1,0-.1h.1c.2-.1.2-.1.2,0h0c.1-.1,0-.1,0-.1l-.1-.1h0V132h0l.1-.2h0l.1-.1v-.1h0c0-.1.1-.1,0-.1.1-.1.1-.1.1,0,.2,0,.3-.1.2-.2h0c0-.1,0-.3-.1-.2,0-.1-.2.1,0-.1h0c.1-.2.1-.3.1-.2v-.1h0v-.2h0c.1,0,.3-.1.2-.1.1,0-.2-.1-.1-.1h0a.494.494,0,0,0,.3-.1h0c0-.1,0-.2-.1-.1,0,0-.1-.2,0-.1h0c-.1-.2.1-.2.2-.2h0c.1,0,.1,0,.1-.1h0v-.1h0v-.1h0s.1-.2.1-.1h0c.1,0,.1,0,.1-.1h0c.1,0,0,0,0-.1h-.1c.1,0,0-.3-.1-.2.1-.2.1-.3,0-.2v-.1h0s-.1-.2,0-.2h0c.1-.1.1-.2,0-.2l.1-.2v-.6h.1c.1-.2.1-.3.1-.2.1-.1.1-.1,0-.1h0l.1-.1h0c.1-.1.1,0,.1,0h0l.2-.2h0c0,.1.1,0,.1,0,.1-.1.1,0,.1,0h0c.1,0,.1,0,.1-.1h0c0-.1,0-.1.1,0h.1c0,.1,0,.1.1.1h.4v.1h.5s.1.1.1,0h0c.1,0,.2,0,.1.1h.1c-.1-.2.1,0,.1,0,.1.1.2.1.2,0h.2c.1,0,.1,0,.1.1h0c0,.1.2,0,.1,0,.1,0-.1,0,.1.1h0s.1.1,0,.1h.2c.1,0,0-.1,0-.1h0c0,.1.1,0,.1,0,0,.1.1,0,.1,0h.1c.2.1.3.1.2,0h0l.1-.1h0c.1-.1.1-.1.1,0,0-.1.1-.1.1,0a.1.1,0,0,1,.1-.1h0l.1-.1h0c.2-.1.2-.1.2,0h.1c.1-.1.1-.2,0-.2h.1c0,.1.1,0,.1,0h.2c-.1.1,0,.1.1,0h0a.1.1,0,0,0,.1-.1l.2-.1h.1s-.1-.1,0-.1h0s.3-.1.2-.1c0,.1.1,0,.1,0,0-.1.1-.1.1,0h.3a.1.1,0,0,0,.1-.1c.2,0,.1.1.2,0h.1c0,.1.1-.1.1,0h.1c0,.1.1,0,.1,0h.1c-.1,0,.2-.2.2-.1h0c0,.1.2.1.2.1h0a.349.349,0,0,0,.2-.1l.2-.1h.2c.1.1.1,0,.2,0h0V126h0l.1-.1h0v.1h0v.1h0c.1-.1.1-.1.1,0a.349.349,0,0,1,.2-.1h0c.1-.1.1-.1.1,0,.1-.1.2-.1,0,0l.1-.1h0c.2-.1.1,0,.1,0h0c0,.1.2.1.2.1v-.2h.2a.31.31,0,0,0,.2.1v-.1h0c.1-.1.1-.1.1,0l.1-.2h0s0-.2.1-.1h0c0-.1.1-.2,0-.1h.2a.349.349,0,0,1,.2-.1h.1c.1-.1.4.1.3-.1a.1.1,0,0,1,.1.1h.3c.1.2.2.3.2.2h.1c-.1.1.2.2.1.2h0s0,.2.1.2h.2c0-.1,0-.1.1-.1h0v-.2h0v-.1c.1-.2.1-.2.1-.1,0,0,.1,0,0-.1h0c0-.1,0-.1.1-.1v-.1h0l.1-.1h0c-1.8-.5-1.7-.6-1.6-.6C-57.1,124.5-57.1,124.4-57,124.4Zm-8.1,2.7h0C-65.2,127.2-65.1,127.2-65.1,127.1Zm4.7.8h0c-.1.2-.1.2-.2.2h0c0-.1-.2.2-.2.1h-1.1s-.1.2-.2.1h-.1v-.1h-.1c0-.1,0-.1-.1,0h0v-.1h-.1c-.1.1-.2.1-.1,0h-.1c-.1-.1-.2,0-.3,0-.1.1-.2.2-.2.1h0c-.2.1-.4.1-.4,0h0l-.1.1c.1-.1-.3.2-.1.1h0v.1c.1,0,0,.2,0,.2h0c-.1,0,0,.1-.1.1h0v.1h0c-.1,0-.1.1,0,0H-64c-.2.1.1,0,0,.1h0a.1.1,0,0,1-.1.1l-.1.1h0c-.1,0-.1.1,0,.1-.1.2-.3.2-.2.3-.1.1-.2.2-.3.2h0s-.2.2-.1.2c0-.1-.2.3-.2.2-.1.1-.2.1-.1,0h-.1a.1.1,0,0,0-.1-.1h-.2v.1h0c-.1.1-.1.1,0,.1h0v.1h0s.1.2.1.1h0c-.1.1,0,.1-.1.2h0v.3h0v.1h0c.1.1,0,.1.1.1h0s.1-.1.1,0h.1s0-.1.1,0c0,.1.2,0,.2,0h.1c.1,0,0,0,.1-.1h0c0-.1.1-.1.1,0h.2c.1-.1.1-.1.1,0h0c-.1.1.3.1.3,0,.1,0,.2,0,.1.1h.1l.1-.1a.1.1,0,0,0,.1-.1.1.1,0,0,0,.1-.1s0-.1.1,0h.1l.1-.1h0c.1-.1.2-.1.2,0h0s.2-.2.2-.1h.4l.1.1h.1c.2-.1.2,0,.1,0,.1,0,.1-.1.1,0,0,0,.1-.1.1,0h0v.1h0c.1-.1.1-.1.2-.1,0-.1,0-.1.1,0h.1c.1-.1.1-.1.1,0h0s.1.1.1,0h.1c.1-.1.2-.1.1,0h-.2c.1,0,.1,0,.1-.1,0,0,.2-.1.2,0,0,0,.1-.1.1,0a.1.1,0,0,1,.1.1h0c0,.1.1.1.1,0h0c.2-.3.2-.4.1-.3h0c.1,0,.1-.1,0-.1h-.1v-.1c.1-.2.1-.2.1-.1,0-.1.1-.1.1,0h.1c0-.1.1-.1,0-.1h0c.1-.1.1-.2.2-.2h0l.1-.1h0v-.1h0v-.1h0v-.2h0a.1.1,0,0,1,.1-.1c.1.1.1-.3.1-.3h0v-.2h0v-.1h0c.1,0-.1-.1,0-.1l.1-.1h0c-.1,0-.1-.1,0-.1h0v-.1h-.3c-.2-.1-.3-.1-.2-.1h0c0-.1,0,0-.1-.1h0c-.1.1-.1,0,0,0,0,0,0,.1-.1,0h0c-.1,0-.1,0-.1-.1h0v-.1h-.1c-.1.1-.1-.1-.1,0Z" transform="translate(78.744 -107.325)" fill="#fff"/>
        </g>
        <g id="Group_66" data-name="Group 66" transform="translate(51.1 5.875)">
          <path id="Path_143" data-name="Path 143" d="M-130.7,118.8l.9-.5.3.2h1.9l.1.3.7-.2.6.1.5-.2.5-.4,1,.4.5-.4.6-.4.6-.1.2-.3.4-.4.7-.4h.7l.3-.2.6.2.3-.5.8-.3.6-.3.4-.4h.4l.3-.1h.5l.1-.5.3-.1h.4l.2-.4.8-.4.2.2.4-.1h.9l.2-.3.5.5v.6l-.4.1v.2l-1,.8-.2,1.3-.5.8.1,1.2-.1.6-.4.5v.6l-.4.8v.2l-.6.8-.1.8v.4l.1,1-.2.6.3.7.2.7-.1,1.1v.7l-.1.7.2.4-.4.8.2.7v.5l.1.5-.3.7.1.6-.6,1-.3.6-.2.4.3.3-.6.3-.8.3-.1-.3-.6-.3.2-.7-.4-.4-.3-.4-.2-.4-.1-.3-.4-.3.3-.3V132l-.1-.4-.1-1.2.1-.7-.1-.9.2-.5-.2-1.9.3-.8.2-.9-.4-1.3.2-.6-.3-.3.1-.2v-.8l.1-.3-.4-.5-.4-.2-1.1.4h-.9l-.4.3-.5.1-.5-.1-.8.6h-.5l-.1.5-.4,1-.7.2-.4.6-.6-.2-.4.4-.8.1-.7.7-.6.2-.2.1-1-.1-.5-.6.1-1.1.3-1.3h.3l.2-.5.3-.3-.2-.4.3-.2-.4-.9-.1-.5Z" transform="translate(131.5 -113.2)" fill="#fff"/>
          <path id="Path_144" data-name="Path 144" d="M-108.5,114.7l.4-.2.1-.5.5-.2.2-.2h.5l.1-.4.8.2.6.2.1.5-.2,1.1.5.3.5-.1.5-.2v-.3l.4-.5h.4l.2-.3h.5l.7.5.2.1.2.2v.5l.3.3h.2l.1.4.3.3,1.2.6.6.4.4.4.4.2-.1.9-.5.5-.6.3h-.4l-.2.3h-1.1l-.5-.3h-.3l-.5-.2-.9-.2-.4-.1-.4.2-.3-.2-.4.1-.6-.1-.5.5-.2.7-.1,1.1v.6l.4.1v1.1l.1.4.1.4v.5l.3.4.6.2h1.1l.4.4.5.4.5.2.1.2h.3l.7.5.8.2.5-.1.6.5h.7l.4.3.8.1h.6l.5.3.4-.1.6.2.4-.2.7.2,1.2-.1.7-.4.4-.5h.8l.6-.1.1.3,1.6-.5.8-.7.7-.2.3-.3.5-.1.1-.3-.2-.2,1-.7.2-.4v-.6l.5-.7.2-.2-.1-.5.1-.2.4-.1.6-.4h.5l.8.3.1.3.3.1.2.7-.1.9-.2.1-.4.9.1.3-.9.5-.1.3-.3.4-.3.7-.5.2-.4.6v.5l-.2.1-.5,1.2-.6.4-.5.6-.3.1-.1.4-.4-.1-.1.4-.4.4-.3.1-.5.3-.3.5-.6.4-.5.2-.1.4-.8.5h-.3a2.74,2.74,0,0,0-.7.4,8.115,8.115,0,0,1-.6.8l-.5-.2-.4-.3h-.3l-.3-.4-.6-.5-.8-.2-.7-.7h-.5l-.6-.4-.6-.4-.7-.7-.3.1-.6-.3-.3.1-.7-.2-.6-.2-.5-.3-.3-.4-.5.1-.5-.3-.9-.1-.7.1-.5-.3-1-.5-.5-.2-.8-.3-.7-.2-.5-.9v-.3l-.2-.1-.4-.8-.1-.4-.2-.3-.1-.5-.3-.7-.2-.4.1-.3-.4-.9-.2-.3v-.6l.2-.6-.3-.4.1-.3V120l-.2-.2.1-.4v-.8l-.2-.6.4-.5.2-.7.1-.5-.2-.3.5-.9Z" transform="translate(131.5 -113.2)" fill="#fff"/>
        </g>
      </g>
    </g>
    <g id="Group_69" data-name="Group 69" transform="translate(0.4)">
      <path id="Path_145" data-name="Path 145" d="M-177.2,83.5c-.6.2-1.2.4-2,.6v4.6a1.445,1.445,0,0,1-.2.7.984.984,0,0,1-.8.3h-1.3l-.2-.8h1.3a.367.367,0,0,0,.3-.1.367.367,0,0,0,.1-.3V84.4a18.75,18.75,0,0,1-2,.5l-.2-.8a18.87,18.87,0,0,0,2.1-.6V80H-182v-.8h1.9V76.7h.8v2.5h1.7V80h-1.7v3.3l1.8-.6Zm8.1-1.7h-6.4a1.135,1.135,0,0,1-.8-.3.908.908,0,0,1-.3-.7v-4h.8v1.4h6.2V79h-6.2v1.6a.367.367,0,0,0,.1.3.367.367,0,0,0,.3.1h6.3v.8Zm-.8,8h-.8V89h-5v.8h-.8V83h6.6Zm-.7-4.2V83.9h-5v1.7Zm0,2.6V86.3h-5v1.9Z" transform="translate(182.2 -76.7)" fill="#fff"/>
      <path id="Path_146" data-name="Path 146" d="M-154.1,84.8l-.2.7h-5.3a10.363,10.363,0,0,1-3.6-.4,3.932,3.932,0,0,1-1.7-.9,8.622,8.622,0,0,1-1.8,1.4l-.5-.6a6.985,6.985,0,0,0,2.7-2.7h-2.4v-.7c.8-.6,1.5-1.2,2.2-1.8h-2.4v-.7h3.3v.7a11.234,11.234,0,0,1-2,1.8h2v.7a6.376,6.376,0,0,1-.8,1.4,5.3,5.3,0,0,0,1.5.8,13.741,13.741,0,0,0,3.6.3h5.4Zm-.1,2.3H-157v1.5a.975.975,0,0,1-.4.9,2.213,2.213,0,0,1-1.4.3h-1l-.2-.7h1.9c.3,0,.4-.1.4-.3V87.2h-9.4v-.7h9.4V86h.8v.5h2.8v.6Zm-9.9-8.8-.5.5a19.152,19.152,0,0,0-2.1-1.6l.6-.5C-165.4,77.2-164.7,77.8-164.1,78.3Zm2.6,10.4-.5.6a8.994,8.994,0,0,0-2.4-1.1l.5-.6A8.56,8.56,0,0,1-161.5,88.7Zm7.3-10.1h-4.1l-.4.8h3.7V84h-7.6V79.4h3a1.969,1.969,0,0,0,.4-.8h-4.3v-.7h9.2v.7Zm-5.9-1.2-.6.4a8.65,8.65,0,0,0-1-.7l.6-.4A6.069,6.069,0,0,1-160.1,77.4Zm4.4,3.3V80h-6v.7Zm0,1.3v-.8h-6V82Zm0,1.3v-.8h-6v.8Zm0-6.3a10.54,10.54,0,0,1-1.1.7l-.6-.4a3,3,0,0,0,1.1-.6Z" transform="translate(182.2 -76.7)" fill="#fff"/>
      <path id="Path_147" data-name="Path 147" d="M-139.2,87.7h-6.1v2.1h-.8V87.7h-6.1V87h6.1V85.8h-4.6V81.1h9.9v4.7h-4.6V87h6.1v.7Zm-7.1-7.7h-4.8V77.1h4.8Zm-.8-.7V77.8h-3.2v1.5Zm1,3.7V81.8h-3.8V83Zm0,2V83.7h-3.8V85Zm4.6-2V81.8h-3.8V83Zm0,2V83.7h-3.8V85Zm1.3-5h-4.7V77.1h4.7Zm-.8-.7V77.8h-3.2v1.5Z" transform="translate(182.2 -76.7)" fill="#fff"/>
      <path id="Path_148" data-name="Path 148" d="M-133.3,77.1a7.931,7.931,0,0,1-.8,1.6l-.5.9V89.8h-.8V81.1a14.962,14.962,0,0,1-1.7,2.3l-.5-.7a20.625,20.625,0,0,0,3.4-5.8Zm9,12.4h-9.6v-.8h3a46.112,46.112,0,0,0-1.7-8l.5-.3h-1.7v-.8h4.4a11.422,11.422,0,0,0-.9-2.6l.8-.3a16.284,16.284,0,0,1,1,2.9h3.9v.8h-1.5l.5.2a40.636,40.636,0,0,1-1.8,8.1h3v.8Zm-2-9.1h-5.4a61.334,61.334,0,0,1,1.7,8.3h1.9A41.108,41.108,0,0,0-126.3,80.4Z" transform="translate(182.2 -76.7)" fill="#fff"/>
    </g>
  </g>
</svg>
