<svg xmlns="http://www.w3.org/2000/svg" width="160" height="132" viewBox="0 0 160 132">
  <g id="LOGO_POSTL" transform="translate(0)">
    <rect id="Rectangle_158" data-name="Rectangle 158" width="160" height="132" transform="translate(0)" fill="none"/>
    <path id="_15" data-name="15" d="M56.5,91.7c-.2,0-.4-.1-.6-.1v-.8a4.013,4.013,0,0,0-.3-1.5l-1.5-3.9a21.711,21.711,0,0,1-1.3-5.6,30.285,30.285,0,0,1-.2-3.1c0-.3.1-.6.1-.9s.2-.4.4-.5c1-.3,2-.6,2.9-.8.2-.1.4-.1.6-.2,0-.2-.2-.3-.4-.3a2.354,2.354,0,0,1-.8.2c-.6.2-1.1.3-1.7.5-.3-.4-.5-.8-.8-1.2a8.108,8.108,0,0,0,2.1-1c-.3-.5-.6-1-.8-1.4a24.03,24.03,0,0,1-1.1-2.3c-.1-.3-.3-.5-.1-.8a1.077,1.077,0,0,1,.8-.2c.7.2,1.5.3,2.2.5.2,0,.4.1.7.1.6-1.5,1.1-3.1,1.7-4.6a9.13,9.13,0,0,0-1.3-.8c-.7-.4-1.4-.9-2.1-1.3a1.33,1.33,0,0,0-.8-.3,17.563,17.563,0,0,1-4-.6A10.35,10.35,0,0,1,44.8,57a16.275,16.275,0,0,1-2.9-5.9c-.3-1.3-.5-2.6-.7-3.9v-.8c0-.2,0-.4.3-.5.2-.1.4.1.5.3a2.507,2.507,0,0,1,.4.7c.4,1,.7,1.9,1,2.9a17.745,17.745,0,0,0,3.4,5.8,8.691,8.691,0,0,0,3.5,2.5c.2.1.5.1.8.2a.769.769,0,0,0-.2-.3,47.955,47.955,0,0,1-6.1-9.9c-.9-1.8-1.8-3.7-2.7-5.5-.2-.4-.4-.7-.6-1.1a5.088,5.088,0,0,0-1.3-1.6,12.551,12.551,0,0,1-3-5.1,14.723,14.723,0,0,1-.4-3.6,17.223,17.223,0,0,1,.4-3.9c.1-.4.2-.7.3-1,.1-.2.2-.6.5-.5.3,0,.3.4.4.6.1.5.1,1.1.2,1.6.1,1.1.1,2.3.2,3.4a8.6,8.6,0,0,0,.1,1.6,7.34,7.34,0,0,0,.9,3.2,4,4,0,0,0,1,1.2.782.782,0,0,0,1.1,0A7.551,7.551,0,0,0,43,36c1.2-2.1,2.6-4.1,3.9-6.1,1.5-2.1,3-4.3,4.4-6.4a2.651,2.651,0,0,1,.5-.6.764.764,0,0,1,.5-.2c.2,0,.2.2.2.4a1.209,1.209,0,0,1-.3,1c-.5,1.1-1,2.1-1.5,3.1-.3.5-.6,1-.9,1.6a11.938,11.938,0,0,0-.8,1.6c-.4.7-.8,1.5-1.2,2.2a21.985,21.985,0,0,0-1.5,3.1,10.622,10.622,0,0,0-.4,1.9,10.234,10.234,0,0,0,0,3.9,12.261,12.261,0,0,0,1.3,4.1,49.568,49.568,0,0,0,4.3,6.9c1.4,1.9,2.8,3.8,4.4,5.6a15.246,15.246,0,0,0,3.8,3.1c.7-1,1.4-2.1,2.1-3.1a10.725,10.725,0,0,1,2.7-2.5c-.1-.7-.3-1.4-.4-2.1-.1-.8-.2-1.7-.3-2.5-.1-.9-.3-1.8-.4-2.8v-.7c0-.2.1-.4.3-.4a.764.764,0,0,1,.5.2.864.864,0,0,1,.3.6,18.916,18.916,0,0,1,.5,2.3,23.254,23.254,0,0,0,.8,3.6c.1.2.1.3.2.5.2-.1.3-.2.4-.2A25.092,25.092,0,0,1,76,50.7c1.4-.2,2.8-.1,4.2-.2A23.61,23.61,0,0,1,92.9,54c.1.1.2.1.3.2h.1a10.564,10.564,0,0,0,.6-1.9c.2-1.2.4-2.3.6-3.5.1-.4.2-.7.3-1.1a2.186,2.186,0,0,1,.3-.5.445.445,0,0,1,.6-.2.55.55,0,0,1,.3.5c-.1.7-.1,1.4-.2,2.1a4.857,4.857,0,0,1,0,2.4c-.1.8-.3,1.6-.4,2.5,0,.3-.1.6-.1,1a15.868,15.868,0,0,1,4.9,5.7,16.108,16.108,0,0,0,4.4-3.8A74.788,74.788,0,0,0,111.9,47a15.739,15.739,0,0,0,1.9-5.1,12.456,12.456,0,0,0-1.2-7.8c-1.3-2.4-2.6-4.8-3.8-7.2-.5-.9-.9-1.9-1.3-2.8-.1-.2-.1-.5-.2-.8,0-.2,0-.4.2-.5s.4,0,.6.2a1.794,1.794,0,0,1,.5.7c1,1.4,2,2.9,3,4.3,1.3,1.9,2.6,3.8,3.8,5.8.6.9,1.1,1.8,1.6,2.7a7.632,7.632,0,0,0,.8,1.1.75.75,0,0,0,1.2,0,4.187,4.187,0,0,0,1.3-2.2,12.42,12.42,0,0,0,.5-3.8c.1-1.4.1-2.8.2-4.1a4.253,4.253,0,0,1,.2-1.1.451.451,0,0,1,.3-.3.536.536,0,0,1,.4.3,7.494,7.494,0,0,1,.5,1.6,17.472,17.472,0,0,1-.1,7.2,10.35,10.35,0,0,1-2.3,4.4,2.336,2.336,0,0,1-.7.7,8.373,8.373,0,0,0-2,2.9c-1.2,2.5-2.4,5-3.6,7.4a33.5,33.5,0,0,1-2.7,4.5,22.6,22.6,0,0,1-2.3,3.1.758.758,0,0,0-.2.4l.1.1a4.179,4.179,0,0,0,1-.4,9.583,9.583,0,0,0,3.7-2.9,17.831,17.831,0,0,0,3-5.4,19.451,19.451,0,0,1,.8-2.2,5.359,5.359,0,0,1,.5-1.1,1.756,1.756,0,0,1,.4-.5c.3-.2.5-.1.6.2,0,.2.1.5,0,.7-.1.6-.2,1.2-.3,1.9s-.3,1.5-.4,2.2a13.764,13.764,0,0,1-1.2,3.4,14.316,14.316,0,0,1-3.1,4.2,7.123,7.123,0,0,1-2.2,1.5c-.4.2-.8.4-1.3.6a14.351,14.351,0,0,1-4.6.8,1.884,1.884,0,0,0-.8.2c-.8.5-1.6,1-2.5,1.6a4.053,4.053,0,0,1-.9.5c.6,1.6,1.2,3.1,1.8,4.7a11.043,11.043,0,0,0,1.6-.3c.4-.1.8-.2,1.3-.3h.3c.6.1.8.3.5.8-.7,1.2-1.1,2.4-1.8,3.5-.2.3-.2.4.1.5.4.2.9.4,1.4.7.2.1.4.1.6.2a5.547,5.547,0,0,1-.6.8c-.2.3-.4.3-.8.1-.7-.2-1.3-.4-2-.6-.2-.1-.3,0-.4.3,1.3.4,2.7.8,4,1.2a18.5,18.5,0,0,1-.3,6.2,28.844,28.844,0,0,1-1.8,5.9,21.85,21.85,0,0,0-.9,2.3,4.869,4.869,0,0,0-.1,1.2v.6h-1.4c-.4,1.3-.8,2.5-1.2,3.7-.1.2-.2.5-.3.7a1.344,1.344,0,0,1-.6.7,1.555,1.555,0,0,0-.6.8,16.18,16.18,0,0,1-1,1.8,2.186,2.186,0,0,1-2.6,1c0-.2-.1-.4-.1-.6h-.1c-.1.2-.2.3-.2.5a1.183,1.183,0,0,1-1.6-.7,1.7,1.7,0,0,1-2.1-.8,5.562,5.562,0,0,1-.6-2.1,22.621,22.621,0,0,1,.1-5.2.367.367,0,0,0-.1-.3c-.1.5-.2.9-.3,1.4-.4,2.1-.8,4.3-1.3,6.4a24.439,24.439,0,0,1-1.4,4.6,7.607,7.607,0,0,1-1.2,1.9,9.17,9.17,0,0,1-4.9,3.3,8.979,8.979,0,0,1-8.8-2.3,9.428,9.428,0,0,0-1-1,8.668,8.668,0,0,1-1.7-3.3,43.1,43.1,0,0,1-1.5-6.2c-.3-1.9-.8-3.8-1.2-5.7,0-.1-.1-.2-.2-.3.1.6.1,1.1.2,1.7a24.375,24.375,0,0,1,0,5.4c-.1.5-.2.9-.3,1.4a2.365,2.365,0,0,1-1.1,1.3,1.217,1.217,0,0,1-1.3,0,.877.877,0,0,1-.6.7,1.729,1.729,0,0,1-1,.1,1.689,1.689,0,0,1-.2-.5h-.1c0,.1-.1.2-.1.4a.265.265,0,0,1-.3.3,2.167,2.167,0,0,1-2.2-.8,9.409,9.409,0,0,1-1.2-2.2,1.794,1.794,0,0,0-.5-.7,1.344,1.344,0,0,1-.6-.7,17.873,17.873,0,0,1-1.3-3.9c0-.2-.1-.3-.1-.5h-.1c0,.1-.1.2-.1.4a7.257,7.257,0,0,1-1,2.8,14.812,14.812,0,0,1-2.5,3.5,20.442,20.442,0,0,0-2.5,3.3,10.534,10.534,0,0,0-1.3,3.5,18.915,18.915,0,0,0-.5,2.3.9.9,0,0,1-.1.5h.2a18.184,18.184,0,0,1,5.6-2.2c1.1-.3,2.2-.6,3.3-.8a10.876,10.876,0,0,1,4.4.1c1.3.2,2.5.6,3.8.9a4.1,4.1,0,0,1,2.3,1.3,2.133,2.133,0,0,1,.6,2,10.564,10.564,0,0,1-.6,1.9,14.98,14.98,0,0,1-2.5,4,11.678,11.678,0,0,1-6.6,4,9.9,9.9,0,0,1-5.4-.3,2.368,2.368,0,0,1-1.8-1.8,1.585,1.585,0,0,1,1.9-1.8c.5.1.7.4.5.9l-.3.6a.483.483,0,0,0,.1.7,2.01,2.01,0,0,0,.8.4,5.4,5.4,0,0,0,5.6-.7,12.6,12.6,0,0,0,4.3-5.9,4.306,4.306,0,0,0,.4-2.2,2.438,2.438,0,0,0-1.8-2.5,10.018,10.018,0,0,0-6.4-.1,5.533,5.533,0,0,0-3.2,2.6,37.273,37.273,0,0,0-1.6,3.5c-.9,2.2-1.7,4.4-2.5,6.6l-2.7,7.5c-.6,1.8-1.2,3.7-1.9,5.6a.9.9,0,0,0-.1.5.1.1,0,0,1,.1.1,20.094,20.094,0,0,1,3.3-1.6,46.614,46.614,0,0,0,6.8-3.2,21.991,21.991,0,0,0,5.1-4c1.1-1.2,2.3-2.4,3.5-3.5a9.751,9.751,0,0,1,4-2.4,4.446,4.446,0,0,1,2.3-.1,2.349,2.349,0,0,1,1.9,1.8c.1.4.3.8.4,1.2a2.921,2.921,0,0,0,4.1,1.4l1.5-.9c.1-.4.1-.8.2-1.2a3.786,3.786,0,0,1,3-2.7,3.6,3.6,0,0,1,3,.7,2.4,2.4,0,0,1,.9,1.7,1.43,1.43,0,0,1-1.4,1.4,1.336,1.336,0,0,1-1.4-1.3,1.884,1.884,0,0,1,.2-.8c0-.1.2-.2.2-.3a1.184,1.184,0,0,0-2.1.1c-.1.1-.1.2-.2.3a3.378,3.378,0,0,0,.2,2.6,16.179,16.179,0,0,1,1,1.8,4.271,4.271,0,0,1-.9,4.9,1,1,0,0,0-.4.5c.1,0,.3-.1.4-.1a19.265,19.265,0,0,0,5.7-4.1c.1-.1.2-.2.2-.3,1.1-1.8,2.2-3.6,3.2-5.5.1-.1.1-.2.2-.4H89.7a.812.812,0,0,1-.8-.4,1.381,1.381,0,0,1-.3-.4c1,0,1.9-.1,2.8-.1a.52.52,0,0,0,.2-.4l2.1-3.6a.675.675,0,0,1,.6-.4c.7-.1,1.4-.1,2.1-.2-.9,1.5-1.7,2.9-2.6,4.4h1c.7,0,1.5-.1,2.2-.1.2,0,.4,0,.5.2s.3.3.5.5a.749.749,0,0,0-.5.1c-1.3,0-2.5.1-3.8.1a.548.548,0,0,0-.6.4L89.2,126a10.092,10.092,0,0,0-.7,1.5,2.959,2.959,0,0,0-.2,1c0,.7.3,1.1,1.1,1a5.813,5.813,0,0,0,2.5-.9,12.61,12.61,0,0,0,3.1-2.5c1-1,2-2.1,3-3.2l.1-.1a2.975,2.975,0,0,0,1-2,20.864,20.864,0,0,1,3-7.6,3.891,3.891,0,0,1,2-1.6,1.268,1.268,0,0,1,.6-.1,1.084,1.084,0,0,1,1.1.8,4.887,4.887,0,0,1-.1,2.4,10.18,10.18,0,0,1-1.6,3.1,20.467,20.467,0,0,1-3.5,3.7,1.346,1.346,0,0,0-.5,1.2,6.106,6.106,0,0,0,.3,1.3,1.1,1.1,0,0,0,1.4.8,6.944,6.944,0,0,0,1.3-.5,18.576,18.576,0,0,0,1.9-1.1,4.05,4.05,0,0,1,2.1-.7,5.067,5.067,0,0,1,1.3.2,1.759,1.759,0,0,1,1.2,1.9,8.33,8.33,0,0,1-.4,1.5,18.212,18.212,0,0,1-1.5,2.7,9.734,9.734,0,0,1-8.4,4.2,8.92,8.92,0,0,0-3.2.5,13.761,13.761,0,0,1-5.3.9c-2.8.1-5.6.2-8.5.3h-.5c0,.2-.1.4-.1.6H80.1c-.2,0-.4-.1-.6.1a.749.749,0,0,1-.5.1c-1.4,0-2.7-.1-4.1-.1a.55.55,0,0,1-.5-.3.6.6,0,0,0-.6-.3,17.7,17.7,0,0,1-2.3-.1H70.1a.458.458,0,0,1-.5-.4.739.739,0,0,1,.5-.6h3.8c.3,0,.5,0,.6-.3a.6.6,0,0,1,.6-.3c1.4,0,2.7.1,4.1.1.1,0,.3,0,.3.1.2.2.3.1.5.1.6,0,1.1.1,1.7.1,0,.1.1.2.1.4h4c1.6,0,3.3-.1,4.9-.2,1-.1,2-.1,3-.3a12.092,12.092,0,0,0,1.8-.5c.4-.1.9-.3,1.3-.4a9.863,9.863,0,0,1,2.4-.3,12.745,12.745,0,0,0,2.8-.2,7.622,7.622,0,0,0,4.4-3.2,13.047,13.047,0,0,0,1.4-2.6,2.516,2.516,0,0,0,.3-1.9,1.461,1.461,0,0,0-2-1,10.929,10.929,0,0,0-1.5.8c-.6.3-1.3.7-1.9,1a9.363,9.363,0,0,1-1.6.4,1.847,1.847,0,0,1-2.2-1.8v-.3a1.38,1.38,0,0,0-.4.3c-1.2,1.1-2.3,2.2-3.5,3.2a18.763,18.763,0,0,1-2.4,1.8,9.5,9.5,0,0,1-3.3,1.3,2.885,2.885,0,0,1-1.8-.3,1.9,1.9,0,0,1-1-1.8V127a1.756,1.756,0,0,1-.5.4,14.242,14.242,0,0,1-4.7,2.9,9.6,9.6,0,0,1-3.3.6,4.719,4.719,0,0,1-3-1,3.135,3.135,0,0,1-.4-4.4,1.786,1.786,0,0,1,1.8-.6,1.174,1.174,0,0,1,1,.9,1.485,1.485,0,0,1-.4,1.4.9.9,0,0,1-1.1.1,2.16,2.16,0,0,0,1,2.7,1.807,1.807,0,0,0,2.2-.2,3.972,3.972,0,0,0,.9-4.7,21.158,21.158,0,0,1-1.1-2.1c-2,1.6-4,1.6-6.1-.2-.1.2-.1.4-.2.5a12.3,12.3,0,0,1-5.8,6.7,6.387,6.387,0,0,1-3.3,1,2.957,2.957,0,0,1-2-.6,1.8,1.8,0,0,1-.6-.9,4.2,4.2,0,0,1-.2-2.7v-.2c-.1,0-.2,0-.2.1a21.611,21.611,0,0,1-5.4,2.9c-1.9.8-3.9,1.6-5.8,2.5a15.088,15.088,0,0,0-2.8,1.5,12.7,12.7,0,0,0-1.2,1,1.822,1.822,0,0,0,.1,2,1.136,1.136,0,0,0,.8.3c.2,0,.3-.1.5-.1.4,0,.5.1.5.5v.7a18.628,18.628,0,0,1-.7,3.4c-.1.2-.3.4-.4.6a.428.428,0,0,1-.7-.1,6.109,6.109,0,0,1-.7-1.4,9.039,9.039,0,0,1-.3-5.4c.5-1.9,1.1-3.8,1.7-5.7,1.8-6,3.6-12,5.4-18.1a7.46,7.46,0,0,1,1.5-3.1c-.1,0-.1-.1-.1,0a14.763,14.763,0,0,0-2.9,1.2,4.494,4.494,0,0,0-2.1,2.2,2.178,2.178,0,0,1-.7.9,1.084,1.084,0,0,1-1.7-.2,1.3,1.3,0,0,1,.4-1.8,2.92,2.92,0,0,1,.9-.2,1.016,1.016,0,0,0,1-.5c.1-.1.1-.2.2-.2a1.709,1.709,0,0,0,.7-1.3,50.088,50.088,0,0,1,1.4-5.2,11.88,11.88,0,0,1,1.3-2.5c1-1.5,2-3,3.1-4.5a15.569,15.569,0,0,0,1.6-2.8C56.3,92.4,56.4,92,56.5,91.7ZM67,56.1c.2.5.4.9.6,1.3a20.207,20.207,0,0,0,2.4,4,9.373,9.373,0,0,1,2,4.7c0,.2,0,.4.1.4a13.029,13.029,0,0,0,1.5,1h.2a.638.638,0,0,1,.8.5,1.205,1.205,0,0,0,.5.5,12.665,12.665,0,0,0,1.8.6,14.723,14.723,0,0,0,4.7.3,10.736,10.736,0,0,0,3.2-.8,8.794,8.794,0,0,1,.6-1,.445.445,0,0,1,.6-.2.661.661,0,0,0,.6-.1c.2-.1.4-.3.6-.4a1.17,1.17,0,0,0,.8-1.1c0-.2.1-.3.1-.5A10.277,10.277,0,0,1,90,61.2a5.547,5.547,0,0,0,.6-.8,34.248,34.248,0,0,0,2.3-4.2c0-.1.1-.2.1-.3a10.948,10.948,0,0,1-1.1-1,.375.375,0,0,0-.6,0c-.1.1-.3.2-.4.3a.627.627,0,0,1-.8.2c-.5-.1-.9-.2-1.4-.3a16.958,16.958,0,0,0-2.2-.4,7.719,7.719,0,0,0-1.5-.2c-.7,0-1.4-.2-2.1-.2-1.1-.1-2.2.1-3.4,0a14.079,14.079,0,0,0-2.9.1c-.9.1-1.8.1-2.6.2-1.1.2-2.2.4-3.3.7a1.258,1.258,0,0,1-1.6-.5c-.2-.2-.3-.2-.5-.1A15.792,15.792,0,0,1,67,56.1Zm-4,71.8c.1.2.2.7.4,1.1a1.1,1.1,0,0,0,1,.6,2.836,2.836,0,0,0,1.3-.4,9.967,9.967,0,0,0,2.1-2,13.655,13.655,0,0,0,2.6-4.9,7.789,7.789,0,0,0,.4-2.1,1.426,1.426,0,0,0-2.2-1.5c-.3.1-.5.3-.8.4-.3.3-.7.5-1,.8a16.728,16.728,0,0,0-3.4,5.2A11.8,11.8,0,0,0,63,127.9Zm41.2-40.1a4.874,4.874,0,0,1,.3-.7,38.44,38.44,0,0,0,1.6-6.7,1.939,1.939,0,0,0-.7-1.9,13.735,13.735,0,0,0-2-1.3,2.365,2.365,0,0,1-1.1-1.3c0-.1,0-.1-.1-.2a.31.31,0,0,1-.2.1,6.384,6.384,0,0,1-2.9,1.6,9.442,9.442,0,0,1-.9.3,4.874,4.874,0,0,1,.7.3c.1.3-.2.6.2.7.5-.5.7-.5,1.3-.2a3.447,3.447,0,0,1,1.7,2.2c.1.4.1.8.2,1.2,0,.2,0,.5.1.6a3.805,3.805,0,0,1,.5,1.5c.1,1,0,2,.1,3v.9A4.869,4.869,0,0,1,104.2,87.8ZM57.9,75.7a2.118,2.118,0,0,1-1.4,1.5,2.506,2.506,0,0,0-.7.4l-1.2.9a1.346,1.346,0,0,0-.5,1.2,3.75,3.75,0,0,0,.1,1.1,28.033,28.033,0,0,0,1.2,5l.6,1.8h1.2V84.1a3.287,3.287,0,0,1,.4-1.7c.1-.2.1-.3.2-.5a2.769,2.769,0,0,0,.1-.9,3.731,3.731,0,0,1,1.9-2.8.9.9,0,0,1,1.1.1.367.367,0,0,0,.3.1v-.7l.6-.3A6.311,6.311,0,0,1,57.9,75.7Zm43.3-6.8A19.932,19.932,0,0,0,99.5,65a10.907,10.907,0,0,0-1.1.6c-1.2.6-2.5,1.3-3.7,1.9a26.938,26.938,0,0,0-2.9,1.6,3.178,3.178,0,0,0-1,1,.6.6,0,0,0-.1.4c.1.2.1.5.3.6a3.33,3.33,0,0,0,1.7,1.4,9.958,9.958,0,0,1,1.1-1,7.664,7.664,0,0,1,3.5-2l2.1-.3Q100.15,69.05,101.2,68.9Zm-32.1,1a7.051,7.051,0,0,0-.9-.7,15.054,15.054,0,0,0-1.7-1c-1.4-.7-2.7-1.4-4.1-2.1-.7-.3-1.3-.7-2-1a30.771,30.771,0,0,0-1.6,3.8,1.087,1.087,0,0,0,.5.1,26.956,26.956,0,0,0,2.8.4,7.338,7.338,0,0,1,4.2,2.1,11.407,11.407,0,0,1,1.1,1.1,3.907,3.907,0,0,0,1.7-1.4C68.7,70.5,68.7,70.5,69.1,69.9ZM94.6,57.6a11.731,11.731,0,0,1-.5,1.1c-.4.8-.9,1.5-1.3,2.3a3.508,3.508,0,0,0-.5.8c-.5.8-.9,1.6-1.3,2.4a3.582,3.582,0,0,0-.4,1.1q-.15.9.6.6c.4-.1.9-.3,1.3-.4a42.091,42.091,0,0,0,5.5-3c.1,0,.1-.1.2-.2A13.46,13.46,0,0,0,94.6,57.6ZM61.8,62.4l1.5.9a28.222,28.222,0,0,0,4.6,2.3l.9.3c.5.1.6-.1.5-.6a3.582,3.582,0,0,0-.4-1.1c-.4-.8-.9-1.6-1.4-2.4a21.048,21.048,0,0,1-2.1-3.9c0-.1-.1-.1-.1-.2A16.03,16.03,0,0,0,61.8,62.4Zm14.9,42.8h.4a2.851,2.851,0,0,0,1.4-.8c.5-.6,1.1-1.2,1.7-1.8l.2.2c.6.6,1.1,1.2,1.7,1.8a1.8,1.8,0,0,0,1.6.6,1.985,1.985,0,0,0-1.1-1.4c-.7-.4-1.5-.8-2.2-1.2a1.062,1.062,0,0,0,.2-1.3c-.1-.4-.2-.7-.3-1.1.1-.1.1-.1.1-.2l2.3-2.3a2.651,2.651,0,0,0,.5-.6.758.758,0,0,0-.1-1,1.222,1.222,0,0,0-.9-.3H78.1a.749.749,0,0,0-.5.1c-.6.2-.8.7-.4,1.2.2.2.4.5.6.7.8.8,1.6,1.6,2.3,2.4a6.468,6.468,0,0,1-.4,1.3.592.592,0,0,0,.1.7c.1.1.1.2.2.3-.7.4-1.5.8-2.2,1.2A2.1,2.1,0,0,0,76.7,105.2Zm23.9,14.7h0a4.3,4.3,0,0,0,1-.9,13.307,13.307,0,0,0,2.3-3,6.294,6.294,0,0,0,.9-3.3,1.5,1.5,0,0,0-.4-1.1c-.2.2-.4.3-.5.4a7.632,7.632,0,0,0-.8,1.1,23.486,23.486,0,0,0-2.3,5.7A6.529,6.529,0,0,0,100.6,119.9ZM87.2,87.2a6.889,6.889,0,0,0,.8-.3c.9-.7,1.7-1.5,2.6-2.3a.913.913,0,0,0,.2-1.1,5.67,5.67,0,0,0-.8-1.3.654.654,0,0,0-1.1,0,25.639,25.639,0,0,0-2.2,3.5,1.412,1.412,0,0,0-.1.9C86.7,87.1,86.8,87.2,87.2,87.2Zm-13.4,0c.5-.1.6-.1.7-.6a1.232,1.232,0,0,0-.2-1,24.64,24.64,0,0,0-2.2-3.4.654.654,0,0,0-1.1,0,3.328,3.328,0,0,0-.6,1,1.147,1.147,0,0,0,.3,1.6l2.4,2.1A2.389,2.389,0,0,0,73.8,87.2Zm30.7-11.6a.765.765,0,0,0-.9-.8.86.86,0,0,0-.8.8.789.789,0,0,0,.8.8C104.2,76.4,104.5,76.1,104.5,75.6Zm-48.1-.8a.8.8,0,1,0,.8.8A.789.789,0,0,0,56.4,74.8Zm41.5,2.9c-.3.1-.6.1-.9.2.1.2.1.3.2.4A4.35,4.35,0,0,1,97.9,77.7Zm-34.8.2c-.2,0-.4-.1-.6-.1.2.2.3.4.5.6A.9.9,0,0,1,63.1,77.9Z" transform="translate(0.2 -15.7)" fill="#fff"/>
  </g>
</svg>
