<svg xmlns="http://www.w3.org/2000/svg" width="160" height="132" viewBox="0 0 160 132">
  <g id="LOGO_健康" transform="translate(0)">
    <rect id="Rectangle_153" data-name="Rectangle 153" width="160" height="132" transform="translate(0)" fill="none"/>
    <g id="Group_89" data-name="Group 89" transform="translate(2 30)">
      <path id="Path_186" data-name="Path 186" d="M-147.6,95.7a16.965,16.965,0,0,0,16.9,17,16.923,16.923,0,0,0,16.9-17.1,17.054,17.054,0,0,0-16.9-16.8A16.879,16.879,0,0,0-147.6,95.7Z" transform="translate(184.6 -78.7)" fill="#fff"/>
      <path id="Path_187" data-name="Path 187" d="M-150.9,96.7h-16.6V94.8h16.7c0-8.5-7.8-15.9-16.7-16a16.922,16.922,0,0,0-17,17,17.071,17.071,0,0,0,17.1,17C-158.7,112.6-150.9,105.2-150.9,96.7Z" transform="translate(184.6 -78.7)" fill="#fff"/>
      <path id="Path_188" data-name="Path 188" d="M-147.6,95.7a16.964,16.964,0,0,1,17-16.9,17.054,17.054,0,0,1,16.9,16.8,16.923,16.923,0,0,1-16.9,17.1A16.986,16.986,0,0,1-147.6,95.7Z" transform="translate(184.6 -78.7)" fill="#fff"/>
      <path id="Path_189" data-name="Path 189" d="M-150.9,96.7c.1,8.5-7.8,15.9-16.6,16a16.882,16.882,0,0,1-17.1-17,17.05,17.05,0,0,1,17-17c8.9.1,16.8,7.5,16.7,16h-16.7v1.9C-162,96.7-156.5,96.7-150.9,96.7Z" transform="translate(184.6 -78.7)" fill="#fff"/>
      <path id="Path_190" data-name="Path 190" d="M-60.6,104.5v11.4h-2.3c0-.4-.1-13.9,0-20.3A16.938,16.938,0,0,1-49.1,79,16.962,16.962,0,0,1-30.3,89.1a16.882,16.882,0,0,1-7.4,21.3,17.036,17.036,0,0,1-21.9-4.7A8.4,8.4,0,0,1-60.6,104.5ZM-46,81.1A14.6,14.6,0,0,0-60.6,95.6a14.769,14.769,0,0,0,14.5,14.8A14.9,14.9,0,0,0-31.3,95.9,14.745,14.745,0,0,0-46,81.1Z" transform="translate(184.6 -78.7)" fill="#fff"/>
      <path id="Path_191" data-name="Path 191" d="M-99.9,95.7A17.049,17.049,0,0,1-82.8,78.8,17.114,17.114,0,0,1-65.9,95.9a16.987,16.987,0,0,1-17.2,16.8A16.942,16.942,0,0,1-99.9,95.7Zm2.3.1a14.7,14.7,0,0,0,14.7,14.6A14.725,14.725,0,0,0-68.3,95.6,14.533,14.533,0,0,0-83,81.2,14.553,14.553,0,0,0-97.6,95.8Z" transform="translate(184.6 -78.7)" fill="#fff"/>
      <g id="Group_87" data-name="Group 87" transform="translate(17.8 51.5)">
        <path id="Path_192" data-name="Path 192" d="M-161.6,130.8c-.2,1-.5,2-.7,3l-.4,1.4v15.9h-2V140.3c-.2.4-.5.9-.9,1.6l-1.2-2.1a27.855,27.855,0,0,0,3.2-9.4Zm15.8,18.2-.6,2.1a41.03,41.03,0,0,1-8.8-.6,7.337,7.337,0,0,1-3.5-2.1,22.6,22.6,0,0,1-2,2.8l-1.7-1.3a20.057,20.057,0,0,0,2.4-3.1,22.168,22.168,0,0,1-1.8-3.8l1.7-1.1a10.873,10.873,0,0,0,1,2.6,17.814,17.814,0,0,0,.6-3.9h-2.6V139a38.95,38.95,0,0,0,2.2-4.9h-2.4v-1.8h4.6v1.8c-.5,1.3-1.2,2.8-2,4.7h2.2a23.567,23.567,0,0,1-1.1,7.9,6.845,6.845,0,0,0,2.1,1.7,8.238,8.238,0,0,0,2.9.7c1.1.1,2.4.1,3.9.1A14.155,14.155,0,0,1-145.8,149Zm-.2-11.8h-1.4v3.2h-3.5v1.5h4.3v1.7h-4.3v1.3h4.9v1.7h-4.9v1.7h-2v-1.7h-3.8V145h3.8v-1.3h-3.3V142h3.3v-1.5h-2.8v-1.6h2.8v-1.5h-3.7v-1.7h3.7v-1.3h-2.7v-1.7h2.7v-1.9h2v1.9h3.5v2.9h1.4Zm-3.3-1.7v-1.3h-1.5v1.3Zm-.1,3.2v-1.5h-1.5v1.5Z" transform="translate(166.8 -130.2)" fill="#fff"/>
        <path id="Path_193" data-name="Path 193" d="M-122.4,139.9h-2.1v2.9h-5.9v6a1.83,1.83,0,0,1-.7,1.7,3.576,3.576,0,0,1-2.1.5h-1.3l-.6-1.9h1.3a2.532,2.532,0,0,0,1.1-.1.52.52,0,0,0,.2-.4v-5.8h-5.3v-1.7h5.3v-1.3h-6.8a33.413,33.413,0,0,1-.6,7.4,12.5,12.5,0,0,1-1.5,3.8l-1.7-1.2c1.1-2,1.7-5.2,1.7-9.6V132h8.3c-.1-.3-.3-.6-.5-1.1l2.1-.7a9.726,9.726,0,0,1,.8,1.9h8.1V134h-7.8v1.3h5.9v2.9h2.1v1.7Zm-11.1,8.3a35.43,35.43,0,0,1-5.2,2.5l-1.1-1.7a34.053,34.053,0,0,0,5.2-2.4Zm1-9.9v-1.2h-5.3v-1.7h5.3V134h-6.8v4.3Zm-1.1,6.4-1.2,1.6c-1.3-.5-2.6-1-3.9-1.4l1.2-1.6A39.592,39.592,0,0,1-133.6,144.7Zm7-6.4v-1.2h-3.8v1.2Zm0,2.9v-1.3h-3.8v1.3Zm2.8,3.6a14.635,14.635,0,0,1-4.6,1.5l-1.1-1.7a21.221,21.221,0,0,0,4.6-1.4Zm.8,4.6-1.3,1.4a24.271,24.271,0,0,0-5.1-2.7l1.1-1.6A42.12,42.12,0,0,1-123,149.4Z" transform="translate(166.8 -130.2)" fill="#fff"/>
      </g>
      <g id="Group_88" data-name="Group 88" transform="translate(64 51.5)">
        <path id="Path_194" data-name="Path 194" d="M-99.9,137.4l-.8,1a25.9,25.9,0,0,1-9.6-6.3,37.048,37.048,0,0,1-9.5,6.3l-.8-1.1a29.261,29.261,0,0,0,10.3-7l1.2.5c-.1.2-.2.3-.3.5A27.323,27.323,0,0,0-99.9,137.4Zm-2.9,13.8H-104v-1.6h-12.3v1.6h-1.3v-9.4h14.8Zm-1.3-2.8v-5.3h-12.3v5.3Zm0-9.8h-12.2v-1.3h12.2Z" transform="translate(120.6 -130.2)" fill="#fff"/>
        <path id="Path_195" data-name="Path 195" d="M-90.4,130.8c-.5,1.1-1,2.1-1.4,3.1l-.7,1.3v16h-1.3V137.4c-1.3,1.9-2.3,3.1-2.7,3.6l-.7-1.2a36.017,36.017,0,0,0,5.6-9.4Zm14,4.1h-7.5V139h6.4v1.2h-6.4v4.4H-77v1.2h-6.9v5.3h-1.3V134.9h-2.2a29.639,29.639,0,0,1-3.3,5.5l-.8-1a26.8,26.8,0,0,0,4.6-9.1l1.1.5c-.1.5-.5,1.5-1,2.9h10.4v1.2Z" transform="translate(120.6 -130.2)" fill="#fff"/>
        <path id="Path_196" data-name="Path 196" d="M-64.5,143.1l-.8,1a17.113,17.113,0,0,0-3.3-3.3V151h-1.2v-9.4c-1.1,1.1-2,1.9-2.6,2.4l-1-1a20.659,20.659,0,0,0,6.5-7.6h-6.4v-1.2h7.8v1.1a19.1,19.1,0,0,1-2.7,4.2A25.559,25.559,0,0,1-64.5,143.1Zm-3.7-9.9-1.2.4a11.883,11.883,0,0,0-1.8-2.9l1.2-.5A29.352,29.352,0,0,1-68.2,133.2Zm15.3,17.3H-65.4v-1.2h5.7V137.4h-5.1v-1.2h5.1v-5.6h1.3v5.6h4.9v1.2h-4.9v11.9h5.5v1.2Z" transform="translate(120.6 -130.2)" fill="#fff"/>
      </g>
      <rect id="Rectangle_152" data-name="Rectangle 152" width="7" height="2.3" transform="translate(74.3 15.9)" fill="#fff"/>
    </g>
  </g>
</svg>
